<mxfile host="app.diagrams.net" agent="Mozilla/5.0 (Windows NT 10.0; Win64; x64) AppleWebKit/537.36 (KHTML, like Gecko) Chrome/131.0.0.0 Safari/537.36 Edg/131.0.0.0" version="24.8.9" pages="2">
  <diagram name="第 1 页" id="WdVF3u0vDcm4bt9vMd2t">
    <mxGraphModel dx="2747" dy="1322" grid="1" gridSize="10" guides="1" tooltips="1" connect="1" arrows="1" fold="1" page="1" pageScale="1" pageWidth="827" pageHeight="1169" background="none" math="0" shadow="0">
      <root>
        <mxCell id="0" />
        <mxCell id="1" parent="0" />
        <mxCell id="VOfUWi2VCmEYPDbz4nwJ-22" value="" style="edgeStyle=orthogonalEdgeStyle;rounded=0;orthogonalLoop=1;jettySize=auto;html=1;" parent="1" source="VOfUWi2VCmEYPDbz4nwJ-1" target="VOfUWi2VCmEYPDbz4nwJ-5" edge="1">
          <mxGeometry relative="1" as="geometry">
            <Array as="points">
              <mxPoint x="300" y="238" />
              <mxPoint x="300" y="238" />
            </Array>
          </mxGeometry>
        </mxCell>
        <mxCell id="VOfUWi2VCmEYPDbz4nwJ-1" value="PI" style="rounded=0;whiteSpace=wrap;html=1;" parent="1" vertex="1">
          <mxGeometry x="210" y="215" width="50" height="45" as="geometry" />
        </mxCell>
        <mxCell id="VOfUWi2VCmEYPDbz4nwJ-15" style="edgeStyle=orthogonalEdgeStyle;rounded=0;orthogonalLoop=1;jettySize=auto;html=1;exitX=1;exitY=0.5;exitDx=0;exitDy=0;entryX=0;entryY=0.5;entryDx=0;entryDy=0;" parent="1" source="VOfUWi2VCmEYPDbz4nwJ-2" target="VOfUWi2VCmEYPDbz4nwJ-1" edge="1">
          <mxGeometry relative="1" as="geometry" />
        </mxCell>
        <mxCell id="VOfUWi2VCmEYPDbz4nwJ-2" value="" style="ellipse;whiteSpace=wrap;html=1;aspect=fixed;" parent="1" vertex="1">
          <mxGeometry x="150" y="223" width="30" height="30" as="geometry" />
        </mxCell>
        <mxCell id="VOfUWi2VCmEYPDbz4nwJ-23" value="" style="edgeStyle=orthogonalEdgeStyle;rounded=0;orthogonalLoop=1;jettySize=auto;html=1;" parent="1" source="VOfUWi2VCmEYPDbz4nwJ-3" target="VOfUWi2VCmEYPDbz4nwJ-5" edge="1">
          <mxGeometry relative="1" as="geometry">
            <Array as="points">
              <mxPoint x="300" y="310" />
              <mxPoint x="300" y="310" />
            </Array>
          </mxGeometry>
        </mxCell>
        <mxCell id="VOfUWi2VCmEYPDbz4nwJ-3" value="PI" style="rounded=0;whiteSpace=wrap;html=1;" parent="1" vertex="1">
          <mxGeometry x="210" y="290" width="50" height="40" as="geometry" />
        </mxCell>
        <mxCell id="VOfUWi2VCmEYPDbz4nwJ-16" style="edgeStyle=orthogonalEdgeStyle;rounded=0;orthogonalLoop=1;jettySize=auto;html=1;exitX=1;exitY=0.5;exitDx=0;exitDy=0;entryX=0;entryY=0.5;entryDx=0;entryDy=0;" parent="1" source="VOfUWi2VCmEYPDbz4nwJ-4" target="VOfUWi2VCmEYPDbz4nwJ-3" edge="1">
          <mxGeometry relative="1" as="geometry" />
        </mxCell>
        <mxCell id="VOfUWi2VCmEYPDbz4nwJ-4" value="" style="ellipse;whiteSpace=wrap;html=1;aspect=fixed;" parent="1" vertex="1">
          <mxGeometry x="100" y="295" width="30" height="30" as="geometry" />
        </mxCell>
        <mxCell id="VOfUWi2VCmEYPDbz4nwJ-25" style="edgeStyle=orthogonalEdgeStyle;rounded=0;orthogonalLoop=1;jettySize=auto;html=1;exitX=1;exitY=0.75;exitDx=0;exitDy=0;entryX=0;entryY=0.75;entryDx=0;entryDy=0;" parent="1" source="VOfUWi2VCmEYPDbz4nwJ-5" target="VOfUWi2VCmEYPDbz4nwJ-8" edge="1">
          <mxGeometry relative="1" as="geometry">
            <Array as="points">
              <mxPoint x="530" y="296" />
            </Array>
          </mxGeometry>
        </mxCell>
        <mxCell id="VOfUWi2VCmEYPDbz4nwJ-59" value="Vd" style="edgeLabel;html=1;align=center;verticalAlign=middle;resizable=0;points=[];" parent="VOfUWi2VCmEYPDbz4nwJ-25" vertex="1" connectable="0">
          <mxGeometry x="-0.3016" y="-1" relative="1" as="geometry">
            <mxPoint as="offset" />
          </mxGeometry>
        </mxCell>
        <mxCell id="VOfUWi2VCmEYPDbz4nwJ-26" style="edgeStyle=orthogonalEdgeStyle;rounded=0;orthogonalLoop=1;jettySize=auto;html=1;exitX=1;exitY=0.25;exitDx=0;exitDy=0;entryX=0;entryY=0.25;entryDx=0;entryDy=0;" parent="1" source="VOfUWi2VCmEYPDbz4nwJ-5" target="VOfUWi2VCmEYPDbz4nwJ-8" edge="1">
          <mxGeometry relative="1" as="geometry">
            <Array as="points">
              <mxPoint x="500" y="239" />
              <mxPoint x="500" y="239" />
            </Array>
          </mxGeometry>
        </mxCell>
        <mxCell id="VOfUWi2VCmEYPDbz4nwJ-58" value="Vq" style="edgeLabel;html=1;align=center;verticalAlign=middle;resizable=0;points=[];" parent="VOfUWi2VCmEYPDbz4nwJ-26" vertex="1" connectable="0">
          <mxGeometry x="-0.1702" y="-1" relative="1" as="geometry">
            <mxPoint as="offset" />
          </mxGeometry>
        </mxCell>
        <mxCell id="VOfUWi2VCmEYPDbz4nwJ-5" value="InvPark" style="rounded=0;whiteSpace=wrap;html=1;" parent="1" vertex="1">
          <mxGeometry x="300" y="210" width="120" height="115" as="geometry" />
        </mxCell>
        <mxCell id="VOfUWi2VCmEYPDbz4nwJ-28" style="edgeStyle=orthogonalEdgeStyle;rounded=0;orthogonalLoop=1;jettySize=auto;html=1;exitX=1;exitY=0.75;exitDx=0;exitDy=0;entryX=0;entryY=0.75;entryDx=0;entryDy=0;" parent="1" source="VOfUWi2VCmEYPDbz4nwJ-8" edge="1">
          <mxGeometry relative="1" as="geometry">
            <mxPoint x="731" y="296.25" as="targetPoint" />
          </mxGeometry>
        </mxCell>
        <mxCell id="VOfUWi2VCmEYPDbz4nwJ-29" style="edgeStyle=orthogonalEdgeStyle;rounded=0;orthogonalLoop=1;jettySize=auto;html=1;exitX=1;exitY=0.25;exitDx=0;exitDy=0;entryX=0;entryY=0.25;entryDx=0;entryDy=0;" parent="1" edge="1">
          <mxGeometry relative="1" as="geometry">
            <mxPoint x="634" y="238.75" as="sourcePoint" />
            <mxPoint x="731" y="238.75" as="targetPoint" />
          </mxGeometry>
        </mxCell>
        <mxCell id="VOfUWi2VCmEYPDbz4nwJ-8" value="SVPWM" style="rounded=0;whiteSpace=wrap;html=1;" parent="1" vertex="1">
          <mxGeometry x="514" y="210" width="120" height="115" as="geometry" />
        </mxCell>
        <mxCell id="VOfUWi2VCmEYPDbz4nwJ-30" style="edgeStyle=orthogonalEdgeStyle;rounded=0;orthogonalLoop=1;jettySize=auto;html=1;exitX=0.25;exitY=0.875;exitDx=0;exitDy=0;entryX=0.967;entryY=0.25;entryDx=0;entryDy=0;exitPerimeter=0;entryPerimeter=0;" parent="1" target="VOfUWi2VCmEYPDbz4nwJ-10" edge="1">
          <mxGeometry relative="1" as="geometry">
            <mxPoint x="751" y="300" as="sourcePoint" />
            <mxPoint x="635" y="458.75" as="targetPoint" />
            <Array as="points">
              <mxPoint x="751" y="460" />
              <mxPoint x="636" y="460" />
              <mxPoint x="636" y="459" />
            </Array>
          </mxGeometry>
        </mxCell>
        <mxCell id="VOfUWi2VCmEYPDbz4nwJ-54" value="Ia" style="edgeLabel;html=1;align=center;verticalAlign=middle;resizable=0;points=[];" parent="VOfUWi2VCmEYPDbz4nwJ-30" vertex="1" connectable="0">
          <mxGeometry x="0.4709" relative="1" as="geometry">
            <mxPoint as="offset" />
          </mxGeometry>
        </mxCell>
        <mxCell id="VOfUWi2VCmEYPDbz4nwJ-31" style="edgeStyle=orthogonalEdgeStyle;rounded=0;orthogonalLoop=1;jettySize=auto;html=1;exitX=0.595;exitY=0.98;exitDx=0;exitDy=0;entryX=1;entryY=0.75;entryDx=0;entryDy=0;exitPerimeter=0;" parent="1" source="VOfUWi2VCmEYPDbz4nwJ-12" target="VOfUWi2VCmEYPDbz4nwJ-10" edge="1">
          <mxGeometry relative="1" as="geometry">
            <mxPoint x="791" y="325" as="sourcePoint" />
            <Array as="points">
              <mxPoint x="791" y="315" />
              <mxPoint x="791" y="516" />
            </Array>
          </mxGeometry>
        </mxCell>
        <mxCell id="VOfUWi2VCmEYPDbz4nwJ-55" value="Ib" style="edgeLabel;html=1;align=center;verticalAlign=middle;resizable=0;points=[];" parent="VOfUWi2VCmEYPDbz4nwJ-31" vertex="1" connectable="0">
          <mxGeometry x="0.6095" y="1" relative="1" as="geometry">
            <mxPoint as="offset" />
          </mxGeometry>
        </mxCell>
        <mxCell id="VOfUWi2VCmEYPDbz4nwJ-36" style="edgeStyle=orthogonalEdgeStyle;rounded=0;orthogonalLoop=1;jettySize=auto;html=1;exitX=0;exitY=0.25;exitDx=0;exitDy=0;entryX=1;entryY=0.25;entryDx=0;entryDy=0;" parent="1" source="VOfUWi2VCmEYPDbz4nwJ-10" target="VOfUWi2VCmEYPDbz4nwJ-11" edge="1">
          <mxGeometry relative="1" as="geometry" />
        </mxCell>
        <mxCell id="VOfUWi2VCmEYPDbz4nwJ-56" value="Iq" style="edgeLabel;html=1;align=center;verticalAlign=middle;resizable=0;points=[];" parent="VOfUWi2VCmEYPDbz4nwJ-36" vertex="1" connectable="0">
          <mxGeometry x="-0.1064" y="-3" relative="1" as="geometry">
            <mxPoint as="offset" />
          </mxGeometry>
        </mxCell>
        <mxCell id="VOfUWi2VCmEYPDbz4nwJ-37" style="edgeStyle=orthogonalEdgeStyle;rounded=0;orthogonalLoop=1;jettySize=auto;html=1;exitX=0;exitY=0.75;exitDx=0;exitDy=0;entryX=1;entryY=0.75;entryDx=0;entryDy=0;" parent="1" source="VOfUWi2VCmEYPDbz4nwJ-10" target="VOfUWi2VCmEYPDbz4nwJ-11" edge="1">
          <mxGeometry relative="1" as="geometry" />
        </mxCell>
        <mxCell id="VOfUWi2VCmEYPDbz4nwJ-57" value="Id" style="edgeLabel;html=1;align=center;verticalAlign=middle;resizable=0;points=[];" parent="VOfUWi2VCmEYPDbz4nwJ-37" vertex="1" connectable="0">
          <mxGeometry x="-0.0638" y="2" relative="1" as="geometry">
            <mxPoint as="offset" />
          </mxGeometry>
        </mxCell>
        <mxCell id="VOfUWi2VCmEYPDbz4nwJ-10" value="Clarke" style="rounded=0;whiteSpace=wrap;html=1;" parent="1" vertex="1">
          <mxGeometry x="514" y="430" width="120" height="115" as="geometry" />
        </mxCell>
        <mxCell id="VOfUWi2VCmEYPDbz4nwJ-38" style="edgeStyle=orthogonalEdgeStyle;rounded=0;orthogonalLoop=1;jettySize=auto;html=1;exitX=0;exitY=0.25;exitDx=0;exitDy=0;entryX=0.5;entryY=1;entryDx=0;entryDy=0;" parent="1" source="VOfUWi2VCmEYPDbz4nwJ-11" target="VOfUWi2VCmEYPDbz4nwJ-2" edge="1">
          <mxGeometry relative="1" as="geometry" />
        </mxCell>
        <mxCell id="VOfUWi2VCmEYPDbz4nwJ-39" style="edgeStyle=orthogonalEdgeStyle;rounded=0;orthogonalLoop=1;jettySize=auto;html=1;exitX=0;exitY=0.75;exitDx=0;exitDy=0;entryX=0.5;entryY=1;entryDx=0;entryDy=0;" parent="1" source="VOfUWi2VCmEYPDbz4nwJ-11" target="VOfUWi2VCmEYPDbz4nwJ-4" edge="1">
          <mxGeometry relative="1" as="geometry" />
        </mxCell>
        <mxCell id="VOfUWi2VCmEYPDbz4nwJ-11" value="Park" style="rounded=0;whiteSpace=wrap;html=1;" parent="1" vertex="1">
          <mxGeometry x="300" y="430" width="120" height="115" as="geometry" />
        </mxCell>
        <mxCell id="VOfUWi2VCmEYPDbz4nwJ-12" value="永磁同步电机" style="ellipse;whiteSpace=wrap;html=1;aspect=fixed;" parent="1" vertex="1">
          <mxGeometry x="730" y="217" width="100" height="100" as="geometry" />
        </mxCell>
        <mxCell id="VOfUWi2VCmEYPDbz4nwJ-43" value="" style="endArrow=classic;html=1;rounded=0;entryX=0;entryY=0.5;entryDx=0;entryDy=0;" parent="1" target="VOfUWi2VCmEYPDbz4nwJ-2" edge="1">
          <mxGeometry width="50" height="50" relative="1" as="geometry">
            <mxPoint x="40" y="238" as="sourcePoint" />
            <mxPoint x="120" y="240" as="targetPoint" />
          </mxGeometry>
        </mxCell>
        <mxCell id="VOfUWi2VCmEYPDbz4nwJ-47" value="" style="endArrow=classic;html=1;rounded=0;entryX=0;entryY=0.5;entryDx=0;entryDy=0;" parent="1" edge="1">
          <mxGeometry width="50" height="50" relative="1" as="geometry">
            <mxPoint x="40" y="308" as="sourcePoint" />
            <mxPoint x="100" y="308" as="targetPoint" />
          </mxGeometry>
        </mxCell>
        <mxCell id="VOfUWi2VCmEYPDbz4nwJ-48" value="Iq_ref" style="text;html=1;align=center;verticalAlign=middle;resizable=0;points=[];autosize=1;strokeColor=none;fillColor=none;" parent="1" vertex="1">
          <mxGeometry x="42" y="213" width="50" height="30" as="geometry" />
        </mxCell>
        <mxCell id="VOfUWi2VCmEYPDbz4nwJ-53" value="Id_ref" style="text;html=1;align=center;verticalAlign=middle;resizable=0;points=[];autosize=1;strokeColor=none;fillColor=none;" parent="1" vertex="1">
          <mxGeometry x="40" y="280" width="50" height="30" as="geometry" />
        </mxCell>
        <mxCell id="VOfUWi2VCmEYPDbz4nwJ-61" style="edgeStyle=orthogonalEdgeStyle;rounded=0;orthogonalLoop=1;jettySize=auto;html=1;exitX=1;exitY=0.25;exitDx=0;exitDy=0;entryX=0;entryY=0.25;entryDx=0;entryDy=0;" parent="1" edge="1">
          <mxGeometry relative="1" as="geometry">
            <mxPoint x="634" y="270" as="sourcePoint" />
            <mxPoint x="731" y="269.75" as="targetPoint" />
          </mxGeometry>
        </mxCell>
        <mxCell id="VOfUWi2VCmEYPDbz4nwJ-96" value="" style="edgeStyle=orthogonalEdgeStyle;rounded=0;orthogonalLoop=1;jettySize=auto;html=1;" parent="1" source="VOfUWi2VCmEYPDbz4nwJ-97" target="VOfUWi2VCmEYPDbz4nwJ-108" edge="1">
          <mxGeometry relative="1" as="geometry">
            <Array as="points">
              <mxPoint x="345.84" y="850" />
              <mxPoint x="345.84" y="850" />
            </Array>
          </mxGeometry>
        </mxCell>
        <mxCell id="VOfUWi2VCmEYPDbz4nwJ-97" value="PI" style="rounded=0;whiteSpace=wrap;html=1;" parent="1" vertex="1">
          <mxGeometry x="255.84" y="827" width="50" height="45" as="geometry" />
        </mxCell>
        <mxCell id="VOfUWi2VCmEYPDbz4nwJ-98" style="edgeStyle=orthogonalEdgeStyle;rounded=0;orthogonalLoop=1;jettySize=auto;html=1;exitX=1;exitY=0.5;exitDx=0;exitDy=0;entryX=0;entryY=0.5;entryDx=0;entryDy=0;" parent="1" target="VOfUWi2VCmEYPDbz4nwJ-97" edge="1">
          <mxGeometry relative="1" as="geometry">
            <mxPoint x="225.84" y="850" as="sourcePoint" />
          </mxGeometry>
        </mxCell>
        <mxCell id="VOfUWi2VCmEYPDbz4nwJ-100" value="" style="edgeStyle=orthogonalEdgeStyle;rounded=0;orthogonalLoop=1;jettySize=auto;html=1;" parent="1" source="VOfUWi2VCmEYPDbz4nwJ-101" target="VOfUWi2VCmEYPDbz4nwJ-108" edge="1">
          <mxGeometry relative="1" as="geometry">
            <Array as="points">
              <mxPoint x="345.84" y="922" />
              <mxPoint x="345.84" y="922" />
            </Array>
          </mxGeometry>
        </mxCell>
        <mxCell id="VOfUWi2VCmEYPDbz4nwJ-101" value="PI" style="rounded=0;whiteSpace=wrap;html=1;" parent="1" vertex="1">
          <mxGeometry x="255.84" y="902" width="50" height="40" as="geometry" />
        </mxCell>
        <mxCell id="VOfUWi2VCmEYPDbz4nwJ-102" style="edgeStyle=orthogonalEdgeStyle;rounded=0;orthogonalLoop=1;jettySize=auto;html=1;exitX=1;exitY=0.5;exitDx=0;exitDy=0;entryX=0;entryY=0.5;entryDx=0;entryDy=0;" parent="1" target="VOfUWi2VCmEYPDbz4nwJ-101" edge="1">
          <mxGeometry relative="1" as="geometry">
            <mxPoint x="175.84" y="922" as="sourcePoint" />
          </mxGeometry>
        </mxCell>
        <mxCell id="VOfUWi2VCmEYPDbz4nwJ-104" style="edgeStyle=orthogonalEdgeStyle;rounded=0;orthogonalLoop=1;jettySize=auto;html=1;exitX=1;exitY=0.75;exitDx=0;exitDy=0;entryX=0;entryY=0.75;entryDx=0;entryDy=0;" parent="1" source="VOfUWi2VCmEYPDbz4nwJ-108" target="VOfUWi2VCmEYPDbz4nwJ-111" edge="1">
          <mxGeometry relative="1" as="geometry">
            <Array as="points">
              <mxPoint x="575.84" y="908" />
            </Array>
          </mxGeometry>
        </mxCell>
        <mxCell id="VOfUWi2VCmEYPDbz4nwJ-106" style="edgeStyle=orthogonalEdgeStyle;rounded=0;orthogonalLoop=1;jettySize=auto;html=1;exitX=1;exitY=0.25;exitDx=0;exitDy=0;entryX=0;entryY=0.25;entryDx=0;entryDy=0;" parent="1" source="VOfUWi2VCmEYPDbz4nwJ-108" target="VOfUWi2VCmEYPDbz4nwJ-111" edge="1">
          <mxGeometry relative="1" as="geometry">
            <Array as="points">
              <mxPoint x="545.84" y="851" />
              <mxPoint x="545.84" y="851" />
            </Array>
          </mxGeometry>
        </mxCell>
        <mxCell id="VOfUWi2VCmEYPDbz4nwJ-108" value="InvPark" style="rounded=0;whiteSpace=wrap;html=1;" parent="1" vertex="1">
          <mxGeometry x="345.84" y="822" width="120" height="115" as="geometry" />
        </mxCell>
        <mxCell id="VOfUWi2VCmEYPDbz4nwJ-109" style="edgeStyle=orthogonalEdgeStyle;rounded=0;orthogonalLoop=1;jettySize=auto;html=1;exitX=1;exitY=0.75;exitDx=0;exitDy=0;entryX=0;entryY=0.75;entryDx=0;entryDy=0;" parent="1" source="VOfUWi2VCmEYPDbz4nwJ-111" edge="1">
          <mxGeometry relative="1" as="geometry">
            <mxPoint x="776.84" y="908.25" as="targetPoint" />
          </mxGeometry>
        </mxCell>
        <mxCell id="VOfUWi2VCmEYPDbz4nwJ-110" style="edgeStyle=orthogonalEdgeStyle;rounded=0;orthogonalLoop=1;jettySize=auto;html=1;exitX=1;exitY=0.25;exitDx=0;exitDy=0;entryX=0;entryY=0.25;entryDx=0;entryDy=0;" parent="1" edge="1">
          <mxGeometry relative="1" as="geometry">
            <mxPoint x="679.84" y="850.75" as="sourcePoint" />
            <mxPoint x="776.84" y="850.75" as="targetPoint" />
          </mxGeometry>
        </mxCell>
        <mxCell id="VOfUWi2VCmEYPDbz4nwJ-111" value="SVPWM" style="rounded=0;whiteSpace=wrap;html=1;" parent="1" vertex="1">
          <mxGeometry x="559.84" y="822" width="120" height="115" as="geometry" />
        </mxCell>
        <mxCell id="VOfUWi2VCmEYPDbz4nwJ-112" style="edgeStyle=orthogonalEdgeStyle;rounded=0;orthogonalLoop=1;jettySize=auto;html=1;exitX=0.25;exitY=0.875;exitDx=0;exitDy=0;entryX=0.967;entryY=0.25;entryDx=0;entryDy=0;exitPerimeter=0;entryPerimeter=0;" parent="1" target="VOfUWi2VCmEYPDbz4nwJ-120" edge="1">
          <mxGeometry relative="1" as="geometry">
            <mxPoint x="796.84" y="912" as="sourcePoint" />
            <mxPoint x="680.84" y="1070.75" as="targetPoint" />
            <Array as="points">
              <mxPoint x="796.84" y="1072" />
              <mxPoint x="681.84" y="1072" />
              <mxPoint x="681.84" y="1071" />
            </Array>
          </mxGeometry>
        </mxCell>
        <mxCell id="VOfUWi2VCmEYPDbz4nwJ-114" style="edgeStyle=orthogonalEdgeStyle;rounded=0;orthogonalLoop=1;jettySize=auto;html=1;exitX=0.595;exitY=0.98;exitDx=0;exitDy=0;entryX=1;entryY=0.75;entryDx=0;entryDy=0;exitPerimeter=0;" parent="1" source="VOfUWi2VCmEYPDbz4nwJ-124" target="VOfUWi2VCmEYPDbz4nwJ-120" edge="1">
          <mxGeometry relative="1" as="geometry">
            <mxPoint x="836.84" y="937" as="sourcePoint" />
            <Array as="points">
              <mxPoint x="836.84" y="927" />
              <mxPoint x="836.84" y="1128" />
            </Array>
          </mxGeometry>
        </mxCell>
        <mxCell id="VOfUWi2VCmEYPDbz4nwJ-116" style="edgeStyle=orthogonalEdgeStyle;rounded=0;orthogonalLoop=1;jettySize=auto;html=1;exitX=0;exitY=0.25;exitDx=0;exitDy=0;entryX=1;entryY=0.25;entryDx=0;entryDy=0;" parent="1" source="VOfUWi2VCmEYPDbz4nwJ-120" target="VOfUWi2VCmEYPDbz4nwJ-123" edge="1">
          <mxGeometry relative="1" as="geometry" />
        </mxCell>
        <mxCell id="VOfUWi2VCmEYPDbz4nwJ-118" style="edgeStyle=orthogonalEdgeStyle;rounded=0;orthogonalLoop=1;jettySize=auto;html=1;exitX=0;exitY=0.75;exitDx=0;exitDy=0;entryX=1;entryY=0.75;entryDx=0;entryDy=0;" parent="1" source="VOfUWi2VCmEYPDbz4nwJ-120" target="VOfUWi2VCmEYPDbz4nwJ-123" edge="1">
          <mxGeometry relative="1" as="geometry" />
        </mxCell>
        <mxCell id="VOfUWi2VCmEYPDbz4nwJ-120" value="Clarke" style="rounded=0;whiteSpace=wrap;html=1;" parent="1" vertex="1">
          <mxGeometry x="559.84" y="1042" width="120" height="115" as="geometry" />
        </mxCell>
        <mxCell id="VOfUWi2VCmEYPDbz4nwJ-121" style="edgeStyle=orthogonalEdgeStyle;rounded=0;orthogonalLoop=1;jettySize=auto;html=1;exitX=0;exitY=0.25;exitDx=0;exitDy=0;entryX=0.5;entryY=1;entryDx=0;entryDy=0;" parent="1" source="VOfUWi2VCmEYPDbz4nwJ-123" target="VOfUWi2VCmEYPDbz4nwJ-141" edge="1">
          <mxGeometry relative="1" as="geometry">
            <mxPoint x="215.84" y="872" as="targetPoint" />
          </mxGeometry>
        </mxCell>
        <mxCell id="VOfUWi2VCmEYPDbz4nwJ-122" style="edgeStyle=orthogonalEdgeStyle;rounded=0;orthogonalLoop=1;jettySize=auto;html=1;exitX=0;exitY=0.75;exitDx=0;exitDy=0;entryX=0.5;entryY=1;entryDx=0;entryDy=0;" parent="1" source="VOfUWi2VCmEYPDbz4nwJ-123" target="VOfUWi2VCmEYPDbz4nwJ-133" edge="1">
          <mxGeometry relative="1" as="geometry">
            <mxPoint x="160.84" y="937" as="targetPoint" />
          </mxGeometry>
        </mxCell>
        <mxCell id="VOfUWi2VCmEYPDbz4nwJ-123" value="Park" style="rounded=0;whiteSpace=wrap;html=1;" parent="1" vertex="1">
          <mxGeometry x="345.84" y="1042" width="120" height="115" as="geometry" />
        </mxCell>
        <mxCell id="VOfUWi2VCmEYPDbz4nwJ-184" style="edgeStyle=orthogonalEdgeStyle;rounded=0;orthogonalLoop=1;jettySize=auto;html=1;exitX=1;exitY=1;exitDx=0;exitDy=0;entryX=0.5;entryY=1;entryDx=0;entryDy=0;" parent="1" edge="1">
          <mxGeometry relative="1" as="geometry">
            <mxPoint x="861.1953390593275" y="906.3553390593274" as="sourcePoint" />
            <mxPoint x="-22.824999999999964" y="859.6700000000001" as="targetPoint" />
            <Array as="points">
              <mxPoint x="860.84" y="1274" />
              <mxPoint x="-23.16" y="1274" />
            </Array>
          </mxGeometry>
        </mxCell>
        <mxCell id="VOfUWi2VCmEYPDbz4nwJ-186" style="edgeStyle=orthogonalEdgeStyle;rounded=0;orthogonalLoop=1;jettySize=auto;html=1;exitX=1;exitY=0.5;exitDx=0;exitDy=0;entryX=0.5;entryY=1;entryDx=0;entryDy=0;" parent="1" edge="1">
          <mxGeometry relative="1" as="geometry">
            <mxPoint x="875.84" y="878" as="sourcePoint" />
            <mxPoint x="-202.49500000000003" y="866.6700000000001" as="targetPoint" />
            <Array as="points">
              <mxPoint x="895.84" y="878" />
              <mxPoint x="895.84" y="1372" />
              <mxPoint x="-202.16" y="1372" />
            </Array>
          </mxGeometry>
        </mxCell>
        <mxCell id="VOfUWi2VCmEYPDbz4nwJ-124" value="PMSM" style="ellipse;whiteSpace=wrap;html=1;aspect=fixed;" parent="1" vertex="1">
          <mxGeometry x="775.84" y="829" width="100" height="100" as="geometry" />
        </mxCell>
        <mxCell id="VOfUWi2VCmEYPDbz4nwJ-125" value="" style="endArrow=classic;html=1;rounded=0;entryX=0;entryY=0.5;entryDx=0;entryDy=0;" parent="1" edge="1">
          <mxGeometry width="50" height="50" relative="1" as="geometry">
            <mxPoint x="85.84" y="850" as="sourcePoint" />
            <mxPoint x="195.84" y="850" as="targetPoint" />
          </mxGeometry>
        </mxCell>
        <mxCell id="VOfUWi2VCmEYPDbz4nwJ-126" value="" style="endArrow=classic;html=1;rounded=0;entryX=0;entryY=0.5;entryDx=0;entryDy=0;" parent="1" edge="1">
          <mxGeometry width="50" height="50" relative="1" as="geometry">
            <mxPoint x="85.84" y="920" as="sourcePoint" />
            <mxPoint x="145.84" y="920" as="targetPoint" />
          </mxGeometry>
        </mxCell>
        <mxCell id="VOfUWi2VCmEYPDbz4nwJ-127" value="&lt;font style=&quot;font-size: 14px;&quot;&gt;Iq_ref&lt;/font&gt;" style="text;html=1;align=center;verticalAlign=middle;resizable=0;points=[];autosize=1;strokeColor=none;fillColor=none;" parent="1" vertex="1">
          <mxGeometry x="82.84" y="825" width="60" height="30" as="geometry" />
        </mxCell>
        <mxCell id="VOfUWi2VCmEYPDbz4nwJ-128" value="&lt;font style=&quot;font-size: 14px;&quot;&gt;Id_ref&lt;/font&gt;" style="text;html=1;align=center;verticalAlign=middle;resizable=0;points=[];autosize=1;strokeColor=none;fillColor=none;" parent="1" vertex="1">
          <mxGeometry x="80.84" y="892" width="60" height="30" as="geometry" />
        </mxCell>
        <mxCell id="VOfUWi2VCmEYPDbz4nwJ-129" style="edgeStyle=orthogonalEdgeStyle;rounded=0;orthogonalLoop=1;jettySize=auto;html=1;exitX=1;exitY=0.25;exitDx=0;exitDy=0;entryX=0;entryY=0.25;entryDx=0;entryDy=0;" parent="1" edge="1">
          <mxGeometry relative="1" as="geometry">
            <mxPoint x="679.84" y="882" as="sourcePoint" />
            <mxPoint x="776.84" y="881.75" as="targetPoint" />
          </mxGeometry>
        </mxCell>
        <mxCell id="VOfUWi2VCmEYPDbz4nwJ-137" value="" style="group" parent="1" vertex="1" connectable="0">
          <mxGeometry x="145.84" y="912" width="40" height="40" as="geometry" />
        </mxCell>
        <mxCell id="VOfUWi2VCmEYPDbz4nwJ-133" value="" style="ellipse;whiteSpace=wrap;html=1;aspect=fixed;" parent="VOfUWi2VCmEYPDbz4nwJ-137" vertex="1">
          <mxGeometry y="-10" width="36.67" height="36.67" as="geometry" />
        </mxCell>
        <mxCell id="VOfUWi2VCmEYPDbz4nwJ-134" value="" style="endArrow=none;html=1;rounded=0;entryX=1;entryY=0;entryDx=0;entryDy=0;exitX=0;exitY=1;exitDx=0;exitDy=0;" parent="VOfUWi2VCmEYPDbz4nwJ-137" source="VOfUWi2VCmEYPDbz4nwJ-133" target="VOfUWi2VCmEYPDbz4nwJ-133" edge="1">
          <mxGeometry width="50" height="50" relative="1" as="geometry">
            <mxPoint x="-5" y="45" as="sourcePoint" />
            <mxPoint x="20" y="20" as="targetPoint" />
          </mxGeometry>
        </mxCell>
        <mxCell id="VOfUWi2VCmEYPDbz4nwJ-136" value="" style="endArrow=none;html=1;rounded=0;exitX=1;exitY=1;exitDx=0;exitDy=0;entryX=0;entryY=0;entryDx=0;entryDy=0;" parent="VOfUWi2VCmEYPDbz4nwJ-137" source="VOfUWi2VCmEYPDbz4nwJ-133" target="VOfUWi2VCmEYPDbz4nwJ-133" edge="1">
          <mxGeometry width="50" height="50" relative="1" as="geometry">
            <mxPoint x="-5" y="45" as="sourcePoint" />
            <mxPoint x="5" y="10" as="targetPoint" />
          </mxGeometry>
        </mxCell>
        <mxCell id="VOfUWi2VCmEYPDbz4nwJ-140" value="" style="group" parent="1" vertex="1" connectable="0">
          <mxGeometry x="195.84" y="842" width="40" height="40" as="geometry" />
        </mxCell>
        <mxCell id="VOfUWi2VCmEYPDbz4nwJ-141" value="" style="ellipse;whiteSpace=wrap;html=1;aspect=fixed;" parent="VOfUWi2VCmEYPDbz4nwJ-140" vertex="1">
          <mxGeometry y="-10" width="36.67" height="36.67" as="geometry" />
        </mxCell>
        <mxCell id="VOfUWi2VCmEYPDbz4nwJ-142" value="" style="endArrow=none;html=1;rounded=0;entryX=1;entryY=0;entryDx=0;entryDy=0;exitX=0;exitY=1;exitDx=0;exitDy=0;" parent="VOfUWi2VCmEYPDbz4nwJ-140" source="VOfUWi2VCmEYPDbz4nwJ-141" target="VOfUWi2VCmEYPDbz4nwJ-141" edge="1">
          <mxGeometry width="50" height="50" relative="1" as="geometry">
            <mxPoint x="-5" y="45" as="sourcePoint" />
            <mxPoint x="20" y="20" as="targetPoint" />
          </mxGeometry>
        </mxCell>
        <mxCell id="VOfUWi2VCmEYPDbz4nwJ-143" value="" style="endArrow=none;html=1;rounded=0;exitX=1;exitY=1;exitDx=0;exitDy=0;entryX=0;entryY=0;entryDx=0;entryDy=0;" parent="VOfUWi2VCmEYPDbz4nwJ-140" source="VOfUWi2VCmEYPDbz4nwJ-141" target="VOfUWi2VCmEYPDbz4nwJ-141" edge="1">
          <mxGeometry width="50" height="50" relative="1" as="geometry">
            <mxPoint x="-5" y="45" as="sourcePoint" />
            <mxPoint x="5" y="10" as="targetPoint" />
          </mxGeometry>
        </mxCell>
        <mxCell id="VOfUWi2VCmEYPDbz4nwJ-145" value="PI" style="rounded=0;whiteSpace=wrap;html=1;" parent="1" vertex="1">
          <mxGeometry x="35.84" y="827" width="50" height="45" as="geometry" />
        </mxCell>
        <mxCell id="VOfUWi2VCmEYPDbz4nwJ-161" style="edgeStyle=orthogonalEdgeStyle;rounded=0;orthogonalLoop=1;jettySize=auto;html=1;exitX=1;exitY=0.5;exitDx=0;exitDy=0;entryX=0;entryY=0.5;entryDx=0;entryDy=0;" parent="1" source="VOfUWi2VCmEYPDbz4nwJ-153" target="VOfUWi2VCmEYPDbz4nwJ-145" edge="1">
          <mxGeometry relative="1" as="geometry" />
        </mxCell>
        <mxCell id="VOfUWi2VCmEYPDbz4nwJ-153" value="" style="ellipse;whiteSpace=wrap;html=1;aspect=fixed;" parent="1" vertex="1">
          <mxGeometry x="-41.16" y="831" width="36.67" height="36.67" as="geometry" />
        </mxCell>
        <mxCell id="VOfUWi2VCmEYPDbz4nwJ-154" value="" style="endArrow=none;html=1;rounded=0;entryX=1;entryY=0;entryDx=0;entryDy=0;exitX=0;exitY=1;exitDx=0;exitDy=0;" parent="1" source="VOfUWi2VCmEYPDbz4nwJ-153" target="VOfUWi2VCmEYPDbz4nwJ-153" edge="1">
          <mxGeometry width="50" height="50" relative="1" as="geometry">
            <mxPoint x="170.84" y="987" as="sourcePoint" />
            <mxPoint x="195.84" y="962" as="targetPoint" />
          </mxGeometry>
        </mxCell>
        <mxCell id="VOfUWi2VCmEYPDbz4nwJ-155" value="" style="endArrow=none;html=1;rounded=0;exitX=1;exitY=1;exitDx=0;exitDy=0;entryX=0;entryY=0;entryDx=0;entryDy=0;" parent="1" source="VOfUWi2VCmEYPDbz4nwJ-153" target="VOfUWi2VCmEYPDbz4nwJ-153" edge="1">
          <mxGeometry width="50" height="50" relative="1" as="geometry">
            <mxPoint x="170.84" y="987" as="sourcePoint" />
            <mxPoint x="180.84" y="952" as="targetPoint" />
          </mxGeometry>
        </mxCell>
        <mxCell id="VOfUWi2VCmEYPDbz4nwJ-167" style="edgeStyle=orthogonalEdgeStyle;rounded=0;orthogonalLoop=1;jettySize=auto;html=1;exitX=1;exitY=0.5;exitDx=0;exitDy=0;entryX=0;entryY=0.5;entryDx=0;entryDy=0;" parent="1" source="VOfUWi2VCmEYPDbz4nwJ-156" target="VOfUWi2VCmEYPDbz4nwJ-163" edge="1">
          <mxGeometry relative="1" as="geometry" />
        </mxCell>
        <mxCell id="VOfUWi2VCmEYPDbz4nwJ-156" value="" style="ellipse;whiteSpace=wrap;html=1;aspect=fixed;" parent="1" vertex="1">
          <mxGeometry x="-221.83" y="831" width="36.67" height="36.67" as="geometry" />
        </mxCell>
        <mxCell id="VOfUWi2VCmEYPDbz4nwJ-157" value="" style="endArrow=none;html=1;rounded=0;entryX=1;entryY=0;entryDx=0;entryDy=0;exitX=0;exitY=1;exitDx=0;exitDy=0;" parent="1" source="VOfUWi2VCmEYPDbz4nwJ-156" target="VOfUWi2VCmEYPDbz4nwJ-156" edge="1">
          <mxGeometry width="50" height="50" relative="1" as="geometry">
            <mxPoint x="-210.16" y="1146" as="sourcePoint" />
            <mxPoint x="-185.16" y="1121" as="targetPoint" />
          </mxGeometry>
        </mxCell>
        <mxCell id="VOfUWi2VCmEYPDbz4nwJ-158" value="" style="endArrow=none;html=1;rounded=0;exitX=1;exitY=1;exitDx=0;exitDy=0;entryX=0;entryY=0;entryDx=0;entryDy=0;" parent="1" source="VOfUWi2VCmEYPDbz4nwJ-156" target="VOfUWi2VCmEYPDbz4nwJ-156" edge="1">
          <mxGeometry width="50" height="50" relative="1" as="geometry">
            <mxPoint x="-210.16" y="1146" as="sourcePoint" />
            <mxPoint x="-200.16" y="1111" as="targetPoint" />
          </mxGeometry>
        </mxCell>
        <mxCell id="VOfUWi2VCmEYPDbz4nwJ-168" style="edgeStyle=orthogonalEdgeStyle;rounded=0;orthogonalLoop=1;jettySize=auto;html=1;exitX=1;exitY=0.5;exitDx=0;exitDy=0;entryX=0;entryY=0.5;entryDx=0;entryDy=0;" parent="1" source="VOfUWi2VCmEYPDbz4nwJ-163" target="VOfUWi2VCmEYPDbz4nwJ-153" edge="1">
          <mxGeometry relative="1" as="geometry" />
        </mxCell>
        <mxCell id="VOfUWi2VCmEYPDbz4nwJ-163" value="P" style="rounded=0;whiteSpace=wrap;html=1;" parent="1" vertex="1">
          <mxGeometry x="-161.16" y="827" width="50" height="45" as="geometry" />
        </mxCell>
        <mxCell id="VOfUWi2VCmEYPDbz4nwJ-170" value="" style="endArrow=classic;html=1;rounded=0;" parent="1" edge="1">
          <mxGeometry width="50" height="50" relative="1" as="geometry">
            <mxPoint x="-265.16" y="852" as="sourcePoint" />
            <mxPoint x="-221.83" y="852" as="targetPoint" />
          </mxGeometry>
        </mxCell>
        <mxCell id="VOfUWi2VCmEYPDbz4nwJ-173" value="&lt;font style=&quot;font-size: 14px;&quot;&gt;pos_ref&lt;/font&gt;" style="text;html=1;align=center;verticalAlign=middle;resizable=0;points=[];autosize=1;strokeColor=none;fillColor=none;" parent="1" vertex="1">
          <mxGeometry x="-280.16" y="820" width="70" height="30" as="geometry" />
        </mxCell>
        <mxCell id="VOfUWi2VCmEYPDbz4nwJ-175" value="&lt;font style=&quot;font-size: 14px;&quot;&gt;Vq&lt;/font&gt;" style="text;html=1;align=center;verticalAlign=middle;resizable=0;points=[];autosize=1;strokeColor=none;fillColor=none;" parent="1" vertex="1">
          <mxGeometry x="485.84" y="820" width="40" height="30" as="geometry" />
        </mxCell>
        <mxCell id="VOfUWi2VCmEYPDbz4nwJ-176" value="&lt;font style=&quot;font-size: 14px;&quot;&gt;Vd&lt;/font&gt;" style="text;html=1;align=center;verticalAlign=middle;resizable=0;points=[];autosize=1;strokeColor=none;fillColor=none;" parent="1" vertex="1">
          <mxGeometry x="485.84" y="872" width="40" height="30" as="geometry" />
        </mxCell>
        <mxCell id="VOfUWi2VCmEYPDbz4nwJ-178" value="&lt;font style=&quot;font-size: 14px;&quot;&gt;Ia&lt;/font&gt;" style="text;html=1;align=center;verticalAlign=middle;resizable=0;points=[];autosize=1;strokeColor=none;fillColor=none;" parent="1" vertex="1">
          <mxGeometry x="725.84" y="1050" width="40" height="30" as="geometry" />
        </mxCell>
        <mxCell id="VOfUWi2VCmEYPDbz4nwJ-179" value="&lt;font style=&quot;font-size: 14px;&quot;&gt;Ib&lt;/font&gt;" style="text;html=1;align=center;verticalAlign=middle;resizable=0;points=[];autosize=1;strokeColor=none;fillColor=none;" parent="1" vertex="1">
          <mxGeometry x="725.84" y="1100" width="40" height="30" as="geometry" />
        </mxCell>
        <mxCell id="VOfUWi2VCmEYPDbz4nwJ-180" value="&lt;font style=&quot;font-size: 14px;&quot;&gt;Ialpha&lt;/font&gt;" style="text;html=1;align=center;verticalAlign=middle;resizable=0;points=[];autosize=1;strokeColor=none;fillColor=none;" parent="1" vertex="1">
          <mxGeometry x="475.84" y="1050" width="60" height="30" as="geometry" />
        </mxCell>
        <mxCell id="VOfUWi2VCmEYPDbz4nwJ-182" value="&lt;font style=&quot;font-size: 14px;&quot;&gt;Ibeta&lt;/font&gt;" style="text;html=1;align=center;verticalAlign=middle;resizable=0;points=[];autosize=1;strokeColor=none;fillColor=none;" parent="1" vertex="1">
          <mxGeometry x="480.84" y="1090" width="50" height="30" as="geometry" />
        </mxCell>
        <mxCell id="VOfUWi2VCmEYPDbz4nwJ-185" value="&lt;font style=&quot;font-size: 14px;&quot;&gt;Speed&lt;/font&gt;" style="text;html=1;align=center;verticalAlign=middle;resizable=0;points=[];autosize=1;strokeColor=none;fillColor=none;" parent="1" vertex="1">
          <mxGeometry x="365.84" y="1247" width="60" height="30" as="geometry" />
        </mxCell>
        <mxCell id="VOfUWi2VCmEYPDbz4nwJ-187" value="&lt;font style=&quot;font-size: 14px;&quot;&gt;Position&lt;/font&gt;" style="text;html=1;align=center;verticalAlign=middle;resizable=0;points=[];autosize=1;strokeColor=none;fillColor=none;" parent="1" vertex="1">
          <mxGeometry x="360.84" y="1344" width="70" height="30" as="geometry" />
        </mxCell>
        <mxCell id="VOfUWi2VCmEYPDbz4nwJ-191" value="&lt;font style=&quot;font-size: 14px;&quot;&gt;speed_ref&lt;/font&gt;" style="text;html=1;align=center;verticalAlign=middle;resizable=0;points=[];autosize=1;strokeColor=none;fillColor=none;" parent="1" vertex="1">
          <mxGeometry x="-121.16000000000003" y="825" width="90" height="30" as="geometry" />
        </mxCell>
        <mxCell id="Xv5bU_DOvuEWe7JIYbWH-1" value="计算并保存目标位置与起点位置的距离" style="rounded=0;whiteSpace=wrap;html=1;" parent="1" vertex="1">
          <mxGeometry x="-60" y="1590" width="120" height="60" as="geometry" />
        </mxCell>
        <mxCell id="Xv5bU_DOvuEWe7JIYbWH-2" value="&lt;font style=&quot;font-size: 14px;&quot;&gt;开始&lt;/font&gt;" style="rounded=1;whiteSpace=wrap;html=1;" parent="1" vertex="1">
          <mxGeometry x="-60" y="1500" width="120" height="60" as="geometry" />
        </mxCell>
        <mxCell id="Xv5bU_DOvuEWe7JIYbWH-10" style="edgeStyle=orthogonalEdgeStyle;rounded=0;orthogonalLoop=1;jettySize=auto;html=1;" parent="1" source="Xv5bU_DOvuEWe7JIYbWH-3" edge="1">
          <mxGeometry relative="1" as="geometry">
            <mxPoint x="150" y="1940" as="targetPoint" />
          </mxGeometry>
        </mxCell>
        <mxCell id="Xv5bU_DOvuEWe7JIYbWH-11" style="edgeStyle=orthogonalEdgeStyle;rounded=0;orthogonalLoop=1;jettySize=auto;html=1;exitX=0.5;exitY=1;exitDx=0;exitDy=0;" parent="1" source="Xv5bU_DOvuEWe7JIYbWH-3" target="Xv5bU_DOvuEWe7JIYbWH-7" edge="1">
          <mxGeometry relative="1" as="geometry" />
        </mxCell>
        <mxCell id="Xv5bU_DOvuEWe7JIYbWH-3" value="当前位置与目标的差值是否大于起点与目标位置的差值11/12" style="rhombus;whiteSpace=wrap;html=1;" parent="1" vertex="1">
          <mxGeometry x="-88" y="1900" width="180" height="80" as="geometry" />
        </mxCell>
        <mxCell id="Xv5bU_DOvuEWe7JIYbWH-4" value="获取当前电机的位置和速度" style="rounded=0;whiteSpace=wrap;html=1;" parent="1" vertex="1">
          <mxGeometry x="-60" y="1690" width="120" height="60" as="geometry" />
        </mxCell>
        <mxCell id="Xv5bU_DOvuEWe7JIYbWH-6" value="当前计算与目标位置的差值" style="rounded=0;whiteSpace=wrap;html=1;" parent="1" vertex="1">
          <mxGeometry x="530.8399999999999" y="1590" width="120" height="60" as="geometry" />
        </mxCell>
        <mxCell id="Xv5bU_DOvuEWe7JIYbWH-7" value="进入加速度增加阶段，根据要求的时间，计算得出一个逐渐上升的电流&amp;nbsp;" style="rounded=0;whiteSpace=wrap;html=1;" parent="1" vertex="1">
          <mxGeometry x="-57.99999999999994" y="2020" width="120" height="60" as="geometry" />
        </mxCell>
        <mxCell id="Xv5bU_DOvuEWe7JIYbWH-9" style="edgeStyle=orthogonalEdgeStyle;rounded=0;orthogonalLoop=1;jettySize=auto;html=1;exitX=0.5;exitY=1;exitDx=0;exitDy=0;entryX=0.5;entryY=0;entryDx=0;entryDy=0;" parent="1" source="Xv5bU_DOvuEWe7JIYbWH-8" target="Xv5bU_DOvuEWe7JIYbWH-3" edge="1">
          <mxGeometry relative="1" as="geometry" />
        </mxCell>
        <mxCell id="Xv5bU_DOvuEWe7JIYbWH-8" value="当前位置与目标的差值是否大于允许值" style="rhombus;whiteSpace=wrap;html=1;" parent="1" vertex="1">
          <mxGeometry x="-88" y="1780" width="180" height="80" as="geometry" />
        </mxCell>
        <mxCell id="Xv5bU_DOvuEWe7JIYbWH-14" style="edgeStyle=orthogonalEdgeStyle;rounded=0;orthogonalLoop=1;jettySize=auto;html=1;exitX=0.5;exitY=1;exitDx=0;exitDy=0;" parent="1" source="Xv5bU_DOvuEWe7JIYbWH-13" edge="1">
          <mxGeometry relative="1" as="geometry">
            <mxPoint x="240" y="2020" as="targetPoint" />
          </mxGeometry>
        </mxCell>
        <mxCell id="Xv5bU_DOvuEWe7JIYbWH-13" value="当前位置与目标的差值是否大于起点与目标位置的差值1/2" style="rhombus;whiteSpace=wrap;html=1;" parent="1" vertex="1">
          <mxGeometry x="150" y="1900" width="180" height="80" as="geometry" />
        </mxCell>
        <mxCell id="Xv5bU_DOvuEWe7JIYbWH-15" value="进入加速度减少阶段，根据位置计算得出电流" style="rounded=0;whiteSpace=wrap;html=1;" parent="1" vertex="1">
          <mxGeometry x="180.00000000000006" y="2020" width="120" height="60" as="geometry" />
        </mxCell>
        <mxCell id="e1epJfQa-vb6_qL801_Z-9" style="edgeStyle=orthogonalEdgeStyle;rounded=0;orthogonalLoop=1;jettySize=auto;html=1;exitX=0.5;exitY=1;exitDx=0;exitDy=0;exitPerimeter=0;entryX=0.5;entryY=0;entryDx=0;entryDy=0;fontSize=14;" parent="1" source="e1epJfQa-vb6_qL801_Z-1" target="e1epJfQa-vb6_qL801_Z-2" edge="1">
          <mxGeometry relative="1" as="geometry" />
        </mxCell>
        <mxCell id="e1epJfQa-vb6_qL801_Z-1" value="开始" style="strokeWidth=2;html=1;shape=mxgraph.flowchart.terminator;whiteSpace=wrap;fontSize=14;" parent="1" vertex="1">
          <mxGeometry x="-610" y="2110" width="100" height="60" as="geometry" />
        </mxCell>
        <mxCell id="e1epJfQa-vb6_qL801_Z-10" style="edgeStyle=orthogonalEdgeStyle;rounded=0;orthogonalLoop=1;jettySize=auto;html=1;exitX=0.5;exitY=1;exitDx=0;exitDy=0;entryX=0.5;entryY=0;entryDx=0;entryDy=0;fontSize=14;" parent="1" source="e1epJfQa-vb6_qL801_Z-2" target="e1epJfQa-vb6_qL801_Z-3" edge="1">
          <mxGeometry relative="1" as="geometry" />
        </mxCell>
        <mxCell id="e1epJfQa-vb6_qL801_Z-2" value="以额定电流一定移动一定距离" style="rounded=1;whiteSpace=wrap;html=1;absoluteArcSize=1;arcSize=14;strokeWidth=2;fontSize=14;" parent="1" vertex="1">
          <mxGeometry x="-635" y="2200" width="150" height="60" as="geometry" />
        </mxCell>
        <mxCell id="e1epJfQa-vb6_qL801_Z-11" value="" style="edgeStyle=orthogonalEdgeStyle;rounded=0;orthogonalLoop=1;jettySize=auto;html=1;fontSize=14;" parent="1" source="e1epJfQa-vb6_qL801_Z-3" target="e1epJfQa-vb6_qL801_Z-4" edge="1">
          <mxGeometry relative="1" as="geometry" />
        </mxCell>
        <mxCell id="e1epJfQa-vb6_qL801_Z-3" value="采集数据，通过数据分析出转动惯量" style="rounded=1;whiteSpace=wrap;html=1;absoluteArcSize=1;arcSize=14;strokeWidth=2;fontSize=14;" parent="1" vertex="1">
          <mxGeometry x="-635" y="2300" width="150" height="60" as="geometry" />
        </mxCell>
        <mxCell id="e1epJfQa-vb6_qL801_Z-12" value="" style="edgeStyle=orthogonalEdgeStyle;rounded=0;orthogonalLoop=1;jettySize=auto;html=1;fontSize=14;" parent="1" source="e1epJfQa-vb6_qL801_Z-4" target="e1epJfQa-vb6_qL801_Z-5" edge="1">
          <mxGeometry relative="1" as="geometry" />
        </mxCell>
        <mxCell id="e1epJfQa-vb6_qL801_Z-4" value="根据过往经验确定转动惯量和PID参数关系" style="rounded=1;whiteSpace=wrap;html=1;absoluteArcSize=1;arcSize=14;strokeWidth=2;fontSize=14;" parent="1" vertex="1">
          <mxGeometry x="-635" y="2390" width="150" height="60" as="geometry" />
        </mxCell>
        <mxCell id="e1epJfQa-vb6_qL801_Z-13" value="" style="edgeStyle=orthogonalEdgeStyle;rounded=0;orthogonalLoop=1;jettySize=auto;html=1;fontSize=14;" parent="1" source="e1epJfQa-vb6_qL801_Z-5" target="e1epJfQa-vb6_qL801_Z-6" edge="1">
          <mxGeometry relative="1" as="geometry" />
        </mxCell>
        <mxCell id="e1epJfQa-vb6_qL801_Z-5" value="启动位置环移动一定距离" style="rounded=1;whiteSpace=wrap;html=1;absoluteArcSize=1;arcSize=14;strokeWidth=2;fontSize=14;" parent="1" vertex="1">
          <mxGeometry x="-635" y="2490" width="150" height="60" as="geometry" />
        </mxCell>
        <mxCell id="e1epJfQa-vb6_qL801_Z-14" value="" style="edgeStyle=orthogonalEdgeStyle;rounded=0;orthogonalLoop=1;jettySize=auto;html=1;fontSize=14;" parent="1" source="e1epJfQa-vb6_qL801_Z-6" target="e1epJfQa-vb6_qL801_Z-7" edge="1">
          <mxGeometry relative="1" as="geometry" />
        </mxCell>
        <mxCell id="e1epJfQa-vb6_qL801_Z-19" value="是" style="edgeLabel;html=1;align=center;verticalAlign=middle;resizable=0;points=[];fontSize=14;" parent="e1epJfQa-vb6_qL801_Z-14" vertex="1" connectable="0">
          <mxGeometry x="-0.8" y="2" relative="1" as="geometry">
            <mxPoint as="offset" />
          </mxGeometry>
        </mxCell>
        <mxCell id="e1epJfQa-vb6_qL801_Z-6" value="振动频率是否超出合适范围内" style="strokeWidth=2;html=1;shape=mxgraph.flowchart.decision;whiteSpace=wrap;fontSize=14;" parent="1" vertex="1">
          <mxGeometry x="-650" y="2580" width="180" height="100" as="geometry" />
        </mxCell>
        <mxCell id="e1epJfQa-vb6_qL801_Z-16" style="edgeStyle=orthogonalEdgeStyle;rounded=0;orthogonalLoop=1;jettySize=auto;html=1;exitX=0;exitY=0.5;exitDx=0;exitDy=0;entryX=0;entryY=0.5;entryDx=0;entryDy=0;fontSize=14;" parent="1" source="e1epJfQa-vb6_qL801_Z-7" target="e1epJfQa-vb6_qL801_Z-5" edge="1">
          <mxGeometry relative="1" as="geometry">
            <Array as="points">
              <mxPoint x="-700" y="2740" />
              <mxPoint x="-700" y="2520" />
            </Array>
          </mxGeometry>
        </mxCell>
        <mxCell id="e1epJfQa-vb6_qL801_Z-7" value="根据振动频率调整PID参数" style="rounded=1;whiteSpace=wrap;html=1;absoluteArcSize=1;arcSize=14;strokeWidth=2;fontSize=14;" parent="1" vertex="1">
          <mxGeometry x="-635" y="2710" width="150" height="60" as="geometry" />
        </mxCell>
        <mxCell id="e1epJfQa-vb6_qL801_Z-8" value="结束" style="strokeWidth=2;html=1;shape=mxgraph.flowchart.terminator;whiteSpace=wrap;fontSize=14;" parent="1" vertex="1">
          <mxGeometry x="-610" y="2840" width="100" height="60" as="geometry" />
        </mxCell>
        <mxCell id="e1epJfQa-vb6_qL801_Z-17" style="edgeStyle=orthogonalEdgeStyle;rounded=0;orthogonalLoop=1;jettySize=auto;html=1;exitX=1;exitY=0.5;exitDx=0;exitDy=0;exitPerimeter=0;entryX=0.44;entryY=-0.042;entryDx=0;entryDy=0;entryPerimeter=0;fontSize=14;" parent="1" source="e1epJfQa-vb6_qL801_Z-6" target="e1epJfQa-vb6_qL801_Z-8" edge="1">
          <mxGeometry relative="1" as="geometry">
            <Array as="points">
              <mxPoint x="-460" y="2630" />
              <mxPoint x="-460" y="2790" />
              <mxPoint x="-566" y="2790" />
            </Array>
          </mxGeometry>
        </mxCell>
        <mxCell id="e1epJfQa-vb6_qL801_Z-20" value="否" style="edgeLabel;html=1;align=center;verticalAlign=middle;resizable=0;points=[];fontSize=14;" parent="e1epJfQa-vb6_qL801_Z-17" vertex="1" connectable="0">
          <mxGeometry x="-0.5239" y="-1" relative="1" as="geometry">
            <mxPoint as="offset" />
          </mxGeometry>
        </mxCell>
        <mxCell id="6SGFKfMbFIq6XqhRmyl_-1" value="" style="shape=image;verticalLabelPosition=bottom;labelBackgroundColor=default;verticalAlign=top;aspect=fixed;imageAspect=0;image=data:image/png,iVBORw0KGgoAAAANSUhEUgAAAwQAAAQoCAYAAAC0MhkhAAAAAXNSR0IArs4c6QAAAARnQU1BAACxjwv8YQUAAAAJcEhZcwAAFxEAABcRAcom8z8AAP+lSURBVHhe7N0FmFxF9rDxDw0SCO4s7u4a3N1ZnMWDLu4ui7vDsri7y+LBZXELsrgGAgRIQpL6zlu5xXbmPxkSSEa639/znCfTk57u27e7655TVbfu/5MkSZIkSZIkSZIkSZIkSZIkSZIkSZIkSZIkSZIkSZIkSZIkSZLa2MgRf4mYL2KZNoylI9gGtoVtkiRJkjSckWjPEbFFxJURt0R0j/gkol9EauNgG9gWtoltuyJiqwi2eZQISZIkSX/AVBEHRDwYkZPvccYZJ00xxRRpttlmS2uvvXbacccd04EHHpgOOuig/G9rRnlOtoFtYZvYNraxbG/EQxEHRvBaJEmSJA2FOSPOifg2Ik0wwQRp1113TWeccUZ6/fXX008//ZT69u2b2hu2iW1788030+mnn5522WWXNOGEE5bCoFfEuREzRUiSJElqRpeI4yN+iEjLLbdcuuCCC9KXX35ZpdwdzxdffJEuvPDCtMQSS9QWBodHjB0hSZIkqcIJui9EpLnnnjvddNNNacCAAVVa3fExenDjjTemRRddtBQGz0csFiFJkiQ1vL9H/DTWWGOlo48+On3//fdVGl1/KAyOO+64NO6441IU9I7YlR0gSZIkNapjI9L888+fnnzyySptrn/PPvtsmnnmmctowensCEmSJKnRkAin1VdfvUOfJ/BHffrpp2nZZZctRcFFEaNGSJIkSQ3h5Ii0/vrrpz59+lQpcuPp1atXWnPNNUtRcCQ7RpIkSap3O0XkRLhfv35Vaty4vvvuu7TMMsuUomBHdpAkSZJUrxaI+HGWWWZJn332WZUSq2fPnnl1pdg3fat9JEmSJNWdsSKe79y5c3r++eerVFgFJ1WPNtpoFAX/ifA6BZIkSao7B0TkZTfVvFNPPbVMHTqQHSZJkiTVixkivl1wwQXTr7/+WqW/aqp3795pvvnmoyDgisbTsuMkSZKkenD8KKOMkm6//fYq9dWQ3HXXXWWU4Ky85yRJkqQObvKIrxdddNE0cODAKu3VkLCPqlWHvoiYmh0oSZIkdWR7RKSbb765Snn1e6655prEiErst53zHpQkSZI6qDEjHpphhhnS119/XaW7+j1crG2KKaagIHg270VJkiSpg/pLxMBu3bpVqa6G1t57701B8GOE1yWQJElSh7XrSCON5MnEf8ANN9xAQUBsk/ekJEmS1AFd36lTp/T5559Xae6Ix0m5/fr1y9G/f/+8zGnfvn1zcHvAgAG//X/BtRHuu+++6tYgZ555ZnrkkUeqW63v/fffT9NMMw0FwXmDdqUkSZLU8dyyyCKLpF9++aVKc0e8L7/8Mq2++up5Pf8555wzzTPPPInrHxBzzTVXmn322dP888+fVl555VwkYO21106PPvpo/hlvvfVWmnXWWdO7776bPvvsszZbHWnZZZelIHgnolPem5IkSVIHwvkDH+6yyy5Vets6SPJffvnl9Mwzz6RNNtkknXTSSen555/Psdtuu6V55503Pfvss+mll15Kn376abrpppvSCiuskK666qo8IsAIAvc7+eST8+Ptueee6brrrss/tza2K/bhlxFjsUMlSZKkjmS5iHTMMcdU6W3rO+yww9K///3v6lZK5513Xh49KN5444205pprpkknnTRtu+22adppp03nn39+WmqppfKUHeLEE09Ms80222+jCa1p1113pSD4NoLiSpIkSepQlo1Ixx57bJXetr5DDjlksHMDzj777LTqqqtWtwa5++6780gCS32uv/76aeGFF86jCOuss07iYmozzjhjGmOMMdLpp59e/UXroTiJfdgnYjF2qCRJktSR5IKgtUcInnzyybTTTjvlqT6cK7DaaqulPfbYI+21115piSWWSFNPPXX+P5ZCZerQxRdfnP71r3+lH374If+O8we+/fbb1Lt373zuA1OImG7EfVrbXXfdRUEwMGJNdqgkSZLUkbRJQfDRRx/lZU7vvffetOGGG6Yjjzwy3XPPPXmkYPvtt89FAv93xx135Psyheihhx7KV1Jmig4XUGNk4eCDD85x0EEHpTPOOKN69Nb12GOPURAQG7FDJUmSpI6kTQqCWjvuuGMeBSjOPffcPGJQ67LLLsu/W2mllVL37t3zycWMMDz++OP5JGOKi2WWWSb17Nmz+ovWc80111AM/BqxAjtUkiRJ6kiWj8hr/LcFEvipppoqTwEqOA+A5UabomhhW99555109dVX5yKh1pZbbpmXM21t7LvYrt4R80RIkiRJHcqiEQOYdtMWNt1007TZZpsNtjpQcwXBhx9+mE805hwDlvk86qij8onQb7/9do7nnnsun2D8zTffVH/RepjyFPvwq4jx2aGSJElSR8La+d032mijKr1tHZwXQILPakFNe/X/8Y9/5JWDCq6gvOSSS+bfg2VIKRoYWVhjjTXyVKKuXbum6aefPp903NqqC5N9ETEmO1SSJEnqaG5gVZ9evXpVKe6I9+abb6Yjjjgi/fzzz9Vv/ueJJ54YbLUgkvxbb721ujUIKwo9+OCDeZUhgpOML7/88vxza+LqyFzlOfbhoxGj5L0pSZIkdTAXjDzyyIPN49fQefjhh9Noo41GQXDAoF0pSZIkdTxdI9JJJ51UpbkaWpdccgnFALEBO1KSJEnqiCaM+Iq5+P369atSXQ2N5ZZbjmLg42ofSpIkSR3W+aOPPnqe26+h06NHj9S5c2cKgssH7UJJkiSp41olYuChhx5apbv6PXvvvXeZLrQ0O1CSJEnqyEaOeGKSSSZJn376aZXyakhY1WjSSSelGOgeMTo7UJIkSeroNozIF/9Syw4//PAyOrAZO06SJEmqB/R0PzL22GOnV199tUp91RTnWYwzzjgUA49FMLIiSZIk1Y3FIvpy5d/+/ftXKbCKvn375isjxz7qH7E4O0ySJEmqNydEpMMOO6xKg1VwdWX2TcSx7ChJkiSpHo0V8VBEuuyyy6pUWNdee23q1KkTxcDzEaNFSJIkSXVr2ogPxhtvvPTvf/+7Sokb16233lqKgbcjZmEHSZIkSfVuqYheE0wwQbr33nur1LjxXH/99aUY+DpiTnaMJEmS1CiWifhmrLHGSueff36VIjeOs846K4022mgUAx9FeBKxJEmSGtKCEe9FpM022yz17NmzSpfr17fffpt22203CgHi5Yh5IiRJkqSGNXXEjRFpttlmS1dddVUaMGBAlT7Xl1tuuSXNPvvspRi4OWKyCEmSJElh14jPItIKK6yQ7rjjjrw2f0fXr1+/dNttt6VVV121FAJfROwSIUmSJKmJaSIujegbkeaaa6509tlnp5deeqlKrzsOtvnMM89M88wzTykEekdcHOFKQpIkSdLvYF79ORHvR6Rxxx03zTHHHGnnnXdOV199dR49ePDBB9Pjjz+ennrqqTYNtoFtYZuuueaafH4A28o2s+3Va7gwYrYISZIkScNg8ogNI26K4KJdAyJKop1GGmmkvFJPWwbbULtNEf0j2FbOi9gogtcgSZIkaTjg+gUUCNtFHBpxagTTcP5InBfxbMTTERdUvxvWuCiCbTgsYtsItm3JCEmSJEkdwF4Ruw/6UZIkSVKj2TeCokCSJElSA9ovYu9BP0qSJElqNBYEkiRJUgOzIJAkSZIamAWBJEmS1MAsCCRJkqQGZkEgSZIkNTALAkmSJKmBWRBIkiRJDcyCQJIkSWpgFgSSJElSA7MgkCRJkhqYBYEkSZLUwCwIJEmSpAZmQSBJkiQ1MAsCSZIkqYFZEEiSJEkNzIJAkiRJamAWBJIkSVIDsyCQJEmSGpgFgSRJktTALAgkSZKkBmZBIEmSJDUwCwJJkiSpgVkQSJIkSQ3MgkCSJElqYBYEkiRJUgOzIJAkSZIamAWBJEmS1MAsCCRJkqQGZkEgSZIkNTALAkmSJKmBjBKxcMRU+db/+397Ruwx6Mf/N1kE/ydJkiSpjq0a8V7E9hFHRRwSsV3ExxEbREiSJEmqc90jUkS/iJ+qn/ndyBGSJEmS6tzqERQBJQZErBQhSZIkqQEwEvBIRCkIno2QJEmS1EA2jigFwUb8QpIkSVJjeSXimUE/SpIkSY1llghW2Dm/QeO8CIoBVhw6p/pdIwafgZkiJEmS1CC6RJAM59V1xhprrDT22GMbDRi893wGIn6OOC1irAhJkiTVsXEj7otIyy67bLriiivSRx99lD7//HOjAYP3/sorr0wrr7xyKQxuihg9QpIkSXXqhIh0wAEHpP79+yep2H333UtRcAwfFEmSJNWfGSO+ZWRg4MCBVRoo/U/Xrl0pCHpHTM0HRpIkSfVlp4h00003VemfNLhbb701jTrqqBQFW+dPjCRJkurKzuOOO2565ZVXqvRPGlzPnj3TOOOMQ0FwxaCPjCRJkupJtymnnDJ98MEHVfonDe6rr74qBcEdgz4ykiRJqifdpphiivTee+9V6Z80uC+//LIUBLcN+shIkiSpnlgQqEUWBJIkSfXNgkAtsiCQJEmqbxYEapEFgSRJUn2zIFCLLAgkSZLqmwWBWmRBIEmSVN8sCNQiCwJJkqT6ZkGgFlkQSJIk1TcLArXIgkCSJKm+WRCoRRYEkiRJ9c2CQC2yIJAkSapvFgRqkQWBJElSfbMgUIssCCRJkuqbBYFaZEEgSZJU3ywI1CILAkmSpPpmQaAWWRBIkiTVNwsCtciCQJIkqb5ZEKhFFgSSJEn1zYJALbIgkCRJqm8WBGqRBYEkSVJ9syBQiywIJEmS6lsuCD744IMq/ZMGZ0EgSZJU33JB8N///rdK/wb3448/pm+//ba6NbiXX365+mmQ/v37p7feequ6Nbh+/fql77//vrr1Pz179ky//PJLdet/evfuXf00dL766qv0+eefV7eGD143r39o9erVa7Dt/uGHH6qf/pxff/01F2z8OzTYp8O6//Cf//wnfffdd9Wt/2HfWhBIkiTVr24zzjhj2m233dK//vWvKgX8n0suuSTtvffe1a3/eeqpp9K0006brrnmmnTTTTelxx9/PF100UVpnnnmSffdd1/+3d133/1bsv/TTz+lNdZYIz300EP5Nt5999207LLLpg8//LD6zSCvvfZa+vvf/57eeOONdNppp6WTTz55sLj22mtz8UGR0bdv3/zvCSeckHbdddd8u7kYOHBgTpTPPvvsdNJJJzUbl19+ebUFg+yxxx7p4osvzj/zOk899dTB4txzzx0sgd5uu+3SLbfcUt1Kaffdd09HH310det/7r333t+e85RTTsn/8rrKzwT7oHjzzTfT0ksvXd36fewHthcfffTRYNt83nnnpU8++ST/Xy32z5JLLpnuv//+6jf/4wiBJElSfes2wwwzpKuuuirNOuus6brrrqvSwEHOOuustO2221a3Bvnss8/SKqusklZfffW0+OKLpwMOOCDfp2vXrumvf/1rmn/++dPOO++cDjzwwPTFF1/khPaVV15J++yzT1pppZXSq6++ml566aX8GFtvvXV6/fXX88gCST6OOuqodOKJJ+aklseliChBEr7AAgvkQmP//fdP6623Xtp4443TxBNPnBZZZJG04YYbpvXXX/+34P832WSTXJDwnNzv+uuvz8XKnXfemYMEnUKhPG7Btp1++un55+OPPz797W9/S9tvv30OtouihWQZ77zzTpp99tnzqAnPw2v85z//mWabbbb06KOP5t9T4JB4r7zyyunQQw9NDzzwQJplllnSHXfckQsP9h+vkf3J6y8ovsYff/xcsLFPmosXX3wxPy/7h6KM1879H3nkkbTNNtv8tt2dO3fOxVpzeP7JJ588vw6CbZ9zzjnz40855ZQWBJIkSXWqG8nezz//nJ5//vn/00NMorrLLrtUtwYhYT3kkENyMr3YYovlhJYElmT8rrvuyr3Z3bt3z/dlugnJ89prr52WWGKJ/H/rrLNOWmuttXKSSeLJ7R133DFPz6G3f/PNN88nOV922WXp0ksvzY9T0Lu93HLL5QT/008/Te+//3664IIL0lJLLZV7w3k+ihCmD5GsM+2H++G5557LSX9zuN+aa66ZRxMoTg466KA0xxxzpBVWWCEnxL+HHv699torXXHFFWmjjTbKhcgGG2yQ1l133RwUShQYFAQUFxQz9NbzO0ZnGIXZaaed0vnnn5/23XffXLAUjL5MMMEE+TEobpoGz8PoDCMtvCfsC/YnP/fp06d6lEF4H5oWfQV/x/v45JNP/hZ8HijmeP74rFgQSJIk1aFu9Joz1YXkGsxXZz45QWJMwsnP9EBzH4oHptcsv/zyOWk/44wzcs80ySwFBD3nREESTPBY9E6X2+ecc05OQsttkIROPfXU+Weeg/8/8sgj8zSaY445JifQjASwDQVJMf/H9CKSaYLnOvzww/P//fvf/873o5d+sskmywUH03soVAh6zpnOxOMyT5+RCgoDeszZRgoVRjHKSAajAfxMjz8FCNs+zTTT5KQcjA4wh7+8Jtxzzz35HAqmAjE6wFQitpl9x4gKRQM/87sjjjgiv94y+kBxsNlmm+WfW1KKIB6Lv//mm2/yuSGMcvCchx12WJpqqql+m9bEa2F6EfuU0Y8xxhgjF0V77rlnni7FCA/bzL5mZCE+KxYEkiRJdajb2GOPnRNkEuBnn302z2UnMaTHf955583nClAUkDQzVx9Mh6Gnnn+ZbkOQPNNbTzFAUt7UP/7xj8HOIeD8hFVXXbW6NQjJbJcuXfLPt956a+5t5znprSdJpWed3zGSAHrBSahLsv3MM8/kkQ6m0Ky44oppuummy7dBUfOXv/wlJ93Mp+d1EvxMEswcegoBMKrAydZbbrllnmI0/fTT58eieBp33HHzbabXkGzfeOONJMt5dAAUFk8//XT+GSTliy66aPr444/z6AXbfPXVV+f9RSy88MJ52hMjBuxHpm8xnaiclEwxwXke3bp1GyyYlsXoDYUESTujGUz7ojeffch0JAoj/qUAIRilYRoRGClgKhLvC6MWPDcjHfx83HHH5SKA+7JPPIdAkiSpfnWj15gVcuhRJ/mkZ5tecv4lYd1hhx3yz/SeDxgwICeTJPNMv2GaDNNdaoMpQCTuIBnncUnC6e3fdNNN88/HHntsLjBIrElUSUJ5Ls5JoDDhPAUSaXq5QS82IxTM8WeUggKA3nm2nelHTTFlhigJPih2hjRliJODKYKYigRGPEiCSe4ZRSCRJ5jCtNVWW+XeeKYZsR28DgqZUhDst99+eUpVQfJPYVWLx2QkgGS83J+f2Vdsdy2ei8KlJPUl2Ifsa0YneH8oYhiBueGGG/Lj8R5ygjfnLBS8z+w3sF2c1D0kTAd78MEH87QjCwJJkqT6lc8hIPEmGeUE21pMA2Jue1P8nkSYcwU4h4DefIIEkkSVE4jBOQXcj7nrTAUiySSB5/Zcc82VJppoonybxJaE+oUXXsgnK99+++05YaanmhORO3XqlJNqkmaSYR6XaS5zzz13ngLEKAJFCNNc6DnncRmlYKoMveQUEkzx4bUyGsD9uD9x8MEH5xNv2TaSaHryGRHheS+88MKckDMFh+17+OGHcwLP78sKREwhopeefYLbbrstP1bByMaZZ55Z3Rq0pCqvl8cgeSeJZ5SBn3kMRkBK4fV7KOAYFQCrKFGQMTpBccPoDaMNq622Wv5/cA4Grw08L6McPGfToCBiNMQRAkmSpPqXCwJ6jcvKN7VIDJv2WIMEloSZ3nJ6o8v0GxJsEnx6/JvinANO7C1IqFlpqBajAkxroecdJOckt9yPKTEk2wVz6zk/gJNtKRBIqNkupt7Q800PePkdSS3nEDD1hkSYnnP+nuDEWaY68Tck4kw7YiSAZUP5Pb9bcMEF88m1/B3FDj/PN998v40oUBDwvGDbmX5Upirxt5wbUfA3rALEiAjnSfBcBD8zbYfXA55jmWWWyaMm7JPa4HcUDkx3YjoSeD6mELGqE9OEGI3hvAaKJs4b4LVyPgZ/D0ZM2K+8V0x9opDjpGKmDTGKw//xWBQwFgSSJEn1KxcEX3/9dU4I6eGnCCDBRnMFASMCLA1KDz5LU9IrzRKXJLX0tDN3n4SSHnB6rUFyy31rrzlArzlFQq0ePXrkhJVzBJjGw2gBRQDPQW84q/fwuAVJMIlxLRJytqMpEv0hTRliKg2FTO0FvTivgiSdHnNGIcDIRVl1iZ53RixAQs39CqZZMWLCeQ1Nt4/XxqgJ+5UpV7XB75h+BM4heOyxx/KoBD31BCsOMQLAyAznRHBSN6MN4D2gV5/CjuViC0ZEKAp47QsttFB+PJTrRTAViscBU8F4DrA9vB8WBJIkSfUtn0PAnH0SXZJ2ev6ZXgN6sVmFpxYnxdLrztQc7l871YSTcJmSwnQVigmmIvHYTGthSlItkmh6wGuRgFIkkPyznn45iZnebraJEQSmDjFtCCTH9LajrOrDaAe97LXXFADnIDCViO0jwa8NihgS5tqrAfO6eX6emx5+5tLTg89t0ONO0QAScAoctr+sRsT28v9Mj+JnetspBsqUIUYUuMgaIxkEP7PPak+abg6FAq+VUQ9WCaLXHyTwnNDN1CzeB5ZuZboTRVlZipV/OfeB4PwIihb2FydQs0IRBQIjGmAqFa+VVZY4kTo+KxYEkiRJdagbK++QsLLSDb3+JbFGcyMEJIjMqSdxp8e8FgllmTpT0OPNia1N18Qf0ggByTkr+9Su/0+CzwW6QIFRVsqh15/tBsulsqY/CT4jBE3n4VMQsFJQWcaU6TEEPzPPn5OeaxNxCoKygg+98ST2TDliSk1RXhOFAuc7UFQx1YYRAEY3eC2spMTvtthii9wDzzQreurpued8hLJUKj+T0JOoc5+m07dAAs/Fwnhctpcipoy6cE4FP3MeBud9cME5iidWYWJ6E8F1HyiIeN1sY8HzM/2K6UxMleJ1UUgwjYoRoUknndSCQJIkqU51o3eYlXtqV+QpuNgX015qkTSS+JO8N8VKNyTmBcUFU1Cae2x6+2vPKQCPXRL/Wk888cRvKw7VYnoQPfKgUKHXnulOZapSLXrWmbo0JPTgl6slg15+TsIFvfok2s29ZnDft99+O48wkEzzeglul9/xL6+Bx6CooQf/3XffHSz4HfuQ+zBlqimKE86rKPetvR4Dz1G7/YwGsP08Hv8S/C3bQNQ+Ptta+1ilKGQ/si0sYxqfFQsCSZKkOpQLApJLqTkUD55DIEmSVL8sCNQizi2wIJAkSapfHaYg4MReVkIqHn300bwsaFNMDWL1Ic4zYEoSU5D4md+xag9/xxSpWiydWqYeYUiPzfQblutk+hDTlXgupgsx3YjgXAymWJVzC2pxojUrMXU0FgSSJEn1rcMUBKxqVHsFYFbN4aTZ2kQenLjL6kWs3MPJt1wVmBOUWbufayWQmHMCbsEceU7yJdkvOBGaJUVJ7FmtqJygzAnLnODMSdKswMRJ1+y/cm0ALkjGdQE42ZpVejiBmWVAKWT4f04I5nesknTYYYfluKK6wnF7ZUEgSZJU3zpEQUBSTrLN6kPlGggk2cstt1xeUYckm9/R80/yv/DCC+e19bm2QLdu3XLSTXHACkGsglSWDmUJVVbqmXnmmfMKRVzBmBN+WYqVBJ7lQfk7knqwUhDbUkYrSOwpUjghtza4rgEXPOM+p512Wn4+rgLNiAWFBtcpYGUi/o+TkdszCwJJkqT61iEKApJ7lvFk1RvW6+cKxPzLkphcE+G6667L03FIXrnN0pk333xzeuihh3IvPqMLTBviImdXXXVV7pkncScxZ91/VlOikGBZUv6WZT8pLkjWDzrooN+ul0CBwPUWKAK4RgHJPcUCqyNRBLDSUcEIBvdnm7gfS5YyEjHNNNPkVZMYrWAUob2zIJAkSapvHaIg4CJl9Njj+OOPT1deeWX+ubjooovyFB6uI0CiTtB7z2gCCT8jANzm4mhcL4ARBc4D4PoD++yzT34MlkFlX1B41C61SgGw5ppr5p8ZXeD/WdOfYoHH4mcKDq5bsOGGG+Y1/cHyq1zNmO3iAmJsE8ue8txcB4DRiAMOOCDftz2zIJAkSapv7b4gINnnwlj05oOpNkzdKSgCZppppjxaUDASQE8/iTcX++LiZfTSk5STnDMiAAoCkn1ONibx52JeXLmXcww4sRhcUZmLeTGiQJLPyAPTi8BIAUUG6/9znQGunFy2kxEDnpfzDpi2xHYw8kBhwlWFGS2oPSeivbIgkCRJqm/tviBgKhC97CTRIGGfbbbZflspiIt0MXrAFJ2CKUH02jO1iClCnHvAtCNu02vPxdLAdKDOnTvnEYipp546TxkCzznXXHPlNfh5bgoEVhHabrvt8tWCp59++jxSwd/Ty//111/nePDBB/PVisEqRIxCUGxwReX1118/n/PAczNl6MILL8xFTNMrKrc3FgSSJEn1rUNMGSL5Lz3vYGoO5wqAXn8S9VqMBqy99tppzz33zIVECXrpKR5YOhQUDfTe08NP0k5BQCKPTTbZJK9UxKpEnLjMFCHuy1WaF1lkkfwvJzJTSCy77LL5PIM55pgjjybgrLPOSpNMMkleCWnuuefOSTX/z8jAggsumGaddda00kor5ZGE9syCQJIkqb51iIKA3vkdd9yxupXy6j3M5Qe995dffnn+ueD/+f0ZZ5yRTjrppN/izDPPzEk4U3tAol/OIWAfUBB8++23+TZFAtOROPmXYuKdd97Jvf+MMpS/4YRiRghImgmKhn//+9/5/xg94LwCToSm8GBKEicfM2WJUQ1i6aWXzn/XnlkQSJIk1bcOURBwwa/agoC5/Jz4yxKhLDHKBcJqnXrqqWmzzTbLy4xSHJTg9vLLL58fDyT6LGfKeQKcTzDttNP+nx57/oaTkylKKDI4L4ETiVnlaL/99ssFQ3MoCDi/gAuijTXWWPl6CJxPMProo6e99947n3NAcfLFF19Uf9E+WRBIkiTVtw5REJD805vPfH4uCsbKQaztTzI/5phj5usNrLLKKnnpUHrwWe6T+/E3TPMpwW3OF6Bnn2VISczHG2+8XCRw0bCJJ544nzxMLz/LlXK1Yq5JwPKlTE2iEKAooDi5++67c9LP33GScXkO/o+RAk4YZmSAYoXrD3Tv3j2fT/Diiy/mE4spNDinoGkx095YEEiSJNW3DlEQMCLAlJ///Oc/ee4+J/YSXBH4gQceyKsKsfoP5waQyLM8KFcsZv5/0+D3TB3iomQ8VlmdqHfv3uniiy/OP/M4LB/KFCGKAnrzWZmI7ajFuQ3lWgi1Qa8/qyOxzc1hGziHgO1p7ywIJEmS6luHKAjUdiwIJEmS6psFgVpkQSBJklTfLAjUIgsCSZKk+mZBoBZZEEiSJNU3CwK1yIJAkiSpvlkQqEUWBJIkSfXNgkAtsiCQJEmqbxYEapEFgSRJUn2zIFCLLAgkSZLqmwWBWmRBIEmSVN8sCNQiCwJJkqT6ZkGgFlkQSJIk1TcLArXIgkCSJKm+WRCoRRYEkiRJ9c2CQC2yIJAkSapvFgRqkQWBJElSfbMgUIssCCRJkuqbBYFaZEEgSZJU3ywI1CILAkmSpPpmQaAWWRBIkiTVNwsCtciCQJIkqb5ZEKhFFgSSJEn1rduUU06Z3n///Sr9kwZXUxDcPugjI0mSpHrSbbLJJks9evSo0j9pcN98800pCG4d9JGRJElSPdlttNFGS0888USV/kmDe/fdd9NYY41FQXDcoI+MJEmS6slaEenoo4+u0j9pcHvvvTfFALE4HxhJkiTVl1Ejnp544onTW2+9VaWA0iDdu3dPXbp0oRh4OmIsPjCSJEmqP10jfpp88snTzTffXKWCanTXXXddmnrqqSkGfolwdECSJKnOMXXoh4i05JJLptVWW81o4FhiiSXKNKGeEVtESJIkqQHMF3FOxIcNHt9V0dz/NVKcGzFbhCRJkhrM6A0eB0bs1+R3jRiSJElSQ9onYs9BP0qSJElqNIwO7D3oR0mSJEmNxoJAkiRJamAWBJIkSVIDsyCQJEmSGpgFgSRJktTALAgkSZKkBmZBIEmSJDUwCwJJkiSpgVkQSJIkSQ3MgkCSJElqYBYEkiRJUgOzIJAkSZIamAWBJEmS1MAsCCRJkqQGZkEgSZIkNTALAkmSJKmBWRBIkiRJDcyCQJIkSWpgFgSSJElSA7MgkCRJkhqYBYEkSZLUwCwIJEmSpAZmQSBJkiQ1MAsCSZIkqYFZEEiSJEkNzIJAkiRJamAWBJIkSVIDsyCQJEmSGpgFgSRJktTALAgkSZKkBmZBIEmSJDUwCwJJkiSpgVkQSJIkSQ3MgkCSJElqYBYEkiRJUgOzIJAkSZIamAWBJEmS1MAsCCRJkqQGZkEgSZIkNTALAkmSJKmBjByxSMS0+db/+397Ruw+6Mf/N1XE4hEj5VuSJEmS6tI6ER9H7BhxeMQhERQFn0SsFiFJkiSpjo0S8XhEiviuCn5+MEKSJElSA1g+giKgNtaOkCRJktQARo8oowQEP0uSJElqIBtElIJgLX4hSZIkqbH8pwpJkiSp4cwTwUo790c8GdG9weKxiPcjekY8Wv2ukYL3nPd+h4j5IiRJktQgOkecEvFzRJpooonSFFNMkSaffHKjgYL3nPeez0BE34jzIzi3QpIkSXVsrIi7I9Iaa6yRrrrqqvTOO++kTz/9NH388cdGAwXvOe/9Nddck1ZbbbVSGNwVMV6EJEmS6tRxEWmPPfZIAwYMSFJxyCGHlKLgTD4okiRJqj/TR3y77LLLVimgNLjll1++TB/isyJJkqQ6s3NEuvnmm6v0TxrcHXfckUYZZRSKgq3zJ0aSJEl1ZecuXbqkV155pUr/pMH17NkzjTPOOBQEVw76yEiSJKmedJtyyinT+++/X6V/0uC+/PLLUhDcMegjI0mSpHrSjaUm33vvvSr9kwZXUxDcNugjI0mSpHpiQaAWWRBIkiTVNwsCtciCQJIkqb5ZEKhFFgSSJEn1zYJALbIgkCRJqm8WBGqRBYEkSVJ9syBQiywIJEmS6psFgVpkQSBJklTfLAjUIgsCSZKk+mZBoBZZEEiSJNU3CwK1yIJAkiSpvlkQqEUWBJIkSfXNgkAtsiCQJEmqbxYEapEFgSRJUn2zIFCLLAgkSZLqmwWBWmRBIEmSVN8sCNQiCwJJkqT6ZkGgFlkQSJIk1TcLArXIgkCSJKm+WRCoRRYEkiRJ9c2CQC2yIJAkSapvFgRqkQWBJElSfbMgUIssCCRJkuqbBYFaZEEgSZJU3ywI1CILAkmSpPpmQaAWWRBIkiTVNwsCtciCQJIkqb5ZEKhFFgSSJEn1zYJALbIgkCRJqm/dppxyyvTJJ5/k5O/bb79NDzzwQP4Zn376abr33nurW4P8/PPP6aeffkq9e/f+LYbFM888k1577bXqVvN43vfff7+6NcjDDz+cn3dISFyffvrp6lbzXnnllbz9Q4Pn4vEGDBhQ/WbQdvXs2bO6NbhXX301ffzxx9WtlF/j999/X936nz59+qSvv/46b2+vXr3SV199lW9/9913+Xf8/Ouvv1b3/p8ff/wx/fDDD9Wt/+uXX37J0dQXX3yRPvvss+rWkLEdjz/+eHXrf7755pvUuXNnCwJJkqQ61W3iiSdOt99+e05o//nPf6Yll1wyvfjii+nll19OJ510UlpooYXy7eeffz599NFHaeedd05zzTVX/j0xzzzzpHXWWScdc8wx6eCDD04HHXRQOvLII38rLHicCy64IP+MtddeO+2zzz7VrZTOOeec9J///Ke6Nchzzz2XlltuuZwcg0R1qaWWyklzQaLer1+/nGAT119/fVpxxRV/u923b9/Uv3//6t6D7LnnnjnBxS233JJf32mnnZb/feGFF/Lvi7vuuittttlm1a2Uk/cVVlghffDBB9Vv/ocEft11181FS8G+2Gabbapb/8NrX3XVVdPf/va3tOiii6Ytttgibbzxxvn1bb/99vk13Hjjjfm+//rXv9Khhx6ajj766LTAAgukk08+Ob9uihX2BdvEa8VTTz2V1lxzzfy6KezeeeedvK0HHnhg2nvvvdOHH36YevTokf773//m+1PI8Z7zvvLvRRddlKaaaqp0//33p9dffz2/J7zvb731VhpvvPEsCCRJkupUt7HGGivtuOOOOYElqZ1++unTHnvskZPI1VdfPTGCsN9++6Xdd989XXnllemNN97IRcNLL72U3n777ZzQkrDyOBQGf/3rX9Okk06afw+mI80222zpzDPPzLdrC4ITTzwxzTnnnLnQoHec+5x++unprLPOSquttlouLs4777ycQG+++ebp/PPPT+eee2569tlnc+/9X/7yl7y9M8wwQ37OTp065Z+JqaeeOifaoKeepJfHoFCh13zZZZdNu+66a36cbt26pUMOOSTfF3fffXeaffbZ0xprrJEuvvji9Oabb+bnHH300dOpp56aCxySdfYFKGAojChc+D37iX0y00wz5UT78ssvTzfccENO5nlM9iUFzKyzzpquuuqq/JqXWGKJdNttt+VtOeOMM/Lj7rTTTmmxxRZLM844Yx7doAjYcsstcyHBflxrrbXy/mMUh+Jo5ZVXTocddlgu8Hj/eE+7du2aFl988fx79vsRRxyRH5vnXWWVVfLr3nbbbfP9eW7eewqZv//97/n/2F+TTDKJBYEkSVKd6jbNNNOkm266KSebJM4kqwXJIAkiCXRBzzLJOr3YJJ70dDONhkS3TB8i+SRxLj7//POcMDPlZuutt04nnHBCeuKJJ9Lcc8/922Pz/I888kj+fffu3XPvNNOLHnroofTkk0/mnuw77rgjXXjhhbn3++abb87bwQgEQVJNoVJun3322WneeedNAwcOzMk8iTQJOgXLpZdemjbccMN0zTXX5OcmgWdUoyDJpphg1GPBBRfMhQkjIxQUFAgUBBRKvE6QTPOarrjiilxEkahTXPFc5WcKJJJ29st2222Xk/Xddtst7zdGItjPjAawf2qnaVEIULwUCy+8cDrqqKPyPmUqEIXEJZdckv+PKUtsA6MEFCkUKCT5PB/7kCjTmCisjj322LyvKIyuu+66XDSx37n/tddem6c9MXWrS5cuFgSSJEl1qhtJMtNmSFiPO+64nEAWJJck2scff3xOiJmCQ9K/9NJL59GA9ddfP/cyM2VmvfXWy8kkmJpT5vMzTYWkk4ST5J6pMSTnJPQlCWX+erkviTgJMkHSThLLczKFhWSWBBu33nprTrQZpaBAYOoRj11uk7jTk16mDb377ru5ACkoJigMwFQpkuyC18cUHJBs08NOol+L18tIBsn3uOOOm58P9PI3ncvPyAfTeEjuKQTYn4yOsG8ZAdhoo43yqABFBf/3j3/8IxdFFBy8LxQfFB0k6csvv3ze3oKRAp6bKU8UTYxC8PoZGWCEgX1AEbHLLrvkEQm2D7x2RgbYh0wV4nHZ9wS3F1lkkbTpppvmIs0RAkmSpPqVRwjo4WfOPlNT6MVnKgzzyElImTpCokkPNvPJObGVYqAg0QQJNfPySXzpqS8n31Jg8BzlfAMKkJlnnjnPied3448//m897fTY0ztNzzbBz0wTYroNCTjTikjqmTfP6AXTlMrjsVrS2GOP/dttphCxHYwQ4LLLLstTfphTzxQlHq+lgqAUNDw/STmjExQdBX/PVKBTTjkljTzyyOnqq6/Ovyf5fvDBB/PPYGrVHHPM8dvJwpzDwOvhvAVGMdgHFD6MOlAkMPLCaAknP1MA7bXXXmmWWWbJr53XzWtimwoKAqZV7b///jmRv+eee3JRtMMOO+STxQ8//PD8f/xMAUeRB0YIeH5Q7LEPKCoYlaFYKsUdz+sqQ5IkSfWrG9NB6OXnhFbmoNMjTJLJzySyJJkkiBQBTHehx53eZHq6mY/OlBeQcFM8kAzzWEOLhJqkF/T6k7SSqBIkyiTtjCbQc01ySiFBYkzxQdJbMH2J7SwYjaCXm4KAXnxGHHgNzKNnChC98kMqCJiGwzx6eurZN7xOTuTlXIjSO0/vOYl5mZLD6wc9/LWvnxGG2ik/FAVsJ1OD6MGvDX7Hvi/Y7ummmy4XOkzl4vYyyywzWEHAyEV5bub8M/2L4oPzKOaff/58XgXFEq+JkYwyQkBBQIBt5jWyPzjngVEDpiTBgkCSJKm+dRtjjDHyVBR6zUk86aUn4Wa+O0kxU1rKyjb8jt5rElp6kpniU5JferNJJEnC77zzzvw70ENO7zfTWkima4NkmSlABxxwQL4vPef04DNvnSk+JLjch4KA+fi1BQHPQW8528vUI6bUMAJRbjNtidWQwHNREPB4nLPAFCQKHl53+f/agoDpNjwvoyT77rtvHh0BxQ4nMpMs87opYEjwKV7opQcFFdtVcN5B6ZUH+5GknxECRhwI/p5/+d0GG2yQ9zeYysVroCjZZJNNctLOCdZDKgj4/3JeBOcXcA4EIyWMqjD6wAgPRQXKiATnZLBfeH8IXjdFGttE8ceIhgWBJElS/epGTzLJPb3TJJck1iDRpWebZLJ2qU2WuuR+5cRe7lNOIOYkWZaorMVqOiTAFAtNg2k3zGunCAC9/Cy7yQm+JLf8zLQcEnwKB841oCAgqWVZUOa209PP6AGFy2STTZYTakYW+JfRgMceeywn7kyBofAoJzHz3MzpBwUByTj7gSk7JN3lHAISY066LZjKxDUBytQmMP+/FATsN4qicmIw28V5EgVTgdgfnEDMfmMpUYKfSczZdkY1KEY4J4LVgBiF4TkpkvhdKQDAqEcZ6aAAYH9zDgOvndWjOC+EkRSmBXHfss3cpnjg/hQNnE/AkqOMvDAqxP5mOywIJEmS6ltedpSVdEgGScjp0QbzzknU6UkmSS34f+7PVBnW5WdFHpJzVqRhOgu99CTxQ4se6rIMKdNdmDrDPHi2hylITGEhiSVpphihIGCUgqVAmddfsA21021AEs11FsqFuZh2w+gAJ+xysm05v4CecZ6Hk3oZiaBYYPSAqTck6WWEoBYFQbl+AicH1/bas63Mx2faUtmftUi2KZ7YxxQpBD/zO6ZMgdEXXhOFTO2IA+c3kMwz9YfgvSijAoyCsOwp21xODme7yjKmvEYKLXr+KcRYfQksDVumZ1FEMKWqYB9YEEiSJNWvbhNOOGFOFDmRmMSXxJRVcUjsOTGY6TmcM0CySnJIksv0ItATzUnFJJaMJDDlhwtfcW0AkmIuhsW/9L43F0yJoahgWg7oDS897WAOPwF6x3l8ThguqxLVokee6TxM2WFUgOA8BxJoXgN4DWx7Wa+/oCCgCOD3bBfbxN+xpCoFD9dhoHhg+hOvlV50pvKU7aAgYJrNfffdl6cHMXLCqAT7jelHjHCw7SwLyopLFE4s+cnf1AY9/IyKUFxRzIDXwypHjDyAEQKuscD9OBGcZJ1Cim1g3zCdi6lAbCdFCb/nPWAZUt5jCg22jdfIY1JYUXiwnZz8zeNxTgH3Z5SC99NlRyVJkupXN3qKmaLDNBHmqjMdhZVvaqe5sHIQyW05CbWgt525+kxFqZ0nT+8+c95JbEtC2jT5Jfg/evXp0QaJLcUJKBJIxhm1AEn05JNPnp+vLCVaiwSannBGFbgP/zLyUHsVZJJwkl+m4JQrFoOkl0KIhJwpPUxDovDhZ5YWZf8wr5+igek1E0000WAFBdvM/eid51wELkpG8Hwk1/xc/p+pTLxmihMKsNpgahL7klECRknAaEZJ3sEIBtN8CkYL2PcUMrwmtpvzG1gxiilUvK8E203w2hmRYGSG6VCcOL7VVlvlazGAQoDtZiSGFZNYbcllRyVJkupXN9a4p9eY5UTpBafXn0S/OU3X1+f+3LecqPpHMA2IkQSQ1HMbnEBcLqIFnqf0mv9RnBTNtvJvS3idZToRxUd5ffwd29B0O9hm9t/v4bEoMviX52guSPy5TykAeFx66sv2sA3lZ3C7nIRci5OXy7bWBs9RXj8nb1PsNYf78Nycc+GUIUmSpPrVjSUpa08almoxLcqCQJIkqX7lgoCTSqXmeB0CSZKk+mZBoBZZEEiSJNU3CwK1yIJAkiSpvlkQqEUWBJIkSfXNgkAtsiCQJEmqbxYEapEFgSRJUn2zIFCLLAgkSZLqmwWBWmRBIEmSVN8sCNQiCwJJkqT6ZkGgFlkQSJIk1TcLArXIgkCSJKm+WRCoRRYEkiRJ9c2CQC2yIJAkSapvFgRqkQWBJElSfbMgUIssCCRJkuqbBYFaZEEgSZJU3ywI1CILAkmSpPpmQaAWWRBIkiTVNwsCtciCQJIkqb5ZEKhFFgSSJEn1zYJALbIgkCRJqm8WBGqRBYEkSVJ9syBQiywIJEmS6psFgVpkQSBJklTfLAjUIgsCSZKk+mZBoBZZEEiSJNU3CwK1yIJAkiSpvlkQqEUWBJIkSfWt25RTTpnef//9Kv2TBldTENw+6CMjSZKketJt0kknTT169KjSP2lwPXv2LAXBrYM+MpIkSaonu4066qjp8ccfr9I/aXAUi2OOOSYFwTGDPjKSJEmqJ6tHDDz44IOr9E8a3N57700xQCzKB0aSJEn1pztTQrp3716lgNIgzz//fJpwwgkpBp6L6Jw/LZIkSao7C0f04lyCG2+8MQ0YMKBKB9Wo+Axcf/31aZpppqEY6BuxDB8USZIk1S+mDn0ckeacc860+eabp+233z5tu+22RgMF7/lmm22W5pprrjJN6KuINSMkSZLUAKaKODPi+YifI/pH/Npg0S9iQBX83Nx96jl4z3nvmSJ0TsQMEZIkSWowo0fMG7FIBNOJGikWijgr4ozq5+buU8/Bez5fBJ8BSZIkqSHtEbHroB8lSZIkNZr9IvYe9KMkSZKkRmNBIEmSJDUwCwJJkiSpgVkQSJIkSQ3MgkCSJElqYBYEkiRJUgOzIJAkSZIamAWBJEmS1MAsCCRJkqQGZkEgSZIkNTALAkmSJKmBWRBIkiRJDcyCQJIkSWpgFgSSJElSAxk5YtxBP2ZNC4JRq38lSZIk1SEKgo0iToyYIKJbxI4RE0YcG7FlhCRJkqQ6NlXEtxFvRHSPeDjizYifI/g/SZIkSXXuyIjUJA6IkCRJktQAJo34LKIUA99ETBkhSZIkqUGcFFEKgpP5hSRJkqTGMV1EvwhGB6bhF5IkSZIay8URtw36UZIkSVIjWSHi1YgPIpbnF5IkSZIaAxck+7VLly6pc+fOnEPAkqN78h+SJEmS6tfUEVdEpAUWWCC98MILOeaZZ55ycjHTh1iBSJIkSVKdWTLivYi05ZZbpt69e6eiZ8+eabvttitFwUsRXSMkSZIk1YGRI/aI6M0UodNPP70qA/6v8847L4055pgUBX0i9o2QJEmS1IGNE3FtRJp99tnTiy++WKX+Q/bII4/k6UT8TcQ/IyaOkCRJktTBMEXoxYi06aabpo8//rhK+X9fr1690iabbFKKgrciFo+QJEmS1EHsEvFjRDrjjDOqNH/YnXDCCWUVoh8ito2QJEmS1I5NEHFhRJpjjjnS3XffXaX2f9zjjz+epptuujJacHnE+BGSJEmS2plFIp6LSBtuuGH65ptvqpT+z/voo4/SRhttVIqCZyPmiZAkSZLUTmwT8SMrBB177LGpf//+VSo/fJ100klptNFGoyj4NmI3nliSJElS2xk34pKINMMMM+QVgka0e+65J80yyyxltODsiLEiJEmSJLWyuSOej0hrr712ntbTWlixaIMNNqidQuSFzCRJkqRWtFPEVyOPPHI65ZRTqjS99R1++OFp1FFHpSjoFfFXNkySJEnSiDN2xBkRadppp0133HFHlZq3HaYQzTTTTGW0gBWOukRIkiRJGs5Y2efxiLTeeuulDz/8sErJ2x7TlVZYYYVSFLCNM0ZIkiRJGk42iPiG6Tl77bVXGjBgQJWKtx99+vTJKxyNMsooFAVfRmzNhkuSJEn64zpFnByRpwgNjwuNjWg33nhjmmSSScpowSkRo0dIkiRJGkazRjwRkZZddtn0zjvvVCl3+8e2rr766qUoeDiCFZEkSZIkDaX1Iz6KSIceemjq27dvlWp3HAMHDkx77rlnKQq+jlgvQpIkSVILmF5zekSaYoop0nXXXVel1x3XTTfdlKaaaqpSGBwXwUpJkiRJkpqYOeLOiLTSSiulN998s0qpO7733nsvde3atRQFrEI0TYQkSZKkClOEWJkn7bPPPnnFnnrTu3fvtO+++yYuphav8+OIDSMkSZKkhsYUocMi+k855ZTpqquuqtLn+sUUogknnLCMFpwQIUmSJDWkv0Q8GpGWWGKJ1KNHjyplrn8vvvhiWm655UpRcHvETBGSJElSw1gp4p2ItOuuu6YffvihSpUbx6+//pp23333UhR8GLFqhCRJklT3jo4Y0Llz54aYIvR7Lr744jTZZJNRFPwacXDEaBGSJElS3Zk84oaIPEXoqaeeqlJivf7662mBBRaonUI0RYQkSZJUN9aIeD8idevWLf34449VKqzim2++STvvvHMpCj6IYFqVJEmS1OHtHfErK+tccMEFVfqrIbnssssS06lin/0ccQQ7UJIkSeqIpo/IFxpbcMEF88o6GjrPPPNMWmSRRcpowY0RTLeSJEmSOozFI96OSFtvvXX67rvvqlRXQ4uVl2qmEL0RsXqEJEmS1O4dEvHz+OOPny666KIqvdUfdfbZZ6cuXbpQFAyI2IMdLEmSJLVHE0ZcHpHmmGOO9OSTT1Yprf6s559/vnYVousiJomQJEmS2o0VI96MSDvssEP66quvqlRWw8u3336bNtxww1IUMB1roQhJkiSpze0Y8VOnTp3SiSeeWKWvGlFYqWmsscaiKPg+Yk/eAEmSJKktTBpxZUSad955U/fu3auUVSPao48+mmabbbYyWnBFxAQRkiRJUquZP+KViLT22munr7/+ukpV1Vq++OKLtOWWW5ai4LmIxSIkSZKkEW7niB/HHnvsdOaZZ1bpqdrKP/7xj8R7Ee/JTxG78gZJkiRJI8I4EUxPSTPMMEN6+OGHq5RUbe2RRx7JKzvx3kScH8GKT5IkSdJws0TEsxFpk002SZ9++mmViqq9YArRBhtsUIoCVnxyFSJJkiQNFztE/DzKKKOkE044oUo/1V6x0hMrPsV79nXE1ryBkiRJ0h/ByjVnRaRZZ5013X333VXKqfaOKURM6+K9i+BicWNGSJIkSUNttghWrkmrr756no6ijuX9999P66yzTikKHomYJ0KSJEn6XVtGfDPGGGOko446KvXr169KMdXRDBw4MB1zzDGlKOBCZk4hkiRJ0hAxreTsiDTZZJOl++67r0or1dHdeOONtVOITowYO0KSJEn6zVwRj0XkC429+eabVSqpevHxxx+nVVddtRQFz0TMHSFJkiTlKUKfR6TDDz88TzNRfWL61yGHHJJYMSre7y8jNoiQJElSgxojgukjafrpp08333xzlTaq3t11111pyimnLKMFF0Q4hUiSJKnBMEXooYi00kor5RVp1FjefvvttOKKK5ai4N8RM0RIkiSpAawd8e3II4+c9t9//9S3b98qRVSj6dOnT54mxmchPhNfRGzFB0SSJEn1abSIUyP6s4rQbbfdVqWFanTXXnttmnTSSctowZERo0dIkiSpjkwdcV9E6tq1a54uItV666230iqrrFKKgocjZo+QJElSHVg/4oOIdMABB6SffvqpSgGlwTF9bJdddilFwUcRK0dIkiSpgxol4rCINMkkk6RLL720SvuklnEhM6aVxWdnYMQ/IphuJkmSpA5k2ojbItLSSy+dXn/99SrVk4bOSy+9lBZYYIEyWnBXBNPOJEmS1AGsGvFpRNpxxx1T7969qxRPGjY//vhj2nfffUtR8H4EK1RJkiSpnWJax8ERfSaccMJ05ZVXVmmd9OdccsklqUuXLhQF/SOOiBgpQpIkSe3IlBEPRKRFF100vfLKK1UqJw0ffKaYfsZnLOKWiBkjJEmS1A6sGPF6RF4hplevXlUKJw1fv/zyS9p+++1LUcC0tOUiJEmS1IYOjRgw3njjpX/9619V2iaNWP/85z/TRBNNRFHQL2LfCFa0kiRJUiuaKuKKiLTwwgunJ598skrVpNbBKkRzzz13GS24NWLCCEmSJLWCZSLyhca22Wab9MMPP1QpmtS6vvnmm7TDDjuUouDViBUiJEmSNALtFvHjuOOOm84444wqLZPa1nnnnZdGH310ioJfIvbmgypJkqTha6KIGyPSXHPNlZ5//vkqFRvxOJG0GDBgQLrsssvS559/Xv0mpX79+lU//c8FF1yQnnvuuepWSv/5z3+aLWBY5/6www5LX3/9db797bffpuOOO+7/jHoMHDgw90a/+eab6b333kuffvpp/vmjjz5KH374Yf75s88+y/crXnjhhXTrrbdWt1rG8/33v/9Nb7/9dnrnnXd+C25/8cUXg73G1157Ld1+++35559//jnvC567BLdrr/1www03/HZ/8DqOOuqowfZrLa4ofd1111W3BjnttNMGe4zi2muvTT179qxupXyf7t27V7da12OPPZanr/EZjbg8YvIISZIkDQeLR7wckbbaaqvBkvHWwIWpjj322PwzBcH666+fXn311Xz7kUceSauuumr66aefctJMYv3999+nE088MS9Ryc8krF27dk177rlnvk307ds3//3999+fk8jahJvHO/LII6tbg/Ca11hjjdwTvccee6Qll1wynX/++WnddddNG220Uf79Ouusk954443qLwYl0ay6ROLdp0+fZqN///75vhtvvHFaa6210gEHHJD22muvHHvvvXd+7TPPPHO66aab8v3w4IMPpoMPPjj/TMEx+eSTp2mmmea3mGyyyfJJtwX74aKLLqpupXT11VenlVZaKW8X+7NgH/I6KbgWX3zx9Mknn+QC6YEHHkhzzjlnevzxx/P/U4SAQmj55ZfPz8X+opBiTj/P949//CMXHeyj2iJpRPvuu+/S5ptvXoqC1yK6RkiSJOlPYAWXX8Ycc8x07rnnVmlX63r99ddzQnrWWWfl5HLrrbdOH3zwQe4pn2mmmfJ2kVjfe++9OdFdffXVc/K+0EILpdVWWy2tuOKKabrppkurrLJK/r8111wz3XHHHfmxu3Xrlg488MCc0JOA77///jk5X2GFFdJ+++2X9tlnn3TXXXflkQSSX3rADz300Jww33nnnbkYIAHl9zwu21ow8tC5c+f83M3F1FNPnS6++OJ8X4qQm2++Of/cFMVMWcGJZH733XfPr+vCCy/MIwI9evRI77///m/ByAJFD6MYG2ywQRp//PHztvM3LAm76aabJi4cR1Ez//zzp/XWWy8XRIz6nHrqqenMM8/MBRivZ6eddsqJPnH22Wenk046Kb344ot5W2688ca8LRRVp5xySjrnnHPytvJ3vCc8FhcUa82CoOA1sPJVfHb7RuzCB1mSJEnDZoKIiyPyFKGHHnqoSrXaBlNntttuu5y47rzzzjkRppe8dqlTknaSYaYHsQINBQNTeZiKQyLM3zzzzDM5gWUkgd7uBRZYIE/tYaSBpJ4kl39J9q+//vp01VVX5dEIHoMeb5JcigeCnnCmIdH7zr+HH354fqzS606xsOWWW+bt4DGaBtvCNoEC5pBDDklPP/10euqppwYLiiG2A7xeChASfJLelvD4FDY8Bq+PC8aRuC+77LK5t5+44oorcq8+U4zYFl43BRDvNyMTjFDcfffd6b777sv/x98UFFe33HJL/pniieJqjjnmSIssskguJI444oghTktqDax8Neuss5bRgisjJomQJEnSUGAVIaZb5OSzzK9vC/R0k8A//PDDvyWm9M7TO86IAPPGSfyY7gKSUKbpkKCSzDKaQDHAnHiKBaa/MCIAkmNeI8kwveNM06n17rvv5iQX11xzTTr66KNzzzeJOD3l8803X54aw+3Se86/TAUCPeXbbrttLk6aBiMJZeoNKAhmnHHGtMwyy6SllloqBwUHMfbYY+fipGDqE68TTF8iMWcaFcUHIwI874477phfa9l+/PWvf82PzzSeghGFxRZbLPfic84FU6AYQZhnnnnyVCQek78jeOyy7956662873g/Pv744/x3jLpwm/eFworHrR0xaQtffvll7RQiViFaMEKSJEkt2DLiJ1ZsOeGEE6q0qu2Q0JGEE5woXP6lh57Elik39Jbfc889+f5bbLFFnldfTsill57kleKAuff//ve/czLN/Ph55503T3FhLjzTa0jCOUm42G233XJCX3AyMdOKyvx4EnFGBY4//vh00EEH/dZbXpC4My1oiimm+D9Bks85BgVJPCf/NockvoyEcO7DDDPMkAsFzjfg95wEzDZxoS6m9lx++eU56M3fcMMN83kNJOa8PkYgeF62GRQnTK1i7j2jFq+88kouhFhOduWVVx5sRIP/e/nll/PjsZ+ZisRIAic9M1WLgojtIJhyxIgE70F7wHSz0UYbjaLg24i/80GXJEnS4LioU77QGNM+6HnvKEjOy/x7erFJmJkfz8nCs88+e072mff/6KOP5l5zCgKmADEfn6SapBgktRQaBfP6uU9BQUFPPok7CTe94PzLbdbCbzrC0BLOTeDE54KCgAKM8wFI3gkSb4oZ5vkztQdMHWKEhOlFTFMiUb/tttvy1BzOlWAbmfIE/p5zFZjyRVCEUChRDE0//fR5ahDPw0jHV1999VvBxWvh/xntoOCqDc4ToADhX7aZx6CI+tvf/panJlFwEIzaUFDUnmTd1iheZptttjJacEHEOBGSJEkK80Q8HZFXuinz2tsL5q4zvae5YE7/csstl6cVgfMMuD+JL8GUF/4lgS4FAScOF3//+99/Kwg4AZZVlEAiy+gBU5YK/p6pMRQBtUkyyTpTdHgOMPWGnyk8KFZqg9V4SOCZ6tO0ICD4f4oUglEHHmeqqab6bfSAqTv0xJe/ZboS28S0KPYDr50CgiKI3nym//B/rBbESMoTTzyR/46VgTghmHMeODG7THP69ddf83kVjKxwX85DYDoVow2ch0DhUHAfXgujOJyXwOtleym+2HbOJWDftyd8tjlpnM96xLMRC0dIkiQ1tJ0ivuvUqVNOsGuXoWwvSEiZBkTPd9Ngvjqr5JQpQyTMa6+9dp7qQzBKQA82CTbnITBliJ+L2oKAk3+nnXbavGIR5xww3aYWSTG93kzLYUpMCW5TeJSCgG3ifmxH0+D3p59+etpkk03y/i4oBsrKR02R6LMUKDhhmnn6TFXCEksskZN2zqFgig6JP1OdKCwoarbffvt8P1Ds1Z4UzLkT9JqzVCkoIhgtoMDYddddc68/RQRTiiiUeI0UAAXnLfAe8HcUB0yZYnlURmvYfxQJnNTdHlG8jDHGGBQFvSM24YsgSZLUaJgucUZEnudem+h1NCTiZf4+013oyWcVIebb03NPws/8d6bVUBDUjhDQU8+0m4IpOyDBbXpRMXrTmbvP89EDXoIecaYSMQIwtJjPX3tyLwUBy5SS3DcNpvuUKUOg+Dn55JPzidUk+SC5J3Fn5STOdWB1HUYL+H/eW/YPyT7TemoxNYzVhDiPgufhhOxaFAyMwjSHQowpQ4wucD4GBQ/XYuBfXg+rF7W30aZavDamRvEdiDg/YtwISZKkhsBKK09F5F5wVolpr0jumQZET3dzQcLPOQ9lyhAnwzJNhZ7yZ599Niem9FJz0iz34URgRgUKThLmxFwKAJJneu75m1FGGSX3uHP/Y445Js+Jp1eZgoC59UzZKcFtpqFwzgGjA7WrBxWMIlA8cA4AU3VYSrQ2WaYnnsKMZUIZEaiNkUYa6bdlR8FIAkUJRQ6vlaSek2ZJ6MuKUGwvIyL0/tNTT/CaKI6Y4sPfU2QwPYiRFE4MptCgYCr7lqVDKVzYv/xMscWqTRQaIPnnvAOKE7afcypYjYmrF7O9s8wySz55ufaib+0N51NwfQa+CxHPRcwRIUmSVNc2j+hJckhS2BYXjRoWJLhMGaJ3vrlgnjxLjJaToFnhhuSWnnVOEi699pw8yxQYVv6pPdGVOfj8LcksJxCT0BIsccrvrrzyyvz/TIHhhFvOGeBcA+bglyi36fEnQeZ6CE0xjYbVfUieOQegaU8920kCz5StpsEUJ04WLnhtPF/BCb7chx7vWkzlqb3YGcXKN998k7eP7eA5KVRIigv2de35GWVJVX4uvy/bzjKsLIfKSAUnY7MdtcH+4ATk5gqk9oR9zOeGwiu+G19EbMUXRZIktX+zRKwd8Vfjd2OjCOZJXxSRp3fUziWvByR15d9S5AxNsVP+TsOuvReTw4oRJEZZ+I5EXBbhhcwkSWrnOGBzoaGzjd+Ns6p/P4vIa8izmoykwTFljO9IxOcRi0VIkqR27I4IEl0Nvaki7ozIc8dZ477RMCJQG6woNDwxP39ErL3PCdFlNaShwXUWWrooGK+dba3FFKOePXtWtxoL+5YLwPHdiLgp4i8RkiSpnbsl4rxBP2oYjBpxSES/iSeeOM9/bwSsJMQJ1AceeOBgwQpBm222WZ4LD05G5qRfTqrlJNpu3brli4ixlCe3CU7CZUWg5s4V4ERdlj5tDnPpmftfrrJMlGsalNv8X+1a/wXLgHLRtSFh+VPm9BesnsRJ0EPCtrC8KCcRUziwuhLnYnCOAD9zIjYFQiPgPRhvvPEoBPpFHBExSoQkSeoALAj+nNUiPo7IyWa9TyHigmTzzDNPXsOfk2tLcLIu6+mXdf1Zz5+knpWHWCmHZJElPFmlhxN0OeGY/2O9/XIxr1qcVMzjNYelUEnUKSpYtYcVkqaYYoq0yiqr5OU+uc3/0btfi+dkG8qa/vRms9xnLU6wnnLKKXNhQ+8/54lQAHHyMCfMUsAQnHANribMRcsodFhdieKA1YQYOeJnVlcq+6Re8V5TBPEdiHg/Yo0ISZLUgVgQ/HkzRTD1Ki93yUWv6hVX3f3LX/6SLwxGAs4SoSWmm266fLGwplguk2VJJ5tsspxUs9JO7ZQaphtx0bMSrOVPLz3LWNb+nhjSVByWO2Vp1SFhKVCKgdrpXe+++24ubpquKkRPP0uRUqwstthi+TWxTCrPwcpGRBl9YGSE18NUJEYEWF2I0RBGFSgueI7mCp56wXKtXLeBz37EvRHTREiSpA7GgmD4OS4iTTTRRHmpzXr0yCOP5N5vevwZAShB7zsXFSPhr8XoAD3mLM3KVX/33XffdMYZZ+TfcV0CeuFJrrmwFdcPYL1/rnLcpUuXNPbYY+ef+R3BKEDt1ZFr0UtPb31TrODDev78Lev+U5xQsPE6uGDaggsumDp37pyvZcA1Fkj2GR1gGhNFQLnqMQVKuWhb8f333+cRBK7M/OKLL+afeW2MJpTlRbt27Zref//96i/qC/uJ4jA+8wMjjooYPUKSJHVAFgTD14YRTJvIV/Llyrf1hJ7z+eeff7ArDBMHH3xwng500UUX5ftxQS9GECgeSlJ9wgkn5PMNQM/yiiuumHvgSai5qBsjAPzLev5M++GiY/zM7whGDhghuOGGG3LSXZt4czVf/ob1/sv/cV4HVxueYYYZ8jKYW265ZR4lYHoLIzkUG5zHwEjEkksumQsKVscZd9xx87kSzz33XN5WME2IayjU4iJmvM+MAvB6Z5xxxnxuA8USwbQn9lW9nXROEcdF6XjtEV9GsGyxJEnqwCwIhr/pIh6OyElyvfQQk/SWHvDbb789nwvAhcfKz1wwjAt03Xbbbfn6DEy14YRaTrzlQl5ckIwEnoukUSjxe84joCBoinMBJplkkmb3HYk+xVYpRIjZZpstJ/NM4eH3jCRwdV9Obqao4Dk5X2DmmWfOj8Hzcv+CE5I5NwGsksO5EowKsLQsF2KjoKBo4ArOnDzNlZV5Ds4TYMSBi5xReJQihWC0ZL755svFT71gWhTnRfDZjmCKkFckliSpDlgQjBhjRxwb0X/yySeviylEXHCKhHfnnXfOCTk980z94cRerqR72WWX5USbf8G8ehJq/p/gRGB6lvl5u+22y4kl026aosd9iSWWyOcd7LXXXtVvW8aKRN27d69uNY+RCrYHrETEOQFNMVWI5+ZcCa54zDQhgpWJ2HZ+pvhhNKFXr155KhQ/P/vss/lkZFZSYgSC4PXOPvvs+fXUA0ZIJp100lIMnBThFCFJkuqEBcGItV7E1yOPPHJOFuthFSIS6dJzz8pKTA0icScBpmefqT2g55/edObtE7x2gp+Zs89JyK+//nq+b60111wzr8zD+v5MG+KE4N9Dwk7B0hKmFDHNB4xW1BYEnMdAMcCoxSKLLJJ7wmtx/gMnGTfF6MRTTz2Vg1EKzldgbj3Tmji3gilRLV3HoCPgPeP9iM8xwYpaXLFbkiTVEQuCEY9pFfdF5OSZee0dFck5JwAzfQgUAPS6s34/04UIpuiAgoDRhOZwsi/z/ptefIzpOZzoW869KGvbcwJwS5j+w1KoQ8JJv5yY/PLLL+fbZ5999mBThjiXgKlP4PwCpj+ts846+bwGMA2JBL8pfs90IVYU4gTb2mlMjBJQ0HzwwQfVvTselmitudDYIxGzREiSpDpjQdA6Ros4OSInph1xChG9+qyaQ2858+mZPrTSSivlKTSgJ5klNlmjnxNPSYRZqYf7H3XUUYMFU47YD/TEs+woCTVLmbJST9PrB9Cr36lTp7T11lvnk30LpiRxbgIjCSwfysXBmqLHn6lCTOehaCk4+XjRRRfNU5YYHZhpppnyeQNsCxeam2qqqXJvP6MZ4GRoipOmSPxZ7pTnYPoUJyLzWgiKJkYIOJ+iI44MUWCx8hOf2YhTI8aMkCRJdciCoHVtHvFFRO5N7yiJIj36jASUVYLoFd94443zRbu4INd6662XT7Blug8XBaMwYOoQBQEn93ISLqsMESztycm/JN0k/yTlrGVPLz0JfHMee+yxPJWn9orQJN38HSfzMqpQevNrcU4DqwnxnLUYmWB1oaWWWir3gPPcnBPAtnBBNB67FgVMOTeiFsUNy6cymkCxxKgDS6ASnNfA62eflIuhdQQURbzeUUYZhUKAVYQ2iZAkSXXMgqD1zRrxZES+oFdziWx7Q0EwpJNjWZ2HVXzoreffcqIwV7BludAh4fwBevlRphn9ntoCiqKDJT2ZDjSk5V05L6DpiEPBY/Gaav+f19kcto/X1xS/Z4SBYoL9wH1qg9+xVGpHKfx4PZxbwWez+ozOGyFJkuqcBUHb6BxxQUSeOsO0EqktcZ4Gn0U+kxGnR4wTIUmSGoAFQdvaLKLXGGOMkefaS62NURGumzDaaKNRCHwbsSMfTEmS1DgsCNreghFPR+S5+EM7fUb6s5guxTkgfPYimCI0d4QkSWowFgTtAxcyOzsizTLLLC0uoSkND6yONOOMM5Zi4F8RThGSJKlBWRC0L90ivmH6BivzSMMbU4RY4Wr00UenEPguYgs+eJIkqXFZELQ/80U8F5GXr2T9f2l4YOUjllXlsxXxn4hFIiRJUoOzIGifxo+4JCJNN910eXqH9Gdw4TUunsZnKuLCiAkiJEmSLAjaOVZ86d2lS5d8dV3pjzj99NPLKkK9I3blgyVJklRYELR/TOt4KSJfGZiLYElD49NPP01bbbVVGRV4IWLxCEmSpMFYEHQMk0SwEkxaaKGF0hNPPFGlfFLzuILz7LPPXoqBayOYhiZJkvR/WBB0LH+P6NupU6d09tlnV6mfNDg+G+OOOy6FwA8Ru0eMFCFJktQsC4KOZ/mIlyNSt27dUs+ePas0UI3uhx9+qJ0i1COia4QkSVKLLAg6pokiro/I00KeeeaZKiVUo3ryySfTggsuWIqByyOmipAkSfpdFgQdG1OIfh5//PHTP//5zyo1VKM599xzEytRxWehf8Q+fDAkSZKGlgVBx7d0xDsRabPNNnMVogby3XffpR133LGMCrwSwXQySZKkYWJBUB+YHnJdRFp00UXTyy+/XKWMqlfPP/98XnGK9zzipohJIyRJkoaZBUH9YCWZAyL6Mn3k/PPPr1JH1Zsrr7wyde7cmUKgT8SB1XsvSZL0h1gQ1J/VIt6NSPvtt1/68ccfqzRSHV3v3r3TDjvsUEYFPo5YIUKSJOlPsSCoT1NH3BqRp5W88MILVUqpjuqdd95JXbt2LcXAbRHTREiSJP1pFgT1a5SIoyMGTDLJJOnmm2+uUkt1NJdeemmabLLJSjFwSMTIEZIkScOFBUH9Wyni/Yh8ITOmnahj+Omnn9K+++5bCoH3ItaJkCRJGq4sCBrDTBH/jkjLLbdceuutt6qUU+3VG2+8kZZaaqlSDNwVMWWEJEnScGdB0DhGizgsYiBTiK644ooq9VR7c9NNN6UJJ5yQQqBfxD+q906SJGmEsCBoPBtEsEJNXoWoT58+VRqqtvbzzz/n92TkkUemGPgsYo0ISZKkEcqCoDFNF3FPRFp++eXTa6+9VqWkais9evSoXUXovoiZIyRJkkY4C4LGNWrEKRGJKUS33357lZqqtbEC1HTTTVeKgeMiRo+QJElqFRYEWjfi04h08MEHp19++aVKUzWiDRw4MB1wwAGlEPgkYsMISZKkVmVBIMwW8UREWnHFFdNnn31WpawaUbjQ2DrrrFOKgYciZo+QJElqdRYEKjpHnBiRZppppnTrrbdWqauGt7vvvrv2QmNnRIwRIUmS1CYsCNTUFhHfsdLNEUccUaWwGh769euXjjnmmDTGGGNQCHwZsTk7XJIkqS1ZEKg5c0fkC5kxreXdd9+tUlr9UZ988klaeeWVy6jAkxFM05IkSWpzFgQakjEj+GzkFXDuu+++KrXVsGKK0Mwzz1yKgZMixo2QJElqFywI9Hs2jfhspJFGSscee2zq379/leZqaBx22GGlEOgZwXQsSZKkdsWCQEODKUQvRKS11147T39Ryz799NO00UYblWKAFZzmj5AkSWp3LAg0tLpEnBWRVyF6+OGHq9RXTTG9quZCYxdGjBMhSZLULlkQaFhtF9F7rLHGylOINLhzzjknderUiULg+4gd2GGSJEntmQWB/oiFIp6JSJtvvnn66quvqnS4cX3++edp3XXXLaMCL0Y4RUiSJHUIFgT6o5hCdElEmn322Rt6CtFTTz2V5p577lIMXBoxUYQkSVKHYEGgP2u3iG9HG220dN5551UpcuM44YQTyoXGfohgOpUkSVKHYkGg4WHBiNci0iabbNIQU4h4jdtss00ZFXg1YpkISZKkDseCQMML02Quj0hzzDFHevrpp6vUuf488sgj+TXyWiOYNjV+hCRJUodkQaDhrVtE33HHHTedeeaZVQpdP84///zUuXNnCoHeEXvzgiVJkjoyCwKNCEtH/CcibbXVVunbb7+t0umO6+uvv86vhdcUwRQhpklJkiR1eBYEGlGYQnRVRFpooYXySjwd1fPPP1+7itANEZNFSJIk1QULAo1o+0b0ZiWeCy+8sEqxOw6mCI033ngUAn0jducFSZIk1RMLArWG5SJ6RKRdd9019ezZs0q3269ffvkl7bDDDmVU4L2IlSMkSZLqjgWBWsvkETdHpPnmmy+9+uqrVerd/jz33HNpqaWWKsXANRFTRkiSJNUlCwK1plEj9o/4dfLJJ0+XXHJJlYK3H5dffnmZIjQg4vAISZKkumZBoLawYgTTcNKOO+6Y+vTpU6Xjbee7777L05nYpog3I1aIkCRJqnsWBGor00ZcF5GWXnrpvJJPW3nttdfSYostVoqBeyOmjpAkSWoIFgRqa4dF/NqlS5d02WWXVSl662GK0MQTT0wh0CdinwimNUmSJDUMCwK1B6tHvB+R9tlnn9S7d+8qXR9xfvrpp7T77ruXUYFPI9aMkCRJajgWBGovmKZzf0RadNFF05tvvlml7sMfj73ccsuVYoCVj5i+JEmS1JAsCNSedIo4MiKxCtHNN99cpfDDz1VXXZWmmGKKUgz8I8IpQpIkqaFZEKg9YvrOJxHp73//e+rXr1+Vzv9xffv2TYccckgpBD6IWCdCkiSp4VkQqL2aLeKBiLTaaquld955p0rth91bb71VO0XokYgZIyRJkhQsCNSejRbBtJ406aSTpuuvv75K8Yfevffem6acckoKAS40dlLE6BGSJEmqWBCoI9gi4vORRx45HXXUUUN1ITOmCO23335p1FFHpRj4OmI9HkiSJEmDsyBQRzF9xIMRafnll089evSoUv//64MPPsjTjLhvxL8jZo+QJElSMywI1JF0jjgjYuC0006b7rzzzqoE+J9bbrklTTPNNKUYYIoQ044kSZI0BBYE6ojWiviKKUQHH3xwVQqkdPTRR5dCgBWKtoyQJEnS77AgUEc1X0T3iLTuuuumjTbaqBQDT0bMGiFJkqShYEGgjmyMiNMiKAT6R5wdMVaEJEmShpIFgerB+RFnDfpRkiRJw8KCQPVg94hdB/0oSZKkYWFBoHqwS8SOg36UJEnSsLAgUIcxcODASSP2bxrXXXfd3TfccMOdzfzfzNWfSpIkaQgsCNRhRIK/cLXC6FCJ+29S/akkSZKGwIJAHUYk+POT6P/rX/9K2267bTryyCPToYcemuPwww9P+++/f75C8TfffFMKgvWqP5UkSdIQWBCowygFwVFHHZUOOuig9NBDD6UHHnggx4MPPphuvPHGNPvss6cPP/zQgkCSJGkoWRCowygFwfHHH58WW2yxtNVWW6Utttgix5Zbbpk22GCDNO2006bPP//cgkCSJGkoWRCowygFwbHHHpuvTHz66aenU045Jcepp56ajjjiiDTTTDOlTz75xIJAkiRpKFkQqMMoBcHll1+eRwQOOeSQdPDBB+d/iX322SetsMIKqU+fPhYEkiRJQ8mCQB3G+eefP/+5556bTjjhhHTppZemK6+8Ml111VXp+uuvz/9SKBx99NF5tOD555+3IJAkSRoKFgTqMO65557577777nTnnXemM844I911113pggsuSAsttFA+qfiJJ55Izz33XHrkkUfSW2+9ZUEgSZI0FCwI1GGUKUN33HFH2nrrrfO0oB9++CHNMsssaa211kobbrhhWnPNNfO5BbAgkCRJ+n0WBOowSkGw8sorp3nmmSf9+uuv6eeff06LLrpoPrH4zDPPzCMH999/vwWBJEnSULIgUIfx3XffzX/iiSfmFYb222+/tNJKK6V99903LbPMMqlHjx7p008/TR999FF64YUX8m0LAkmSpN9nQaAOY6KJJlqga9euqWfPnnkE4Oqrr86rDW233XY5uHoxsfnmm6ebbrrJgkCSJGkoWBCow3jxxRcXypXAUIqCYOPqTyVJkjQEFgTqMCLBnyXiqYjHP/roo/+++eab38TPd37xxRc9vvrqqx78/P7773/26quv/sB9oiZYpvpTSZIkDYEFgTqqJSI+iNg14riIwyN2jvg8YqUISZIkDQULAnVk90WkiAERfauf74mQJEnSULIgUEe2fARFQIl+EV0jJEmSNJQsCNSRjRRxb0QpCB6PkCRJ0jCwIFBHt0ZEKQjW4heSJEkaehYEqgf/iXgighEDSZIkDQMLAnV0FAFXRPw735Kk4WfviIsixs+3JKlOWRCoI5sm4v6IMmWIz/NfIiTpz+gUcUZEaVteiJg7QpLqkgWBOiouOvZ2RNpzzz1Tt27dyoH7vYjVIyTpj5g/ggUK0l//+td0wgknpE6dOtG2fB3xtwhJqjsWBOqIjonoN8EEE6TLL788FRdffHGaaKKJOHAPjNg3YuQISRpaG0R8O+qoo6YDDzywallSuvvuu9O0005bOh2YQjRuhCTVDQsCdSSTRVwVkeabb7709NNPV4fr/3nttdfSAgssUA7cd0VMGiFJLRk74vSINNVUU6U777yzalH+58MPP0zrr79+aVsejXAKkaS6YUGgjmKVCKYDpZ133jl9++231WH6//ruu+/SVlttVQ7c70R4sTJJQzJ9RPeItOSSS6YPPvigakn+r/79+6fDDjssMYIQ9+8ZsV2EJHV4FgTqCLpF/NS5c+d02mmnVYfm33fJJZekMcYYgwN374j9eSBJqrFxxMcR6ZBDDkm//PJL1Xq07I477kgzzjhj6XQ4KYIRBknqsCwI1J4xReiGiDT//POn5557rjocD73HH388Ty/iMSJYnnSSCEmNbZSIUyLSFFNMkW688caqxRh6TCFaddVVS9vybMRcEZLUIVkQqL1aNOLViLTuuuumL774ojoMDzumEG2zzTblwP1KxFIRkhrTHBF3R6QVV1wxvfnmm1VLMeyYQsTJx9UUos8i1ouQpA7HgkDt0V4ReYrQBRdcUB16/zyWD+zSpQsH7j4Ru/JEkhoKqwj1ikj77LNP6tevX9U6/Dl33XVXHmngcSPOiRg9QpI6DAsCtSfjRVwekWaZZZb08MMPV4fb4eeJJ55Ic8wxRzlw/yvCKURS/Rsr4qiIXyebbLJ01VVXVS3C8MNIwworrFDalnsiZoiQpA7BgkDtxbIRL0bkFYK+/PLL6jA7/DH9iAsO8VwRb0UsHCGpPk0Z8WBEXkXovffeq1qC4a9v377pgAMOKG0LU4j+GiFJ7Z4FgdqDHSL6jTbaaOkf//hHdWgd8c4444w0+uijc+D+JmInNkRSXVkzgqWHf3e54uGJFc6mnHLKUhgcHuFFEiW1axYEaktM17k4Is0111wjZIrQ73nsscfSrLPOWg7cV0aMEyGp42OK0EDOG7r22murb3zreeutt9LSSy9d2pb7I2aNkKR2yYJAbYUl+l6KSGuttVb6+uuvq8No6/v444/TJptsUg7cT0YsFiGpY5o24uaItPjiizd7RfPW0qdPn7THHnuUtuXTCC6wKEntjgWB2gLTc74da6yx0sknn5yX7msPjj/++DTKKKNw4P4lYhs2VFKHskbE+xFp1113zQl5e8AIxSSTTELb8mvECRGc5CxJ7YYFgVoTB8HzI9Lkk0+eHnjggepw2X6wfODMM89cevTOjOgSIal9Y47+fhH9xx9//HTeeedV3+j247XXXssjFrGNBNdB4MKLktQuWBCotcwf8XhE2nDDDUfoSh9/1meffZZWWWWVcuB+IcIrkErt11QRd0SkhRZaKL366qvVN7n96dWrV+0UovcivJCZpHbBgkCtYcuIryLSYYcdVh0a2zcuWHT00UeXKURfRmwaIal94arjeRWhv/3tb622itCf9c9//jONO+64tC0DI/aNkKQ2ZUGgEalzxGkReRoO03E6mvvuuy9NNdVUpUfvogjn/krtA8t5/kxiffnll1ff2I7jueeey9dFiNdA3BYxfYQktQkLAo0oc0c8EZFWWmml9OGHH1aHwY6nR48eac011ywH7ociZo+Q1DYmjbg6Ii9XzNXHO6qff/45bbnllqVteTeia4QktToLAo0IG0V8w4XGjjjiiDz9pqNjJSRey8gjj8yB+9uIbXmhklrVchGvRaQddtghz8mvB0whmmCCCWhb+kQcGOGFzCS1KgsCDU9jRPB5GsgSe3fffXd1uKsfN9xwQ+0UomMinEIktQ6uaP7T2GOP3apXNG8tTCGabbbZStvCsXnCCElqFRYEGl5minggIq244op5mk29ev/999Oqq65aDtxPR8wZIWnEmDjiiog077zztumFxka0r776Km2//falbXkjghERSRrhLAg0PPw1gqtwpoMPPjj17du3OrzVL17jnnvuWQ7cH0esFSFp+Fo04pWItM4666Qvvvii+gbWt3PPPTeNOeaYtC19I/aPkKQRyoJAf8boEYdF5Gk0V111VXU4axx33HFHmmKKKUphcGrEaBGS/rydI3pxRfNzzjmn+sY1ju7du6f555+/tC2XRUwRIUkjhAWB/qgZI+6PSMsuu2xdTxH6PS+//HJabLHFyoH7rogZIiT9MeNHXBORZplllvTggw9W37TG07t377TFFluUtoVViJaIkKThzoJAf8QaEV+w4s4uu+ySfvnll+rw1bj69OmTDjzwwHLgZgrRBhGShg1ThDgvJ22++ebpyy+/rL5hje2UU05J44wzDm1L74huEZI0XFkQaFgwRejIiH4skXfttddWhysVl1xySZpoook4cA+IYDrVqBGSfh+J7o+jjz56Xa4i9Gc99dRTaaaZZiqdDldGjB0hScOFBYGG1tQR90akrl27pldffbU6TKmpt956Ky2zzDLlwM0UopkjJDVvvIgzIvKym/fff3/1TVJTXOBx4403Lm3LsxGMqEjSn2ZBoKGxZsTbEXllHea1qmVcgXTHHXcsB+7PIlaKkDS4uSL+E5HWWGON9Pnnn1ffILXktNNOKxdJ7BWxU4Qk/SkWBPo9R0SkiSeeOF122WXV4UhDi2lVXKQt9uGvEUy3chUiaZDNIr7q1KlTOuqoo6pvjIbWnXfemeaYY47S6XBBxAQRkvSHWBBoSFgp54aItOSSS6YXXnihOgxpWLEK0QILLFAO3HdHTBYhNaoxI0hg0+STT57uvffe6puiYcVJ1xtssEFpW56JWDhCkoaZBYGas3TEJxF52stPP/1UHX70R33//fdpjz32KAfutyJYqUlqNHNEPByRLzTWyMsVDy8DBgxIxx57bLmQGasQbR0hScPEgkC1Ro7YL6J3ly5d0oUXXlgdcjS8sE+50FLsY6YQ7RMhNYqtIr6MSIceemhOZDX8cL2GGWaYoXQ6cFwfN0KShooFgQrmn/J5SHPOOWd66aWXqsOMhrdnn3229kJmXIBpqgipXnWKOCEiTT/99OmWW26pvgka3liFiJOz2dcRL0TMFiFJv8uCQFg24uWItMMOO6QvvviiOrxoROnVq1fadNNNy4GbKURdI6R6M1/EoxFpxRVXTO+99171DdCI0r9//3T88ceXtoUVzraNkKQWWRBo/4h+TGM5//zzq0OKWgtTiLjIW7wHv0TsyRsi1Ym1Ir5kecwDDjjAKUKt7Pbbb09TTz11KQxOieDCkpLULAuCxsVKN5dFpPnnnz917969OoyotT3zzDP5gky8FxHXV++N1FGNFcGFxgZMNdVUThFqQ4zIrLnmmqVteTCC6z5I0v9hQdCYlol4NyJtscUW6bvvvqsOH2or33zzTdpuu+3KgfvViCUipI5myoh8RfOll146vfPOO9UnXG3l119/TXvttVe5kFnPiPUiJGkwFgSNZ4eIH1mijqtdqn0555xz0hhjjMGB+4eIA3jDpA5i44gPI/IUIa9o3r7cdtttZQrRwIjjIzjZW5IyC4LGwSpC+UJjc801V3r66aerw4Tam8ceeyzNM888ZbTg4uq9k9qrkSIOiUgTTTSRVzRvx95+++20zDLLlLale8TMEZJkQdAguHrlsxFpww03TJ999ll1eFB79dVXX9WuQsQKUE4hUntEQvnbFKHXXnut+gSrverTp086+OCDS9vCiM46EZIaHD3GZw76UXVqj4jeTEM566yzqkOCOgqWDxx77LE5cP8UsQVvqNROrBiRr2i+0047pb59+1afWnUEN9xwQ5p88slLYcBJ4KNFSKpnAwcOHDNijmiw541/565izqWWWurBFVdc8Xp+rn43T/Wvcws7PqaZUOylGWecMd11113VYUAdDVOIaq5AyspQXSKktsLylUdG/DrxxBOna665pvqkqqN5/fXX0/LLL1/altsipo+QVK+qJP+TiB8jfiCiLegV//4a0a/6md+X/5+p+lN1TEwR4iqVaeONN05ffvllbvzVcTHNa5111ikHbqZ/zR0htbZJI+6LSAsvvHB69dVXq0+oOqqff/457b333qVt+Txi3QhJ9SgS/Pm6d+/+Mz2NjzzySHr44Yfz2ufPP/98vl1+x1r0P/30E23ErNWfquPZKqJnp06d0qGHHurFgOpIfI/TiSeeWJYP/CZie95wqZWsHvF2RNpll13y1bZVPy699NI0ySST0Lb0jdgvYtQISfUkvuvzHnHEEb122223tOuuu6aDDjoorbzyynlFCNYnJmjg+ZcLmUTiMUv1p+o4mEZyQUSaeeaZ06OPPjqolVfdufPOO/N7zHsdcU7E2BHSiHRoROrSpUv617/+VX0SVW/eeOONtNhii5W25YGIv0RIqhfxPZ834rfunJdeeilNP/30aZtttkn333///+lFtiDocLj65HMRabXVVkv//e9/q3dS9eqTTz5J6667bjlwPx7BNDFpeJsm4pqItMgii6Snnnqq+gSqXjHys+OOO5a2hRGhFSIk1YP4jueCgCkHTCNZdNFF84VjWIJyjz32SIsvvvhgl5e3IOhQto34atRRR00nnHBC9Q6qEfB9PvLII9Poo4/OgZtViDbnAyENJ10j3ovInUfMNVfjuPLKK9N4441H2zIggpPIJXV0zz333PyXXHLJ90sssUSeKvThhx/m8wXWXnvt/MW/6aab0vzzz5/XPWcdaQuCDoGVoM6NSFNNNVW644478nupxsMKUtNOO23p0Ts9YvwI6Y8aJWKfiN4TTDBBOvvss6tPmhoN5xrWTCFimfIpIiR1VH//+98X7Nq16w833nhj9TVPeXWIY445pro1yM4775zXqrcgaPfmjXgwIhd1FHhqbJ9++mladdVVy4GbVYhmiJCG1XgR10ekOeecM73wwgvVJ0yNqnfv3qlbt26lbWHEiJPLJXVE8Z3OU4YuuuiitPnmm6ctttgibbnllmnrrbf+7TZDwpxQDAuCdo2rSrLCTNp///1dRUi/+eWXX9Jhhx1WViH6KMIpRBoWS0e8GpH+9re/eUVzDea8884rU4j6R3DBS0kdTXyX5/311197cRIiVz69/PLL02WXXfbbvwRXLLz22mvzF9+CoF0aK+LEiDw95Pbbb8/vldTUbbfdliabbLLSo3dShPR79o7ozXLF5557bvVJkgbHUuULLbRQaVtujnAVIqkjie/xvD/99FMvpgT168d1yP6vFVdcMV199dX5ZwuCdoerRz4ckU8A79GjR36fpCHhCqQ1U4i4kNScEVJTE0dw9et8HhnXo5FawipEzCrgMxPBKkQLRUjqCOI7PG+fPn16MQxM7+Fzzz2Xnn322d+C2/PNN1+64YYb8hfegqBd2SDiI6aBHHLIIa70oaHGdLL99tuvHLi/ilg/QiqYIvRSRJ46+t1331WfHOn3XXDBBfm6FPH5YYWz/SMktXfx3c1ThtZYY420+uqrp0022ST99a9//S24PdZYY+XVhmBB0C6wihBThAZOPPHE6brrrsvvjTSsrr/++jTFFFNw4B4YcVzEmBFqbNtF9Bl77LHTySefXH1SpGHDaoWzzTZb6XS4NMIVzqT2LL638/br168XF5Xp27fvoG9yEyxd+P777+efLQjaHCvE3BWRVllllfTWW2/l90X6o/hud+3atRy4H41gGpoaz7gRJG5plllmyQmd9Gd88cUX+SR0PlMRL0csEyGpPYoEf8HquztU4v6zV3+q1rdhBCvEpL///e955RhpeGD5wL333rscuD+MWCNCjYPzSF6MSOuss05eqlYaXrgwZnWRxB8jdoyQ1N5Egj9pxL4Rh9bG2Wef/cY///nPZ5v+PmLC6k/VergY0MERecWncoK3NLxxrtAkk0xSCgNXIWoMJGjfcEXzU045pfokSMPX448/nuaZZ57StjASxUnrkjqAayNOHfSj2tB0EawEk68KyQox0oj00ksvJa5czmcuguUD+Qyq/jBF6KyINNNMM+WpodKI9OWXX6b111+/tC1MIVowQlI7d0vEeYN+VBthpY93I9Iuu+ziFCG1Gj5rTEvjsxfxccRaEaof80c8GZE23HDD9Pnnn1fvvDTinXXWWXmxkvj8/RCxQ4SkdsyCoG0dHdGXpduuuuqqqhmVWhdXMJ9wwgk5cPeL4AJVo0WoY9sy4jsuNMbVq/v371+921Lr4boW008/fel0uCKic4SkdsiCoG1MFsF0rbTooovm60BIbYlpanwW+UxG3BExVYQ6nrEjTovIidj9999fvcNS2/jkk0/SRhttVNqWJyIWiJDUzlgQtL5VI96JSDvttFP64Ycfqmbz/6Ih/eyzz6pbzevZs2f65ptvqluDfPDBB/lqkk1xUbNy8aGBAwem9957L1+86s/i6tfMSR/eF01j29gHv/76a/WbltEL+s477wx2/59++in9+OOP1a3BsW+5fy3u/+abb1a3/oflelmlp+A1/957M6J9++23eXuHFz5LNcsHvhWxfIQ6jjkino9Iq622Wm4HhoR2h+UiW8J9mk4z4jPSXNvC72svbPbxxx+n77//vrr15/Ad/eqrr6pbw89HH300xLahOXzf+vTpU91KeZuG9Bp53Lfffru69T+0k03bM9rNpu9FW7ctvJe8p8PTscceW9qW7yK2iZDUjlgQtK6/RwxkesY555xTNZP/w/UG7rjjjupWSltvvXXacccdq1sp3XrrrenDDz+sbg3yzDPPpBVWWOG3A9sbb7yRll9++f9zACWBZR7x3XffXf0mpV133TUvQ9nUtddem5eQ44JFNOInnXRSOvHEE9Nxxx2Xf3f88cenRx55pLr3oAPr3HPP3Wyi0NSLL76YjjnmmPz4//jHP34LHpPnqj3pkWSXBLUkL1yped999x0s+NtybQ1WuFhrrbXyz2CfcHIb+6Q5r732Wt5XJC8FRdqRRx5Z3fof5tofddRROUHiYH3ffffli/pxm2D72Mfgfdpqq63S9ttvP1hst912+f0syz2yvQcffHB+XQT7hec48MAD06GHHpp/x//feOON+f5N7b777vmiY81hP/P3vBYek3172mmn5Z8JHveyyy6r7j24K664Io033ngcuPtGsPKV2r+NIj4eaaSR8vvbtNDn88n7Wtx88835+1MwtePJJ5+sbg1CG7Lyyiv/9nklcV1ppZXy96YpPu88b3HmmWfma6iU70Txyiuv5O867QjtCe0A7Qufff7lNttWizaARPr3vPvuu3kbatuV2rblyiuvrO45yMYbb5z+/e9/55/5/9p2ZZ999smrMZW2hTaOpVpr9yu3h/Qd4sTaZZddNj322GPVb1I677zzck85nTG1rrnmmvwaS1vy6quvpk033TRfO6T8rpxb9uCDD6bNNtus2bZl2223zdsJisHSfvDvEUcckffF/vvvP1jbcumll+b7N8UVznm85tDO834dfvjheX8fffTR+f1mH3Kb3/PeNnfl6zvvvDPNPPPMpTA4IaJLhKR2wIKgdUwdcUNEmn/++XOy1hwOAFz1sTTSJJwUBeBgPs000+SCgIPNGWeckU4//fQcf/nLX/JBgd8tvvji+QJUHHxIAGmAwYFirrnmygd+DlIko5dcckm+OBFXQX700UfTs88+mw9WJAEcPLjfUkstlZ5++um8VCW/53ccVEhGC7ZpsskmywcaDqJNg4P/Aw88kO/LQYMrY7/wwgvpiSee+C2ef/75fCAhgQcHYg6EFDEk7P/973/TAQcckPbYY4+055575mAbODBxX14X+3bVVVfNB2mSA6bBsM85OJ177rnpwgsvzPuYx+PAxbYttNBCOZnhPmw/02ZICHhckn6wT9hmkpW99torJ+ybb7553nccONkfbE/pkaV4IEiwuBhgiTKfltcK/uUxeZ/YNl4P28tz8Bp4P0mS7rnnnnz/pkhohnQF64ceeijvO7ab4L3jitf8Dbf5Pw7kQ8K2L7DAAuXAfWPE5BFqfzjf4+yINPXUUw/WoVCL3t4ll1wyJ4GgyCzfYRL8Kaec8rfOgn/961/5M8lJoQsvvHDaYIMNcsLHle5nmGGG/H/ExRdfnEflGDkj+aeNoh2hbbn99ttze8PnmDaDzz/fIx6T7zC/42/OP//8/PMcc8yR7r333vx5Z3SjIBHmfnzPmrYrJdgOUBzTRvJcfH5L28KUTNozEnTQXtDJwFX7KT54Dgpn9kdpW+gs4bvJfelQoF2ijeO5SNgZGaCt5r60LQRtDvuD9o4OFP6G5ygFCd8nFo7gZ9regt9xH9oR2jhuzzrrrLkNKW3tf/7zn3xftok2uWnbwm2KDfY/GFnlPTr11FPzsYD9xDUC1l133Xx8oUOKfd20+Cp23nnnXJQ05+uvv05bbLHFb20Jj8lytrS93Ob3tKkcp5rDtvEe85mNeCrC6x5J7YAFwYi3RMR7EbnHpaUpQqDHn8SNYXJ6q3fbbbfc4E811VS/JdUkyjT2Z599dj4QcSC+4IILcqNPQ//Pf/7zt0ST3mqQbPN4HKDZDhJaio1tttkmbbnllrmHiUSU4WwOZhyY+HsOSvRI0bPN//M7RhVqe9sYGufgyOPR09U0OEiUnrTSO9gcer840ID90K1btzTjjDPm5/69K6pysF1kkUXy62J5RRIAXvOCCy6Yt4sD1BhjjJH3C+8BiQIHUXosOejSa8Xtl19+ORdG/MyUKpDgcNAjoeH39OhRUPCc/ExQcJWePwoLkgGSKF4rwXvDNvE8PEdT/I4DPUUG9+cxa9ErR1HE81DQEGuuuWZ+/xmx4PcExVlz04j4/ZAO8EPCCAuJAZ/diNcjVo5Q+zFbxD0ROcFqOv2tKT7PfP4YhaPYpTjgb0g+L7/88nwfPsO0HyTutCV8bznpvHRAUCzwHSLRJJmnx5zzFFZcccWcXNKO0J4QfG/5PtNZUVZQ43tMEk07QnvCfWiX+H8+9xTbtD8Fn9t55503f6+ba1t4njLSwfMvt9xy+eem+N6WzgYKEEYAKB7WXnvt3O60hG3ie8nz0enAbUZR2S7aT9oW2j/2CfuPtovno+OHxJ+iiudglINOAP6vjHiQXDPSwGgMbRHXnyGBp6OCfc3z8DdlZIL3hW3gvShtC8H7w3vAczfFlFLaYN5n7kebUUYcQNFT2g+C4wv7db311ss/17YttdMmC4ogir9hudAdI0eMWtAmx+f3m4hNIyS1IQuCEWekiP0ifhhnnHFyD/DQokeepJWDIAdYep5Kz09BLwsH5jJkS68TPVkcOJgewPA+iT//0mDTs8dBF/RwNUWSQCJJDzoJMok7PUgcPOacc848FYef+R296TTm5dyFm266KR/khwZJBL3kHIh5zBIcFDmokDwUHAg5EHPwIJlheJ9gX9DbXm6THJMIsN9AQsMoCT2itec1kNRz8MRBBx2UCx0O8rw+nocDOwkMwb4viTsJC8UFeB4em+Sa+5QDbUmoQIJCIk0BR68rQS//LbfckhOy2hEiDrAkZiQU9PazXzjo8/iMVpQpDSQ7pYAjeG8pEun5Z5/xu5IklRGIWoxeDGtBUFB4jjvuuBy4WYVorwi1Pa5oTiKVi/emU3OGhM807cltt92Wk2K+O02vTUD7QQFb27aUzoiS9JG08rfgM8jnDhTaTaeK0HlA4UHiSbvCY5a2he8Pf1/altJTTlEOHo+ifmjwOlixjUK5advClMYy8kDSzrkA/I62hJ7s2raFKLdJiPnul2l79NTTTtAG1F4vhsSfZBu8htK20AbR9jZtW0obTBvONoLvN+1AaVv4l79lhKbgfeG5KcJoU0rbwm3uV9txwuukLaFt4ztMwcJ+ppNpvvnmy4UeSPZL20E7ssMOO+S/oWOFn0ubw/+X96UW7yv7snwehgXbP8UUU5ROB66XMWaEpDZgQTBicDGgvIoQV20sierv4cDJwZDpKgxhM8TN+QHc5uBM40xCDRp2DgAcqEjIObDSs8YUIYZsKRhI4kjaGSJmW8p0AQ4oDOkXHKwnmGCC3APEUDjTTUhw6YXiIMfBgaHv0kvI43GgLsk2oxNMVyCZrQ0OxARD3qVHisfggE3SzkG0Nki8OfAUbAPbzYGegxkHR7aF18WVdknE+R29aDxmWa2JYX2Sf3o3a+ff8zsOjOC+HDzpkWMUggSJ2/QekhBwjgT7gn3DNvAegOSFbWF6A/uanlZGMng9BT8zJYeRAnoTS5CAcc4CvYLg9dF7yIGffQ8SiDJHm9dBgsD0BYo6ij2Cnwm2m20pvy/B41OUsN8Z4aFYI8HgAE8yUKY0USDy3g0N9hc9k+yLiMsjWClLrW/0iMMi+lMQ8tkfGny+aVso5EnwSViZikM7Q4LONB6m5YDvDN8r2hWCzwxtEW0K7Qz4e4oLRi9jW/J3F3RgNO38IKEvI4r0YDP6xegZbQHfE9o4fmbUgHaA4qOcVEvhz3QUvt9N2xeC52O7wGvkM95c28J3oSTeYNSvc+fOv01FopOCtoWCgg4cvndMxWQKFu0qxTzoxee7RI9/7Sge206bDHr/aUdoI9genp/2srZtoWjiJGU6CHhtoO3ju1raFvYDRQJtaMFrXGaZZXJbTiFY2hZu076VfUH7TocC9y3HH9qjMoWU7WEUgmlgFIC17QeFBM/LCAFq/48CiectbQvBKA/nxTGqwPbzOzpEhrZtoY1lH/A5ing4wilEUhuwIBj+lol4ISL3CtHYDi16izlQlIMF03fo+eNnfkdCWXqLOMjQW83BnR57Gn6SdXqLOFhzQOWARq8NB01638sBnwMIJ5UV/A29Z6WXkefiXAQOIPTa0UNG0kBvFgkEc0U5OBT0MLE9JNtMM6gNkll6gMpUKabNkMQ2hwMlPWgg4SX54MrNTKWhp4t50DwOyTkH4/KYHMC46i4HThIbtp39Qs8VRUM5CFIoUSQwFE/CzH1IwOndYq12DqolGEEgEaC3j+fntYMkiv1BUcTj8C8HzzJCwP6hJ40DI/uPx+Vv+ZnH5fVxAGWbSLxInpgOxHtM7yuPzZQCDrxsPwkI+4v9UYvPCu9vSSZq8Vi8Nh6LBJD3jqKFedpsB9vI7/n/pidatoT9z3ktfLYj3oxYKEKtZ/qIRyPyZ5JEamg1bVsYDeTzVdoWEt5pp50235ckmM8W3zPaFr5XJI58Psv3k1EperlpH0joSRDB94AOh4ICgMS0fFdBu8j3g+8Xn006O/iO8Fx832tX52H7mBLZtG3hNn9DhwuLMYDznCi4m8N2lClDoJ2YdNJJf0uuGTGgA4DXQ/tIRwrfOdoWvjM8Ln/DvigLMfAeUNiAooLOBXrq+X/2He0wJ+dzu3z/S9CW8/2jreA2GPWjbahtW2izODcAvGbaGu7D4xE8L99nfub3tPXsH9p09g/tCPue4wGPSQcGv+PzwL9sP//W4rjD9EuKldoRVtDZUKZjlraF4wodNHQwcPuPtC0cT3gNfLYjPonYLEJSK7IgGL64GuMvzIukx2hY0fgyl3RIQZLKAQH0HnNwIsHlwEHvVykI6MHiAECvPVOASNhLrw3oHZp99tlzQgB66TgoF2XeLj1tJK70NtEzRaLAAZ+VRkhiOWCSWDRdRq8Wvd0k6GW5Pg5WJAgcdEkKStDrRNLBAQ0c3DmAc5AhEaHnix4rDv4UB/RcklhwcjIoCCg+2Gb2S5lXTNJNLx3TAnhsXgtFGvuHIXN6WdlG9hOvm3+ZnlT2WzmQcoADBQFJful55P/YDvYLyQPvEckSvWUkSTwnPfn8ngM3SQ89teXcDoqgiSaaKE033XQ5eF+4Pz2W/L5M82qKgz3FIVG74tOQ8NpIUIYHpouMPfbYHLh7Rewe0e7EezFhxCURV0Zc8TtxdcRK1Z+2V2tE/Dcif36aO0+kJXxHm2tTSlAQkFyD70jp2aZ9oeeaEUK+h3yuweeaUSOKRIrz8r3lNgVCOf+G7zs9+bVobyi0GfmjXSF4Tr7z9FqXaSmlaBkS2h/aQ7YftE90PpCAc35CaVvYX2wD7Qvoqac3nd+xDRQCjHDQI0/7QTFNckqCDzpPGMWjvaCNIcAICc9HYcQIB+1wKeyZbsRJyLwuputx/k9pW0r7QtvCY7CNoCBgFJg2pbQtFAOlIOCYQptC+8I2UOSPMsoouaigbaEIoZ0pRQrtAkUPhR5tyyzVNCB+Ztv4u+YwQkxRR3tRRqRbwvtApwqv589iaiTbx+c84vgIL5IotRILguFj0ohLI/J8dIa5/wiGk0k2hxSMCJQDLwcnemuZMkBQBFAQcAAiSaRxJtnlQAR6t0pBUEYAGEqORCgf7GvnhpIIUxDQg0fhwdAvwXPyHPSWkWBwYKXXmdEHDgi1we9J4EncSQB4HtCjxQGNefQ8fwlukySUgxSFCPNLuS8HHA7cpfePpJqDN49VeiyZ0lBeA0P35aANeqroJeNgyzaDgzbTIki86YUrCQLbzGgJCUXB6iWlF4/REQoSDvgM7TN1gIM0iURBzy37u+CxKRh4HKL288GBn/uSNJTEofzMwZ0pSk0xB5xEhGSC8w6YdlQ7YtMcRhp4H2rXUf8zSDYoXPjMR3AF0nEi2o34vE1TbepQifvvU/1pezNqxMkRA1lsYEjLzP4ePk/NtSklKGqZEgYSdL6/pW3h88l3gtHGkpzSDjFdCHxXS0cFONmedgIU9bQBtfgckmTznSltCyNlfG/5Wz7XtC/0wLMdTdsW2hvaL9oEktYyskkySbtFO8CIQGlb6DQgmS6FSZmSQ9vB1CFeF89LJwffbUYJ+I4yegD2D48NHqv2u81rY9/SK04CDwoMto/pR+wv9gGdFLQDpZ3hb8B3mSlZYJ/SkUFCzjayDRQJ/E3B95zOlILvIIVAaVto/wsKdzowSntC21LaF9pPjh9N2w2ODRzDKBDpfKGIKNMZh4RRA96nIS3vPKx69OiRT5COzzxxX4RTiIaz2M2jRIw6FDFaxMjVn6nOWRD8efNHvBKRD3T0EI0o9EKVHjqSc5JXDtj0ZJHUkiBzMKS3nx5xlhIsBx6S1lIQgIMxownMd6VHrxbJMgcFEmh622qDx+BgxzkBDDvz9xzAS3BQoEHnXw4kHNhqn5fh5nJib1O1qwyBx+f1UtyQ8JeDHb3jHNA5gDPXl4M0B76yWgiPX1sQFLweEmOSeQ509H7RU8droGhg7jAJAsUJr6GgB5QeQ5Cgsy1sJ0UYwcGw9CaCooZRkIKeSab98Hz0mJbkAhQEpUevKf6P11WL94ae3LI9HNBJOkjY6J0dEooU7je8CgIw0kIiyWc/4pkIVtRqFyLBnzq+I7+UJIwimfesLE3Ld7UkZyQ+cf/dqj8d0caLGGXQj7+L5Ypvj8ifOT67IwrfARJt8D3j+0ERS/tC7zn7jMSvjCRSqJeCgAKitiDge0iiTO/+0ksv/ds5MwX7nemATdsWEm2+S+V1ctJubfvCbRJoLhzI95PvMfulYIRhSKsMsa21U4ZA+0nSTU87U11AG1tGAym0eW20J+wLUAjXFgQFbRwJOdvIa6D9KW0L7QntAcU7twk6OcD0qDLdin3Ke1DaFv7lfSBxLyhWmJ5D0QE6NZh+xPGAgopRinK+Fm1N7ftSi7aC727ZDtBpwv4rIymgcGP6WJmW1RxWI+N4UXuS9Z9FkUdxNPLII9O2fB3BCJmGg9i9naO96x7x2lDGztWfqs5ZEPw53SK+ZYpQObnzj6IxptempSDRLA08By568Auen6Fx0ECzGgZTTkrvDr1QzDHl4MRBjZ4zTqKlB4rkqPZEWg66zL3nMUmU6fkirrjiityDRs9d03mnBcP8jDCwDRQlTGUqB1hwkGK5P35fGyRmJPe1JxXzGLxmpv2w/fRecSDj4FuSahJjtpMDGdMNOHjSa8a+oJeR5IHtoGhgGJxto1eR/UexxEGbXjOm8Iw//vg58eB2STxAQcCUJp6bYojkgW0iAShTl3gvOIhdddVVuWeRJINknvsxz5/nZV4yyRHPWQoO9i/JfOkhZf8QFGwkTuUcAfYr0zfYd+V9LkjySXiZGsCITu3QPc/L85GMUPiV3tThiZGdTp06ceD+IWInvhhtLQ5iU8f7/gsJF98BgiSU5IaElc8vPcP8P4lr3L+1CoJZI+6I4IrlLVk34qOIPKVkWKcINcX3vbk2pQRJL73vaJpYMxWnrPRD+8D3kM9mGZHju8P3lqKTNoTeec6D4XPKd4F2hsSb/c13ks80o198V0rbwmebpJZtoC2K9yM/di2mVPK9oSOA7eA7WXrxwXYylY2EtmnbwlQ8pjrW4jtDLzqJN9vGY9JGlik8FPm0d0zH4e8pqNkPdCyA7xV/R3vBiB0jFqUzgvaDqUH8H/9SGPH/3ObvyueOfcb9af8pWHhs2hTaFto42mbeC763tOnM7acgoQ3mPowaMZJK20T7QpvGc4MOBUZMaFtKu0LQMUG7yWNzzCKYRsp0Ijo86IgpyrQsnof9wLYXdH7xXHwOKFKau8L7n0X7yXEsvgescHZcRKcI/Qnx/R0vjoe/sBpdCYpUOvE4TjIVsPy+ahvZ72oAFgR/DEujXRaRp5xwEPyzSFo5mAwpODAxZYaDF7hNIgZ67ThQlBV06FnhQMnBpfQIcxChp4+DNL19HDRLcCDiX4a1SZRJcFmWjvnr9D4xfYagF4/eLE7Epee+XLirFvuCbeGgz4GMA3ztQYSklwMxCUBt0APHgZFEuuAgSUFQElySZLaTwqH24EPywEGfnnYObLx+RhFozHgtTIniQE5RUXrEOJDR087rpNeYnjnmrnIA5Xf8X+l9JNFg/7Ev6AljP/H6KSz4l+FtToak8KEnkGQIbC+PxYGWfUHwmPyOgyvogSW54iBNcsL+IbhNccO+AkkaJyiW97g5TFugV7P2pEw+O2wb+2xI5yMMD0zFYp/xnYigTaEnvM3EZ2LyiNxVSmFJ7ysFIckNCR9zwsuKLIj7tmYv2JUR7Kd7I5bnFzVYrpilXQewckuZhvJn8P3gO0bvctN2heB7Q1vBZwQkpBSPJIoUuiSJ5fPK/bnNZ5n9CkYUSKT5zPJ/pV2h0OV7yfePNob9zmeQ833oiKhtWwj+n7aD+zJ62RSFAt8dHpfH56TXMgUQjBryPaaXvGnbwjlUJMC1GFUlmQZFIt9Dvt88Ti3aWaYNMXpIQs33DLRV7Cc+V+yP2gUk+N6yLWxvaQNoC2lr+J7QPlOkUlAwBYj2iraH/VfaFtou2gtGHJgWxPPQDoA2iXaHDgL2J9vBfXkMRhdABw77k/eltCulbeH9LPejiGCkgWND7YhBLTpFGK0o5z6B9532jjaH0ZY/W7QOCW09HTHxnSC47sYkEfqDoj0Ye+edd/6mfE/5vlEsjzbaaDnH4HvC7/kdhULcn1XN1AAsCIbdwhFPjzTSSLnHsfTAtwYSvbLOdG1PED009Pxz4AfDu02vNcCJs81df6ApeofoaaI3rvRo1wa/K/cZ0gGARKHct+moCT2z9DA2h97DMsUJHJzoEeT3KD1Szf1909+Vv2H4nIKinHhYsF28DoLt5bVQQJTb5f/Aa6GXjwKFx6MnkW0pwf0JnqfpPFpeA0UZf1OCxy37hf3B4zeH11SmT/D4TV9Dc8pnoKBnkWlGFJwjGq+fYqka5melrcUjKJ5bO8aI78NMsZ9/oSgjMSNhpReVnmzeS04cJUljtIf3ND7vJOFjNHmcERE8xwIRP0eUJIcliueImDHibn5HksfBuLXw2WZ6DPhMMqIAeqUpssvnigSW35XvBkiE+d3vKYsm8Ld8b/i5tCsl+B7yf0NqW/g97yN/23S0i7+r7XyoxfY3/T9650u7weuvvV2r9rWiJM18bvhe1Y7IFWwnf1faEtoAflfbttAGsE/4PPJ7fmY7SrtCcD+eh33T3GujzeJvy6hJuT8oeHnsISkdB2wbj/97mhYL7H9eP+3LiMZrpKOHk6jj+9EjYp2IsSJa4ztbV3H11VdPGt+H3+aX8v5R2FGkllkCteLzdEz8XVvsZ89daGUWBMOGAzlDl7n3RtL/RdLNdyRiYMRTEU9W/7ZWPDHllFO+sNxyyw2gl4spLEXtKAnTN+jZJdE45phjPoi/697kcUZEsC9YOrS2ICAGRPzIz0wvGVJPrdTIGK2p+c48H/FERHPfM6P5eHKCCSZ4NgqC3GPGCCSjSsw8YMSLEUBG0xkRKk477bSP4+9ao22sjf9EUPSpFVkQDJsuEQdF/MwJu0zxkPQ/TNdgnn58R36KYOWeedoiNttss5Veeumlvkwp4eDGSjZMjSH5Z7od312ma9FLynkWL774IkscNvtYIyCWjvg+oiQ2n0YcELFRxOfMx+ZkzjLdT9KgKWEkr9V3hqsazx3R3PfLaCGWWWaZJWJffse0XlbXYioeI0lMoQPnFDHVjOlrzDaIIEds9rFGYNwV0V5XfqtbFgR/zAoRb0XkOfUM7bYmhvCp5AumlXAiECcEMXQ/pO3h5LLa6w00h7m9Q3NOBMPbnCjINAPms9YGc0vZntpeTubeMq0JNDJMc2J7iXICU+00AebR8joLpnaU6VK1mAbFEnmcgMd8YOY/s03lZ07kq53byzzgMh+6YH75kKZT8Ro5AbIWJz8yFaUp5irXTvNg+8t5HvWOYWZGzfhORNDbzgX62kxs0kQDBw78hbnYnGTOHGuC+ezlZxJvzplB3HfH6k9bwx4R7KfPI46LYDWhgiUWGUXIB2Sm6LQHfGeZf17wfSltDt/r5qbagJNCy5K9Q8L8/jJdqSVMhyF5aa7N4XdN2xxWXeP7C6byle0tbQ7/MhWloIeU9qJgeWPai6aY085cetocznUobU75mcS1dooebV05UbngNZdpWU0xotV0n7EoAHP/m+K1l9WeUE7mridM/2TZWK5YHd+LbyLaxcIFHVXs0tG6du36de2iJLQznCdTi3MGOQcn2saDqz9tTRdE7DnoR7UWC4I/bvKImyLyyWIcXEY0egxJ+DnBjBPrONBQDFDZs+oE0x9YDaO2WKjFyhL8P724JLUEBxkO9gUnqdFQMJ+W3tPaKEuJgtV46AnmhDJO+CrB3GdOTuREOOb6Fpw4V/YRRVQ5EY/gZDimSZTtYH4w875rz8/gNZUejFpMT+F1sCIIqwxxMGb1EU6kpTDhREF6hAtOrGY+ecFSebx/7EfOeWAOL0gUSAY46LPKBckQCQUHYE7Ao4eZ/y/ncXDQ4pwSkgi2qZzEyrUg+JnfceJm0/MAmpt/SzLRdB4n51LUziGORvr/zF2mSCM5GJr53MMTRRD7m+9CxPURU0S0qdg/U1MQ8J6UpLApPlOcS4C4b2utMjRlxKsRZ0dMxy+aMXbECRH5O1Z7ImdrYz467y+fd06ULW0OhVZpc/iuDulkd743nKvBije1bQ7tR8HcZToqmrY3BMl3+dxTeLCaD9/zpm0O7Q1THWoLE9qZcnIy372yvQTtDUVhOUeH7z5/X3sOENtZVvmqReFLgkqSzmpsFAEk8GwDbQ7/TwdIwZV82V8FvbH0zPI95XnLd522hzaFDo7JJ588fz4pXGjTKGo5KZz/Lwsq0AbwntCu08aUNoeT0bfbbrvcuVPOmanVtMjkXAbe13LeFc9JO1JbLLUVRu9YKYrvQgSFstck+JPi89AlCudvKJg5MZ3vBe03J7vzM8HCIzWfmyOqP21N/4ywIGhlFgR/Die9HBrRn97G2rXoRwRO9mMFAA7AJJocSK+44orqfwfhQETvU3NI9BkKpHebAzTBQa92/WgaBVbbYTUMhmdrgxU4yoGNnqjaFYFq0SPPQZoT3Tixjd4xGhxWHCEh4ABET17T4AAHem0ZIaBw4bWwOhAHdBovDvKsSFIOuBz4WN2HpUcpkkj+eT4O5CQxFBssxQkOnKz4wT6kuCDRYRoJr5clBTnwcEDlxGb2NY/DFJOyvCH7hOemB44Ch+1i6USQSJB80rtX9i/bzMla3Oa1sD3sk4LtbnqdAYoOEqj777+/+s0grMhSu6oT+4XVIQqen9WfeJ/4e4qeEbHEaFO8NhKQ+A4QbdGT1KxSELCaUG2vby2KAQo4tGJBMFXEIoN+/F1bRnzDAga1S/e2Jopyvit89lnWlmSaz3Itlr8c0vYxasbf1rY5fA9qO1D43vLYzbU5tHWM6oA2h5PWm0MxTPFPQUDRTRJO0s0oC89HsttSm0NPKK+T18J3i3aG7y+vl+8533sSKJQVkminWJWF4oDeVAoMnou2p6wOxegiHQ60Lzw+qxmx/1jGk3aINpG2keKAAp/Hoc2hfaEt4m95rvI7Vjtj+hs4B4aVyEjmaePYt3zvKUxKm0OhVttxwGee56vFaA9tKwUAbTodHux77kdR1lbYVzUXP7wkYvwI/Umxa7vE5/4bjk18JjkGlmmU/Ezw/lOIViwIGoQFwfCxbMR7ETlBHdIKGcMLvdS1F97i+TgI0vBz4S8OIAWrC9FDSs8SvUkkjfyO3jZ6mjgoFvToc5Ci15oDJYl7bfC78to4CHFw5rEJrq5JMN2IIoWDCT1ePBbbQ48Xy9w1LWCa4sDNQZaDGT1VzP+ml49kmMfntXOwZbid7WUqEUUGvXRcqIhrFNArSULNMD49dzwW20ICzcGPXjlGCjhY0xNCbxj7j20lAeA2PaMk+1wngB47ehRJLkgY2CZeB3PQyzxvEpAytYhRBQ7OJBUcaNletqmMBtDrRSLA56Wsjc6+5eBNYsQVTmunbTEFjMehSKG3lG3mb8uSpOBzR7HGqiO8FgoftntEYX9SGLEdEW9HtKsLB8X+zAUBCRPvKZ+L0otKcHIxyWYZTYv7tlZBMKyYT8sJfXlpx6a9va2F7zsJacH3o7Q5Taci0q6UNocElZ53vnckvU0vXkUSStFGcst3oLk2h6lC4DvP97C0NSV4LqYm8b2gt53t4ntP0s0+G5qlWynMSarZTr7fTDksbQ4/UzBwPgptDlMO6ZDg+8X/UzCQUJHA0uawLCn357589thu2hzaP76nFDjM02Y76TxhlJWRBTDqQBHFY3M/krbS5tAW0e6UEQW2oyxuwTbS5lAwLL744vk1k+DxHGAVIdo/iktGWGqx7yhqaM/oaOK+tCOcaEqx1hYo1Lm+T3zuv4vYPELDSezeXBDQycVntjl0gtUcPywIGoQFwfAzUwQnwuSEtnZIfHjh4MPBl7X5Sbip5EmCqfJJMOm54uBb5siTrNLrRu8UySn/z9+SHJUDR+khBYUCByAOPiTYTYODWCkIOLhzICPZpye9BD1ZPAcHHQ6CBdNuSBTYJpIwhr+bBnPueY3sQ14XvX0kCyQGBQkEyS7JMckFc/QpCmjASMjpHaOnnuSF2zwuPXv0+tf2mvM7Emj+tha9e4wccD8O7PR8kkAyAsTjkfjwe0YbKL7ANk022WS/zftlpIFeaXr7mZLAuQ+MVJSpS2w3j8U283uQYPEeMUeaoqymdybvlzLNiSKJuZ705JWeU5CIUGgU9JaSEIwIvCY+J7xP1We+zacINRUHvFwQ0CPK2u189piSVoLbjCqVUb24b3stCMDFmM6PyFOI+G60FgoBRhH5bJJA8BkuVx+nzWFKCqOBtfORKXL5DPM3JMC0B3xeuU2CXL4HoM3hO0sC3bS9IVElKS8JMJ99RilpZ8p1Cwh61enNZ/tqz59iehHbSifDkNockny+p+xbpmbxPeR7VaYOFnxP6S2nYKDNYdpmaXPKCAA/0+5wTQEem9dG0V62iXaD108bQqFTMEWD7QTtMW0LRQYjb3Q0lDaHtoigDWY7Gdks1xIobQavhW2kzWGb6CwBBRd/y7ZxjKjFtTno/ODvKEgK2kja2tZEgUnbxfsRwSpCi0ZoOIrdnAsCPosUgkx7pT0sbSSfc467jhA0HguC4YspRKxC1H+CCSbIPTbDE9NCOFDSeNPTT9LJ7+gFYwieJJYep9o5qSTmtYliLRr82ulFzC3l4EBPUm1wUOPgP8444+QEARxIOcA3hx49DnLlxDoSMgoCDqoUKzwGU2s48DHKwG0OZCTiHAw40NE7wUGTHip6+At+z0VTSs88/5Isk/iRlJC8c2AmASBR4GfwWBw0Kag48JO0sx/pxeS1MeWAxIGeeIodek64H6MTJOC8nzw3vyvBbZIWiiB69WlcwWNzIC8HcZIHCrPa1wESUt5H1CYI7ANGQgoSgqYnJ5N4lNGFphihoKePJGB4oxeRfRGf8V8iOFCMGtHuxP6cptrkoRL337v60/Zsm4hvRh999PxZL3O+RyRGpPiM0zPNfHnefxIHvnN8T8qIVEmgGXGkqB7S9VkowPheFNyP6YHNtTm0ayTFpRezjHIOCf9X2hy+n+OOO24uXGkDKKrpqaedYNSIn2lz6LihXaDQ4LXxPSQZop0o+J7TdtFGFLQtfK9JsNkXfB8pAigSSscA+4JRRTpuKNhpW3jfGJ1lRKLsMxJ0CgJeH89Fbz9tCZ0QjA7UtjkEbQMdGWOOOWbeDvCaaIdq2xxGU2oTfHCbAqbgmMEoAx0stThmMF2nTIlsDRS6vA/xGSfOjegcoeEsdnUuCDj28LmmqKZgL0ExynvP57BiQdAgLAhGDNbPfTci96CXIe/hgZ45Gk4Oogzt0qAzQlA7lYADAsk1CQNzAcsUmhL09NPzxoGgJMxDg7npZU13/uXATy8ChUlt0CvFgZjChN4sDrD0ZDGMTXHAQY8DMqMBHKB5PZzEzPZyUGaf0WMIkmFGMwqGsWnACpJeDnw8J/Nm+TsKMYbdeW0UJmXqAVMKmFdMzwg9+twH/L4UN9yfHnC2g+emgSSx4GfmDFNolCBJp6jiednmMmLA+8E2kJgTJAPMLy7nMhQkE8wTbooiqbYgoIeVkYNaHPxJNpoi4aJntOk5CH8W7yP7iM90BMtkrhLRbsX7PUm87w/Ev48OZaxf/Wl7N28Ea3Tnz0lrrHDG94/vLN8TehP5PjHlqvYigqeffnrulIj9mD+XzbU5/MtjDcvKW3y3y9WIaTP4vjTX5pC4kmRzjg5FCu0j3zm2i23n+fkOMR2Q35F88z3ntVDw0A6V3nS+0yTYBcl+GaEDU4EYReD+fKdLm0P7Rg8/iT9tGQUBo8W0wfzLFKYyIkvxwvea+zBCwr7hO0+HCZ00dL6Q3FNM1LY5tDFMV6LNYV/SPoHXy+9q2xwKnaYJPYUd54kVnJdBB0Yteom5CjTfd97P1sBr69SpE20Ly/HuEqERJHZ3Lgj4bA1pJgPH6XLCfbAgaBAWBCMOqxDlKURU4sNjChEHO3p36DHjoMOQMD1Z9CiXLy8NOM9XEndWDZp00knzQWf66afPDT1zp+mFJ9GlV4ueL5JseteZW18bDMVz8OcAyjQlhsFBwcGBjgMRhUUJDnIcYOj1olhhfi+PTUJNjxyYqsT2UZSQHNAbVtvzRw9bmfdLbyTby/QjDp48NlMHCublc6I0B8fa4GDGlCB60dknbAujHyWBYnSinJhMMULRwggJIyr0fBYUPRxA2eckFQzF05vHyEFZRhUkERRiIDGhl5N9UYIel1KAFENTENBTx/vLFIFazRUEnGzI89Qu1zo8kCCwnXyWI+6ImD5CbWfiiDyFiB7VETmFiO8cU3FIMpkaxGeRzxntQm2bxmeW5BJ89+ndps3hBFU6EthO2hxGlygWSMQZRdtuu+2abXNIdCkwSGqZygJuM0pB5wLf5dLm8DOjCRTzFAPcj+8/35HSy0lhwfeXdozCnkS5dsodv2NqFBi1oI0qJ+Pyfa4tyOnooNho2uYQTMtkVJP9xuglo5llhJZpTqUDhnaLfcn/0S7X9MbmYoSV2nhfa9sc7kO7W1DYMGULZUSlts3hWEFiV6tpQcB7WVugUTBxjZ1h6Sj6MxjRZlv5LEe8GLFQhEag2O3jDdr7QyeOnydWf9qaLAjagAXBiDV6BBc8yr1DTPf5MygISO7pkeJAUE7+okGlV5okl54sEuHSQ0XPC40uiTkHYZavLPNVOSjSe0ayyQGRAwNJagmGt/kdj8G0Hg6gZck6Dqy1V32txXaRQNKTxs+sNERvFwk0+4CeRjD8zQWYeA0cvDiQg4NRKQj4PwqcMreRkQdeR8EBlYM9PWdsM9tLkKBz4nVtQcB+KtMsGFIvBUHB9rIsK8/F/UlG+HsSBeY9cxIt501QwBC17yfPXaZCcHDmsctJgJyTwTbSg1eLbW664gcoQujhA72hJEhNkVzQ61gwosGoB72o7DPOv+DfP4vHnXrqqcsB+6iIUSLUPuwQ8RMnX9bO4R+e+K7xnSD55PvPSCSJLt8tElDaHJJ3pt2VaXx8zmlz6Nnnd3z/6QEH33mKC76TnERfvrdN2xz+5Vwbkv3aNofnbA7PQxFOxwFTcWgXGLXjeRmJZGoEr4XbjAbw/Wa0sIw+8H0uBQEofvgu0SbQ/tQuwcl3i0S/aZtD5wpFDvuJdoZt4rtcOiHKOQe1uA9tOu0zf0PHBMUIow/04NKm0OFBG8w2sv8K9hEFCBg5pY0qbQ7fW4q0pivfceygUCs4VpTjAe0eUw3ZRraF483wHN1uiv1LgRefYeLaiAkjNILFrh89vn/bRuwylLFw9aetyYKgDVgQtI7VIz6JyIlc097eoUUDykGMHh7+rU2MSbyZPsOBuGA4m940DjokqSTkBD1p4MDBQXRo0DPFAaYkmWwLPVz0CtKDVYLbHIxIdNmmgl5/Dsb08NPrBYb6OWiDwoDePtSOEIBpCkxZYd5sSbqjkcr/csCiB7MkEyWxYH4+cyFrV8nguUleeC56McsUgYKeP3oxea0kHk3n6JNs1K7uVIvnLCdzs0/ZVraBIJnioN50Pi9FS21SXzDyU3oM6eVseu4BOGiTbIB9wEGexILpUDwXr6+sXPJHUEyS3PCZjfhvxLoRan+WjOBS/zm5KytZDS+M6jESyCgdBWftFCWSZdoc5p+X7yOfcT7/JNx8jhmtohOitFd0QNDjzufr9zA6yEhoaS/pvea7TmHQtM3hs853vbbNYeoNPeRsRyneGekrI3nlfALwHa0tCEiO+V4xxadMJ6xtb2lLmrY5JO10GlAcFYwkMApC4US7XdqvWqwsxmgA7x9tM+11wXMy8tCcpgUBo7C1bQ77rmkbQIFApwYobGjDyz6jzRpttNFyG0LHC+c9ldc+vLHgwfjjj0/b0jvCKUJqyoKgDVgQtJ5ZIh6KyA1uGUYeFuXkWRJqpv6QEHIAoueprKpDkESSbJMklgvz0DvOlCBwUKUYILnnYF/b61RwkCBx5oDIAYYhfx63IFHgd5zURlDoECT49OrR81O7yhDThtgmChJOhOYx6UkjKQbzkctUIBJR/p+/4aDGQYvX2rlz5/ycHPgpHih4OIgxvN502gFBEcQUGnramAbA3zE6wYGXxL/M6S+vkelP7BteOwdSeig5kLM97F9GZXh+brPfea2l15/3he1lNICDKb2fTBEimWckhh5HCqrahI2ezLIsYC32W0mCKAzoYW2K3rtyICf5Yv/xGpn+VKKcXD6seN0kbXxWI/4dMXOE2q9xIi6NyN95epuHFxJY2hR60hkpYJpa+T7Utjm0QXxWaU9K8s3vGWUDRQLTU0h2KQ6aW3CBzzRJLd9HesOZvlc7OkYnBN9b2pnaNoefaRu5P0VKQXtHjznTE5lSyXecnn2eA3SelGlOJPP0+PO9Lm0OST/TKpnSQ9tBYk/Bw0gAr7O5NocOGNojEnLaOQp+Ho82h5G2UozQJtH20aYwAsHJ0LTrTMOiY4F9zD6lA4NijLamtDlMuUIpaGi/m2tzaF9pA2svaEjHSjnxmn1FQVVwm9EYCrjShjTX9vwZtHnsCz6rET0iloqQmrIgaAMWBK2L5QOPici9QvSkDwum1JQkm3+Z18rBgF4wetQJDrQcDDgAkoAXZQ170OCXxJSpQBy4muK8AoagSbgpDNjW2lU26L1rOgWmYHidA19tQspQdZkLTMLJdCMem16qpjiIc34BB0d6GEtQTFCIlJ957ST1vH5ec9MgOef/2E4KsNp5umxLed0cYCl2SBRqD4AcvMo8XoKpByQQ5TZRzjdgW3iN7HP2Fe8Dz1uC3/G6ai8S1B6x/cz/js/owAjmjjLtTR0DPa3fcXImCefwQDJdOi/4PtM7z2edE3Fr2xx6nvleMwJQRgtILulpB8VqWfWKwr92LnxBb3gp8mlz+L7UTnujzSkdCE3xt/wfRUXB+VUl4efcJxZk4DteO4pa0AHA9DzahaZtDtvLz2wz33lGFln9p7k2h/3A//E6eO1lehRK+wXaCpJ+2snaBSFoO8v5SgQ/89y17VB5DN4Hpnryf7R1TdscfkfHD/u+PWCEh9HL+IwSFLCcZyc1x4KgDVgQtI3NIr6JyD3QtUPRUlug55apWtVKH19FbBihjof5vq9F5J7Y2lE6qa1wThUrJ8XnkuWK94mQWmJB0AYsCNrOrBEPROSh3ba8RLwaG6NFnC/BZzHiiQimt6njmiTiyog8xa30KEutjVElpj3xWYx4JWLpCOn3WBC0AQuCtjVmBBdgycuDMk1Gak1MO2BZSD6DESdEMB9d9WH3iP6cvDm8phBJQ6ssghGfQeLWCKcIaWhZELQBC4L2YYOIz0YZZZR8VdyyNKY0IjF/OT53BFOENo9Q/Vk+4vWIfOJt7fKZ0ojC+RTjjTcebUufiP0ipGFhQdAGLAjaj7kjnonIK1q0lxPBVH9YkYhVVPisRTwaMVeE6hdTiFjnPZ/UWS5aKA1vTBFi5SQ+axFcrX+lCGlYWRC0AQuC9mXsCFZ2yVf4rF0VRxoe+ExNMcUU5YDNdDWmrakxHBrxE8v3ssqNNDyxTCkXYIzPGHFbxF8ipD/CgqANWBC0T1tHfDf66KPnaR1l2Trpj+JCUKyfzmeKz1bElnzQ1HC6Rrwdkdf4Z2ld6c9iKVauxh+fq/4RB0WMGiH9URYEbcCCoP2aJ6J7RL74zPC+AqkaB9eg4IJMfJYimJbG9DQ1rqkjOMkzX42W631IfwTLFXMBNT5LEe9HrB0h/VkWBG3AgqB9GzeCL0ZeCYYL0EjDgoupsfQkn6GICyImiJCwb8QALkTHFW6lYcGF2hZffPHSttwVMU2ENDxYELQBC4KOYYeIb7hoVLlsvfR7jjvuuDTqqKNysP4+Yls+SFITq0X0iMirEP3000/Vp0caMq5IXU0R+jXiHxEjR0jDiwVBG7Ag6DgWiHg1Iq2//vrNXn5fAtPL/va3v5WeuxcimDcuDQknf3ISaFp++eXTa6+9Vn2SpMFRMO6xxx6lbfkkYpUIaXizIGgDFgQdy/gRF0XkaSDdu3evmmlpEKYIzTLLLOWATaPqhcY0NDgJ9MiIX7mQGevIS7VYrniZZZYpbcu9ETNGSCOCBUEbsCDomHaK+GWsscbKK8dI4Gq0Y489NgfrXhFcpVYaVmtGfDDSSCOlgw46KPXu3bv6dKmRXX311WmqqaYqxcAxEaNHSCOKBUEbsCDouJaMeC4ibb311unrr7+umm41mq+++iqvRMVnIeLliHkjpD9q2ogHItJiiy2W3n777eqTpkZ08MEHl7bls4i/RkgjmgVBG7Ag6NjGi7gyIs0777zpscceq5pwNYqnnnoqzTXXXOWAzWdhsgjpzxoj4tiINO2006abb765+sSpUbz55ptp9dVXL23LQxFzREitwYKgDVgQ1Aemh/RiFaILLrigas5V784444w07rjjcrD+JWJnPgjScMa68vQMpz333DP9+uuv1adP9ezee+9NU045ZSkGzowYLUJqLRYEbcCCoH78dgXSbbbZJk8jUX36/vvv83vMex3xesSyEdKIMlsE68yn1VZbLfXo0aP6JKre/PLLL+mwww5Lo402Gm0LheCmEVJrsyBoAxYE9WXiiGsi0jzzzOMVSOvQE088kRZaaKFSDFwdMWGENKKNEnFiROJCZtdff331iVS9YLniVVddtbQtT0ZQCEptwYKgDVgQ1J+RIvaK6MuFY7yQWf3garLjjDMOB+u+EQdFSK1t44g8hejII49M/fv3rz6d6shuv/32NP3005di4OSILhFSW7EgaAMWBPVrxYh8BdKddtop9e3bt2r61dF89913aYcddigH6zcjWGFKaiv0HHePSCuuuGJ67733qk+qOiIKu+qK5ixXvFWE1NYsCNqABUF9mzriuoi0xBJLpKeffro6BKijePXVV9PCCy9cigHmcfOeSm1t7IgzItJ0002XHn744eoTq47iww8/TOutt15pWx6LmD9Cag8sCNqABUFjOCSiDyvSXHbZZdXhQO3dxRdfnJj2xXsXQeM4coTUnmwS8TU9zIcccohTiDqI+++/P80000ylGLgwgmVmpfbCgqANWBA0juUi3o1IO++8c+rVq1d1aFB78+OPP+b3iPcq4oOI1SKk9oqe5acj0gYbbJA+++yz6pOs9mbgwIHp1FNPLVOEekZsFyG1NxYEbcCCoLFw0aq8fOACCyyQXn/99eowofbipZdeSl27di3FwLURU0RI7d04EadF5ClEt912W/WJVnvB1ezXXXfd0ra8EjFPhNQeWRC0AQuCxjNqxIERA1g+8Morr6wOF2prrCJUTRHqH3FMhFOE1NHsGPHd6KOPnk4++eTcI6229+STT6ZZZ521FAOXRLhcsdozC4I2YEHQuNaI+G9E2m233bwCaRv6+eef07777lsO1u9HrBohdVRzR7COfe6R5uRVtR0Ks86dO9O2/BSxfYTU3lkQtAELgsY2Y0SeQsTygU4han1vvPFGWnLJJUsx8O+I6SOkjm68iH9FpJlnnjk9+uij1SdereXLL79MW221VWlbno9YKkLqCCwI2oAFgbgC6XERAyeccMJ0zTXXVIcTjWhcDGiqqabiYD0g4qjqvZDqyeYRvTp16pROPPHE6pOvEe2xxx5Lc8wxRykGKMxYJlbqKCwI2oAFgYoNIz4eaaSR0mGHHZZ69+5dHVo0vHGRuL///e+JfR37/IuIdXgDpDq1aMTLEWmjjTbKJ7dqxOHq9GONNRZty3cRXLVe6mgsCNqABYFq/SWCaStpmWWWST169KgOMRpe3nnnnbTqqquWnru7I2aJkOrd+BGsd5/mnntuL2Q2Anz77be1U4Rei1gwQuqILAjagAWBmmJo+cSIAX/5y1/SzTffXB1u9GfdcMMNafLJJy8HbPaxU4TUaP4e8cuYY46ZzjzzzOqboT/rmWeeqZ0idHXE5BFSR2VB0AYsCDQka0d8GZH222+/NGDAgOrQo2HFCk5HHHFEOVh/GPHXCKlRLRnxYkTafvvt0xdffFF9U/RHXHjhhYnzv2J/slzxHhFSR2dB0AYsCNQSlg98MCJPc3EK0bB7991308orr1yKgSciWNlJanSsg399RJ5C9Nxzz1XfGA0trmi+7bbblrblzYgVIqR6YEHQBiwI9Hu4kNlJEWmaaaZJt9xyS3U40u+555570tRTT83BemC1D8eIkPQ/u0b0GmeccdI555xTfXP0eyigaq5ofk2EU4RUTywI2oAFgYbWlhFfjjzyyOnII49M/fv3rw5Naqpfv37p0EMPTVytNfZZz4hN2YGSmtU1okdE2nrrrVOvXr2qb5Kac8kll5QLjfWNODhCqjcWBG3AgkDDYuYIpr2ktdZaK33wwQfVIUrF559/nvcN+yji0QimXUlq2RQR+UJmCy64YHr66aerb5QKpgjtvvvupW15K8IpQqpXFgRtwIJAw2rciAsi0nTTTefygTXuuOOONMsss5QD9tkR40RIGnoHRPQff/zx88myGuTVV19NCyywQGlbuLr8VBFSvbIgaAMWBPqjNon4juUDjzrqqOqw1bhOOeWUNMooo3CwZorQduwgSX/I8hGvRqRddtkl/fDDD9W3rDFdfvnlabLJJqNt+TWCC425XLHqnQVBG7Ag0J+xUERePnC99dbL02UazX//+9+0/vrrl567ZyLmi5D05zCF6M6ItPjii6cXX3yx+sY1jp9//jntvPPOpW1hueLVI6RGYEHQBiwI9Gd1jjgjIs0666x5ZZ1G8eijj6YZZ5yxHLAvjuCibpKGj5EjDoro06VLl3TNNddU37z69+abb6bllluutC0cp6eLkBqFBUEbsCDQ8LJzxHedOnVKJ510Uho4cGB1aKs/vLZjjz02jTXWWByse0Vszg6QNEL8//bOA0yuqvzDUkxAihBaIAhKFVQ6SO8oVbCAVAGpoXcREJGqtNCL9N7901kEREpARSBA6BhpIfReDCSc/3nvzok3487s7mTK3tn3fZ7v2ZnZmTt37pzvnO/3ne+cWSvaq9HC0KFDs8W17cyll14aZpllFvoWfmjs6Ghs/SzSn1AQtAAFgdST70bLdiHaZJNNwmuvvVYa4tqHd955J18i9Gi0paKJSGOZO9pN0bL995999tmSR7YP//nPf8IhhxyS+pYXo/Fr8SL9EQVBC1AQSL0ZFO2yaFkJ0V//+tfScFd82FHpu9/9bhqw2WmJzyoizYESokOihdlnnz1bbNsuUCK08sorp76FX4f3F82lP6MgaAEKAmkU20X7cJpppgmnnHJKadgrLieddFKYaqqpGKw/jLYHH1BEWsKPo/0rWthvv/3CZ599VvLSYnLLLbdkvwLP54l2bDR/0Vz6OwqCFqAgkEbCL5Bm2wduuumm4a233ioNgcXh9ddfD9tuu20arB+Ltnw0EWkt7EJ0a7Sw6qqrhieffLLkscVh7NixYZ999gmTTTYZfctr0SwREulEQdACFATSaCirOT9aWHrppcPf//730nDY9+FcF1544SQGror29Wgi0jf4arTfR/t80KBB4brrrit5bt+HX3lff/31U99CiRDrr0SkEwVBC1AQSLPAuT+ddtppw8knn1waFvsuZ511Vph++ukZrD8qnbuI9E02iPbG5JNPHg488MA+X0J09dVXZ2sg4jljCJoB0UTkvygIWoCCQJrJKtHYmSfsvPPO2Y49fQ1+FfUXv/hFGqyfjmaJkEjfZ4Fod0QLq622Whg1alTJo/sO48aNy37VHeESz3N0tK2iicj/oiBoAQoCaTYzRbsuWrZjT18qIXrwwQfDMsssk8TAldG+EU1EigGLcf8QLcw777zh+uuvL3l260GgrLPOOqlvuS+auwiJVEZB0AIUBNIq9on24QwzzBDOP//80rDZOs4888ww3XTTMVh/Hm1fTlBECsnm0cZEy/b1bzV33XVX+OY3v5nEwBnR+HV3EamMgqAFKAiklawcLds+cJtttgnvv/9+aQhtHpQt7bTTTmmwZkektaOJSLH5XrS7o4Wf/OQn4bnnnit5fPMYP358+N3vfhemmGIK+pZ3o20RTUS6R0HQAhQE0mrmjJb9kNmyyy4bRowYURpOG88jjzySLxH6U7QZo4lIezAw2inRwhxzzBFuvvnmkuc3HrZYRojw3tH+EW3JaCLSMxQELUBBIH2FA6N9wfaB55xzTmlYbRwXXXRRoFwpvudn0fj10ymjiUj7sWW0NwYOHBiOPPLIbP//RnLrrbeGhRZaKIkBBInbFYv0DgVBC1AQSF9inWjPRgt77rlnQ7YP5Ji77LJLGqxfjrZ6NBFpbxaM9mC0sPbaa4dXX3211CPUl+OPPz589atfpW/hF813iiYivUdB0AIUBNLXmCta9gukK664YlbWUy+efvrpsPzyyycxcFO0eaOJSP9ghmgnRgsLLrhguP3220s9w6Tz0ksvhY033jj1LcOjLR1NRGpDQdACFATSF5ks2uHRvph55pnr8guklAhRRxyPiR0cTUT6J9tE+2DKKafMfhdgUrn//vvDt7/97dS3XBJt+mgiUjsKghagIJC+zLrRXuKHfHbbbbfsR8N6CyVC++67bxqsX4r2k2gi0r9ZJlpWQvTzn/88jB49utRj9I7jjjsuTDXVVPQt70T7ZTQRmXQUBC1AQSB9nW9F64gWVllllfDCCy+UhuLuGTlyZFh11VWTGLgxGjsaiYgAvwdA4BHmn3/+cOedd5Z6ju5hF6HNNtss9S1PRVs2mojUBwVBC1AQSBFg+8CDoo2fffbZwwUXXFAalitz7bXXhllnnZXBely0Y6N9NZqISDlDo3049dRTh9NPP73Ug1Tmvvvuy35lPb4GOyvaLNFEpH4oCFqAgkCKxE+jvRotHHDAAWHcuHGlIfq/fP7551mJ0GSTTcZgTYnQWtFERKqxeLRHo2W/H/D666+XepSJOeWUU/K/aG7AItIYFAQtQEEgRWO+aLdFC6uvvnp46qmnSkN1yH6NdLXVVkuZO36l9NvRRER6wqzRLo0WFllkkTB8+PBSzxLC22+/HXbYYYfUtzwWbaVoItIYFAQtQEEgRWTyaMOiBUqIOjo6wi233BLmnnvuNGD/Lpo/NCYitbBdtI8oIWJG4MEHHwyLLbZY6luujTZTNBFpHAqCFqAgkCKzUbTXp5hiioDF269F24p/iIhMAqtFGxkt7SL0UbT9oolI41EQtAAFgRQdyoIYuB+Kxq+RiojUgxmj8bsCL0ZbkQdEpCkoCFqAgkDagb2i7dF5U0Skbiwc7VedN0WkSSgIWoCCQNqB/aPt03lTRKRusPsQWx6LSPNQELQABYG0AwdE27fzpohI3Vgi2sGdN0WkSSgIWoCCQNoBBYGINAIFgUjzURC0AAWBtAMKAhFpBAoCkeajIGgBCgJpB1xDICKNQEEg0nwUBC1AQSDtAGJgz86bIiJ1Q0Eg0nwUBC1AQSCFIoTwzS+//PKSaFdg8f6FTz/99Ihnnnnm0Xj/4vR4tCujDYv/n6z0UhGR3qIgEGk+CoIWoCCQQhGD/KVikB8+/PDD8NRTT4WRI0eGJ554IrN0m/9BfO6b8c/kpZeKiPQWBYFI81EQtAAFgRSKGOQvPn78+LEbbLBB2HbbbcOhhx46ke25555h++23T4LgeQWBiEwCCgKR5qMgaAEKAikUSRCsvPLK4Zhjjgm33nrrRHbBBReELbfcUkEgIvVAQSDSfBQELUBBIIUiCYI11lgjHHbYYeGGG24I11xzTWbXXXddOOOMM8LWW2+tIBCRejBvNAMTkeaiIGgBCgIpFAiCaGOXW265sPHGG4df//rX4Ve/+lVmBx54YNhxxx3DJptsoiAQkR4T+4q9o7EpwUT23nvv3TxixIi0YUGyTUovE5HGoCBoAQoCKRRxgF7io48+GnvkkUeGk08+OVx11VXhiiuumPD37LPPDqecckr4+OOPwxdffKEgEJFuiUH+3SQRPvvss/DGG29MZK+//vqEjQogPveU0stEpDEoCFqAgkAKxcILL7z60ksvPX6ttdYKLCymdGjVVVcNq6yySlhzzTUDj3N7qaWWCjfffLOCQES6JQb5N/7jH/8ISyyxRDjhhBMyO/744zMj8bDRRhuFO++8s1MRhPD70stEpDEoCFqAgkAKxfDhw5d+/PHHP4/BfjZQs80oZUMM5CNGjAiPPfZYiP/Pbr/77rsKAhHpFgTBvffeGxZccMFw6aWXTmTMPP74xz8ON910U6ccUBCINBoFQQtQEEihiIPxYnHwHrv33nuH0047LRudr7zyyjDHHHOEnXbaKdtydLvttgtXX321awhEpEcgCB544IEwZMiQbC1S3g466KCw/PLLh46Ojqy/iSgIRBqLgqAFKAikUMSBe5FRo0aNnX322cM666wTxowZk60foGzonXfeCW+++WZW9zt+/HgFgYj0CATB/fffHwYNGhT22muvQMKBv9g+++wTFl988XDLLbd0ygEFgUijURC0AAWBFIqhQ4euucgii3zOrAALiFkv8J3vfCcgEE488cSs9veoo47KBvTbbrtNQSAi3YIgePnll7PfMDnnnHMy4zdNzjvvvOw2/QnliSUUBCKNRUHQAhQEUijmnnvubWLgP640MIdnnnkmm9LnNwkOPvjgzFhTsP/++4e//e1vCgIR6Y7JYr/Rcfjhh2dJhdNPPz2cdNJJ2Q8fcv/UU08Nxx57bPZL6Oeff3745JNPFAQijUVB0AIUBFIovvzyy0U7pUD3xOe+Ff8oCESkKk888cTNJBf++Mc/ZrsJjRw5MgwePDj7fZMnn3wyPPXUU5k9//zzbGesIBBpLAqCFqAgkEIRg/xvRbsi2jXJHn300cdHjBjxWP6xkp0aBcFkpZeKiHRJ7CtuHDt2bFhppZWYAcgSCtyebbbZwpJLLhkWXXTRsPTSS4dXXnmFfykIRBqLgqAFKAikHdg92i6dN0VEekcUBDewjfHAgQPDJZdckgkCfg39gAMOCPfdd19gwfHw4cOzzQoUBCINR0HQAhQE0g4cEG3fzpsiIr1issMPP/x2diq7++67s93LNtxwwzBgwICw6667Bn6f4I477si2Mr7++uv5fRMFgUhjURC0AAWBtAMKAhGplSkWX3zx+5kJAEqG+I0TFhLnNyvgNwlYY/DRRx8pCEQai4KgBSgIpB1QEIhIzYwfP/7uTA30ANYmlV4mIo1BQdACFATSDigIRKRmYpC/a7Q/ltsrr7zyp3vvvfehssd/UnqZiDQGBUELUBBIO6AgEJFGME80AxOR5qIgaAEKAmkHFAQi0giWiHZw500RaRIKghagIJB2QEEgIo1AQSDSfBQELUBBIO2AgkBEGoGCQKT5KAhagIJA2gEFgYg0AgWBSPNRELQABYG0AwoCEWkECgKR5qMgaAEKAikik0ebrfNmRrkgmLH0V0Skt+T7lsWjHdJ5M2OWaAM6b4pIHfl66S+UCwLG9Mk6b0qjUBBIEUEQbBbt3GhDou0abcdos0c7K9pO0UREamGtaFdGWyja/NF2jzZ9tN9EY7ZAQSBSf/aLdnK0WaPx4387RJs72uXR1ommIGgwCgIpKnQab0d7Jdo/ow2P9lK0j6MNjiYiUgskHP4Wjb7k5mj0LSOijY1GCZGI1J/5oo2P9kK0J6Mxrr8R7eVo+dkDaRAKAikyB0ULZbZHNBGRSYGMZHnfQqZSRBrHH6KV+x2z/9IEFARSZGaO9mq01HFw2/UDIjKpUJ7w92ipb/ki2vejiUjjmDPae9GS3z0dbbpo0gQUBFJ0Do2WOo9jeEBEpA5sHC31LddEo5RIRBoLC4qT3+3MA9IcFARSdMgefBLN2QERqTd/iUZgskh2T0QaDQuJmSVg7YALiZuIgqA9WDjaov3UGKhZ+HdHtO+UHuuPRhsQqTfzROuqvfUHoz85Pdrj0VhM3NVz+oMphprP96J19V30B2MseyjaJdG+W3qsP9qC0ZqKgqDY/DDan6KNi5am2Pqjfd7FY/3NaAPXRlslmsikwnabbOH7frSu2lt/sS+jsX6gq//1JyPhsmk0aSzrR7spWlffQX+z/u53n0VjI4MVozUFBUFxYe/9MPnkk4eNN944HH744Vo/NtrAlFNOSSfyabShNBCRGlk5WrZYf8011+yyvWn9x3bYYYcw3XTTpSDliGjSGPgBvC+nnnrqsOWWW3b5XWj9xzbYYIPkcyQ8t4nWcBQExWSjaGGppZYK9913XxCBBx54ICywwAJ0IGRW1qahiPQSpuvfGjRoULjpppvC+PHjS61L+jPPPvtsWGeddVKA8msaitSVzaOFJZZYIjz88MOlqy79nY6OjrDQQgulMX0lGkojURAUj69Fe2KOOeYIo0ePLjUbkU6efvrpMHjwYDqQp6JNS4MR6SFTRrtmmmmmCXfddVepRYl0Mnbs2LD88svTt3wYjbUlUh9mifbKvPPOG1566aXS1RbpZOTIkWHaaafF7+6NNgUNplEoCIrHJtHCCSecUGouIhNzxBFHhMkmm4wOZI2sxYj0DH7h+z+bbLJJqSWJTMwNN9xAv4IdSIORurDlFFNMEc4777zSVRaZmEMPPRSf41ecGzqmKwiKx+4DBgwIDz74YKmpiEzMK6+8Er72ta/RgZzY2WREegSLRr+87rrrSi1JZGLGjBkT5plnHvqWC7MWI/XgCkr03nvvvdJVFpmY2267LQnxHbIW0yAUBMVj6Oyzzx7+9a9/lZqKyMS89dZbaRHgjZ1NRqRHDGOTghdeeKHUkkT+F2aQYlv5c7SGli/0Izpmmmmm8OGHH5ausMjE/OUvf0mz/tt2NpnGoCAoHkOHDBkSRo0aVWoqIhPzxhtvKAikFk5SEEh3bLrppgqC+pIJgvfff790hUUmRkEglRjKgmJnCKQSOUFwQ2eTEekR2QzB888/X2pJIv/Lz3/+c/qW26MpCOqDgkCqoiCQSigIpCoKAqkRBYF0i4Kg7igIpCoKAqmEgkCqoiCQGlEQSLcoCOqOgkCqoiCQSigIpCoKAqkRBYF0i4Kg7igIpCoKAqmEgkCqoiCQGlEQSLcoCOqOgkCqoiCQSigIpCoKAqkRBYF0i4Kg7igIpCoKAqmEgkCqoiCQGlEQSLcoCOqOgkCqoiCQSigIpCoKAqkRBYF0i4Kg7igIpCoKAqmEgkCqoiCQGlEQSLcoCOqOgkCqoiCQSigIpCoKAqkRBYF0i4Kg7igIpCoKAqmEgkCqoiCQGlEQSLcoCOqOgkCqoiCQSigIpCoKAqkRBYF0i4Kg7igIpCoKAqmEgkCqoiCQGlEQSLcoCOqOgkCqoiCQSigIpCoKAqmRYQw6o0aNKrUkkf9FQVB3OgYNGhQ+/fTT0hUWmRgFgVRCQSBVURBIjQybcsopwz//+c/wn//8p9SaQnj77bfDo48+mt3+6KOPKs4gvPrqq+H1118v3avM3/72tx6JDgKkcePGle79lxdffDGMGTOmdK8yL7300oTzLueLL77Izjfx+OOPT3ROd911V/j4449L9zqPdf/995fuVefLL78MY8eOLd3r5PPPPw8jR44s3euad955J3zwwQfZbT53+TF6C++Z/4wc87PPPptgXIMEt5988skeBaWbbLKJgqC+dMw666zh6aefDuPHjy9d5RBGjx494fv797//HZ599tnsdjn4Y61iAn8mluC7T+3t3Xffzf6Ww/Py55egXeXbEnDcZ555pnTvf+H59Cv4CtBWsUmBvgc/TfAe+faeP3euF9e0p/Ba+oh0jRhj//GPf2S3y+G5vB+fJ50Df3lt/jy4bm+99VZ2Ow/P/fOf/zzR96AgkEooCKQqCgKpkWEzzDBDOPnkk7Og75NPPsna00033RTmmWee7PZTTz0Vttpqq+x2ObfeemtYYoklwiuvvFJ6pGvWXXfdcNZZZ5XudcIgyCCNpcDgxhtvDL/4xS+ygZNjPvHEE9mgvP7664cdd9wxu81jzz33XPb8Dz/8MAtsHnnkkSz4PuaYY8Lcc88dHn744ex5I0aMyP5yfHxk5513nhCQnHvuuVnmm/t/+tOfwnLLLTeR6Lj44ovDsssuW7rXCeeVzpmBHgjOttxyy+z8OD7/g2uuuSZQjsU55+G9tttuuzB06NDw05/+NFx22WXhqquuCptvvnl2DB7rTeCSh/Pffffds9sEX3y+X/7yl9n78fdnP/tZuPvuu7P/I0RWW2218Oabb4aLLrooO58DDjgg7LvvvmG//fYL++yzT3Ysnsd3EtuKgqB+dMw333xhr732CnvvvXf2fQB+ePzxx2e3+Q74vrqC/9HmKoGoGD58eOnexOAnhx56aDjhhBPCOeeckz12yCGHhKOOOipLCiSfw9Zaa61w7bXXTvA72sqll14aNttss6xN7LDDDtnrgc8x++yzT2j/gL8ce+yxWdvaaaedwsYbb5wJ9l122SVss802Yeutt84eR0zUAue8xRZbZLfvvPPO7HqVt3dEFtBn7LHHHtntE088MTtfrmNq73wXZ555ZvZ/uO6668I666xTuheyQH7xxRcPDz74YOmRTvB/3gff5zvh2nB70003zT4jn4/PyXXhGCuttFLo6OgovboT+rFZZpkl3HfffaVHFARSGQWBVEVBIDUy7Ktf/WqWKV9vvfXCkUcemWUtEQCUNDBAEiQuueSS4aSTTuoy+07guO2225buTQw10hdccEFYcMEFs0D3tNNOC/fee294+eWXw9prrx022GCDCcb7MmgutdRS2YB9+eWXZ4EDA/UCCyyQPc4gzmOHHXZYdnwCGQZhgijOk/P/zW9+k/391a9+FY444ogwbNiwLFNH4J+CLwIhgpOll146/PjHPw7f/va3w6qrrpoN4n//+98zoUMw/Y1vfCOcfvrpWRCEqPj1r3+dnfePfvSj8IMf/CD89a9/zWYRCJwZzL/zne9kQofPTTB14IEHZmKIAT9BAPKHP/why24SgHFuXJszzjgje4zjVgrmqvHee+9l3w+BEMKAwIVghPNJxvUi6OSzIKKWX3757C+fne+R15Fx5fvh+/jud7+biRMCrNhWFAT1o4MxnSCbNkMwiyF88QXa58orr5xd/z/+8Y8TgtoE7Yt2iKjtCoQwxyX4/7//+7+sHR500EGZ4dsIXfwKH+A52LzzzpuJVdrnbrvtlhmiBZ8gkCbIveOOO7L/41/49U9+8pPs/fCXNddcc0KQnWDGbcUVV8zOAR+gvSNU8WWy7cwc4tuMX70BX+Y4fC7OAaFy9NFHZ31Avr0jFkgO4Btk4AnMuZaI74ceeihr57R3kg/4chIXwPWhr6EfOvXUU7PvgT6Sz4mvnnLKKdlnoL9AKPA+nM/222+fiQ/6RPoOZl9/+MMfTphtoU9deOGFs3NKcG0QU3m/VxBIJRQEUhUFgdRItqiYgZvpaga3e+65J6y++uph+umnzwJKBtz5558/ywbefvvtpRb3X3gtgzoDajm0SwIIsvYEnQyWaTAm2HjssceyDBuD7C233JK9hn6OmQKCVoJR/r/RRhtlWUb+xyCepuAJVMjEE0hzfIJgMtqULjAIcx+Rwf2DDz44C4TOP//8LLBHVJCpI0AiG8gMxmKLLRauuOKKTPyQyeO8uQZ8fso3mEUho8858XoCA64ZMxMEHIgQILDjMeC9CPIoDwKysxjnffPNN2ePff/7389KloAMI9eltyCKVlhhhfDNb34ze7+zzz47EzuIMIzghMcRNwRQe+65Z/Zcvh8EH98Lwcp5550XLrnkkkw48Pm53gqCutMx88wzZ98bwosMPNeedrDMMstkbR0xwPdDUJpmxPLQTpnFSyVn5SCECc4Rm2SwEQ8IDdooYoPvmbacZvdof5xHKhFk5o0MOcE855hKXfbff/8sQKZd4z+0D841ZbfxZQQvMIuGICZ4ZhaMPoI+gT6F2QNmMvC5NNvWUxDRBP+0z8GDB2fXCLGLUKedpzaPD/NZeF/6HoQIfoEQYoaEa46woU/43e9+lyUBAF9l5pO+EF/FV+gHEDwYYon3vOGGGzKBwW1mK0hGcJv35TrRRyCe8DEETIJ+jc+fh+QD1z9B4iS2EwWB/A8KAqmKgkBqJFtUzGBGdjDtekK2kqw5MHgxmFbigQceyAYuguVKEJheffXV2W0y0QTqBD5k8YCgnMDjyiuvzAZZMolkI1dZZZUsgPne976XBbtk4ChzIRsH/C+VuUwzzTQTBmYem3HGGbOyBoIXMnm8B8KFARoj80egQuBOAENwT/DEeQD/J3AAMou8J9l3BABceOGFWdYQcYPYYJaAoIcsIwFDHoQLmVKuL7MWfBbei6wrQRqBeiqb4rkEcr0VBZR7EYBwzbhNQEeARMkH4oPrSrY3lYkQ+CGaCK64TnxGRA2BFMEM14EgC0FlyVDd6aC9cq3zZSIEq7RXoE0h0iqBaMV3eU0l+G5p9wS0GO0XYUAwDwT6iGkC4nQe+BRtEx9aaKGFMjGIz6Y2zSwD/+Nx+gwCZ3whwViURA3+zYwXs2XpmJwD7QvwB8TEcccdF1577bXssZ7ADAFtnACemRKCa64l70E7p71jvDezMPDCCy9k7w+0dcrkEOSUNHHN8XfKBIHkQPyOMh8hkE/HSHCfvgp4LdeMfgRRzrUiXkNgcGwe5/PSN5BQQZAza8B15zaCBGFCf8V3zrXkXOgvmb2N56EgkIlQEEhVFARSI5kgIHPG4mIGKLJ2ZIfnnHPObBBl0CewJEvJ4t6UnU8wABJsEFwSHHcFU+1kI8lm8lwCdN4zLeIlaGHAJHCI55Rl9HhfMom8hrIgBnNmMQgA0kwF2bp0mwwbAytZSwbTueaaa6I+k8A2lQxxzogIhADZPAQPmUVmLZIgIHBKddoEGgTolAGkwInAOgkCMoMcj4Gf2Qayrwz6QMD2+9//PnsdpQEIgnzpFefCcyjbIptJVpLPUR6E9ASCNjLPZIcpAyFooySCYAthh9ggcAKCNbK5lDwhSMiAUqZw+OGHZ6KLtQacC8KCwDR+LwqC+tFBsIfQJXjm++H7J7CkjfJdUX9OQEubYEYnD4IZf0MA8h12lWHnNfgr3x3ZcDLO+AZGu6CsCP9ijRCBP7MRHJeAHb+grTKzQBkL/UBKCiAIyJqz3oV2ShBN2+e9AL+h7eDDBNQkA9LsGKKXIJ5j8rkw/Bw/IkDuDQiCRRddNLAGCiGLqKH9M+PBrAW+z/lTEgdcY64p78ln4X1p7/gEgXg6Z0TSt771rfD1r389ew+OTfkVIiSBoMAAwUAfwKwawTz+zcwN/QnBPteH0ijED8fnO0NEcd1JTNB30LcxfnN+/B8hwfEGDhyoIJD/QUEgVVEQSI0Mm2KKKbJ6VgZuMuYM9JSQUDJEoEhme8iQIdnUP0EjgXWCdkftMSKCoINyl67gONQZU3ZAwEOwnBcEZK4JVIAgiCCfwZNaW4JwzoVz4twYnBlggQx7eh3vTbaOgZ6AnOx+vk6XgIMZBGCQT5lBBm4MEUQwTPADBCnchw033LCiIGDG4Le//W0WhPA8QBikciBmDvK1yQQACCTOnSwiIoxrwWsRXgiUdJ69gZImSqt4LYYoINgk6GRmBCFFyRSlIQQnnDNBD987z+M7IsPJd7HIIotkgQ3P4Voh2GJbURDUj47ZZpstC5QRyGSz+f7JltO++U4ISimHoa2UzwIgWln/wgwA3xvttxz8EbFJqR+zCQTtBPsE8fgKQSjBJ+DTCAwC+DSbhQjG72gPPD+1YV7HMZh5SouKOec0o0VQnmrhERiIfEQA7R2f4/WURtFWMUr9kq/0BsoKab/4DP0Cn4/+ghIkZuAQSvgSATslgwTb1Okzy5hmKRDqlPchHPIzhSQCOG98mmvDd5B2GGI2gmtDP5OgH+E98W18Br9OpYH0m/hignPBD7k2CcQGCZh8ogAxHtuJgkD+h6E05N5MqUn/QkEgNZIJAvoWBi6m0cniMThSLkLmkQCYoIDbBCB5GPxTFp3sPWVGDGTlEFASsJJFJACi/KZcENx2223ZbQZyAh6ycyRBGGQpryCwJTAig5cGU16HiCHoJggmwOG8GZRZFMhCwwQ+ksoeyBoSSBAYENRgZEtTKQMwqBP0AOdEfW9XggBxQpABBFMICgKB9Hk4Jq9LcFxex+dASDHjwg5HaYtTgq/8efcUyow4j7RbDGVfXAuCs7RbCteVYyNiyHCyGJJzINijJp3ZGMQUQSbiLWWeCehiW1EQ1I9s21Hqz2l7XGuCQkTb9ddfnwWhtGkCZr6DVFoHBKR8b7QhQLAh+PLiFyjzQizT5gnECUo5Nn8JdhEcBLyAMEGIs6gcI4uOQKGMhVJA3gP/AQJvgmbeb4011siej1hnRgpoh8xGAO2QgJtdy2jvBOf8ZY0Sn5FjEBxXmlmsBH0DsxwE8rvuumt27eiz2IyAdsxMC9DWac88zvO51pwTfRAzIJwPz0FQ8R3gixybWTVK71ISln6GfggI2hFAPC/B8fmuWAeFuEtleogW+pi0cxTQ9+Hv+ddzLiRdXFQsPWEo03kM1vlpZAYiHBWY1iUD1xUMAtT5dgdTbuW7GXQFztvVfsM0/lSDXA0clhq53kCHxeejbi9NxZdDh0RWpCvoeOikyI7R2aXpPzqn1LHmodMgSMJBmQZk+pXOk9cz0PK6WuG7ShkROiECKIKHZLwnmRogq8n1AgYGBm+CKjos/jI9SsfC+SkIpAayRcUM9gSBDGIEH5QQMCABmbF8hjvB4EeiIj9ziS8RnOT306Y0gSwggQxBNQEKgypZ6QSCIS0qTgsZ6YsIjql3ZmaCjD9ZPgKUlEkj08g5My1PqQyCAB+lPGnaaafNgoUEfkIQjI8RNCMAOA6ZTc6RUgdEUYKFlxwLyJjSvxDYp0wofRgChWNQlkE/QaBDv0EwxRoIyAsCfJjPQ3kUQTmzEpQq4OMEDjxOYEaAkIfgKa0xqARZW4KNVBZFSUK6TZDGd8hn5r3o/7geXGv6FEQK15YMNeKHz8t3xvVN1y22FQVB/ehgm0kCUoQsPkd7WHDBBSeUziBo+b7KIcPO95Mv3WNGAV9JMN4hGhgjCI6ZbeN4lPsgCnhPMvYIfEQ5RhactksbYrYgzRbSXvEFhADPw8d4nOw6goC+g7aSEpZ5QcD4xnHxBc6BwJkxiz4AYYJwT200T3dtnfGRcZhZLPoOwJfwa9or74nv02ek2UTGbz4/YyftmdkThAzlcXwObvMZgTiGHbjS75RwzXge1xz/4fPn4bPQd9AP0Qcmo09AmOXjEq4vxwaOhy/yeRQE0lOG0lHgiDTKVI+HA6SMFtNXZBS6gkU2vD7/IzxdwaBGsJqgUyFYZaAmGE+L6Vhww8DHoMXAy3QZxmBChizdT5lCpv/JKDBg4SB0cpQZoMq5z/+ol2PA5TMl6CQZQDECcBYp8XwGr3zGBLjPYEqAQmdSLlhwVK4dx0DtJ0FAZ0KmJmX9EnQoZDbIJJBVYNCkE+X5BCdkA7rrtCpBsJMCBK4JmU/eJxlZ1hRMEGylQYHOjGwsHRnXmY6UIILvjY6X6dPYVhQE0huGUadKVpvpdpIODNopkw4kIciu5aGfoIwxLVDNw+BKpjMFtQyG+BwwONP2CVbJUNIHEIgzQKYggvPguPhbKtnB5zgvYFqfMhsGft4L3wQCawJx+ieCo1QrDwT8+A1lGnw2son0BzyHwZzgB5/C54H+I5/Fo+aXxzgux6E2OIkABAIZdF6PQEAMEYwloZQXBAQxlIEQiHMc/DnNJFAPHb+P7NrkITnB8fN9cyUIttI4gPhixgAhlgQSmdoE/SqzJPQ1BC1cbzLJCYJVrgF/EQvx3BQE9aODEhHaPME2SSoCSsbBBN8dbSwP4yOJnyRKE4hnxlR8A/AP6uRZ94PQZ00CQTttDgFNG6StkgQkdiDLTxsnqcfYR8wAtE++f9oQbYA2Tbab8Z8+AX9mFoL2k0AQpPGUMYvzxW/wD47BWEUMQyICEV8+68j5kPnPC55KIADSDCUxB35Nu6bfYBzNJyYQAggQjs+4ybkRnCcQ9pwj8Jnpk1LfQryAAALG/nR9EsQwzHQg1vjekiHG6AvpXxL4JeVFzFxw3fj8CH4FgfSUoXQeOC2NPzV8pq0I9MmYkcmhQ6C2rastyujou8ryARl3BkK28GKQJNtAZ0Gjx6k4PgMHC+7IXhAI03mhgMl004kx4DDFhmghi8+AmabAGaSpYWTAxoHZYQRHpPMhuOdxHqNTo3Nk4Geg5ZzSdD4dBFv/8Rn4jKnj5FwI0nk9syWIEjoEzi8fEHCb4IP3TMEO15GBFrGDgyahhfPTOTJ452HATNkbzimVO/QUOlXei06HDpXryzQknVMerjWdLAEApQdkUpmCJKOT78CAQI7OlmunIJAaGDb11FNnfk+bJPNIlozAkYwegxKLZPFb2i4in78E1vlp8DwE0ZQDkXFDTBDokmEjEMF36V8IUBAiBB/0DywIph9gEGVgpaQBsUwSguCCNo7fchtfJyBiZxKOBcxi4CPMbCAoKHUg2OFz4Ecch8A/JQp4Lplw+gwCcv5SOkCfQ3KBzCKCmz6M17FIkP6BQJ4aZT4Hj/EeBEUpswgE5ARjCUR+CuwI7skupoXQQPkSfQAzA/TvfAeImjQLST/Bd1OeBOkKsqD0E0DgkTL9XCuuL/05wQljCd8tfTZ9KgEUfQ3Xk74cYUj/mIIqBUHdyXYZoi0xttHuGDvxL74XvivaHeMjCTlm5cnUs4C2fFxK8LqpppoqE6B8d3yHBKiUjdHuaL8k+fB12iR+h58SzDLGI/44F9o0wTHnwn3GWgJVfC/NOiXhwZhG+8qvYWB8o+8ABATHRfAkaM/4OOMc4zRjMFn3NP6mxFdP4JrxeuBa0ecwu4HfEvzz+RC8+AUxSZppZOaP96HNkyzE0swHIFpYf8A4jLjiGhA7EBcRcxFP8RquOTEB15PAn1lDnpuM+/gOszP0ecB3G7//7LtP659InvC7L/nEJMdWEEhXDEU90mhQzfzFQen4cWQGWzoLOnOcLa+KEwwO8TgTsvx5aNBkrekoCMTpQHBWbqfMIB0JC81Q2UAHw1QhgSjZPAaw5aOipjPCaQgiEkzdMbjT8TAAkRHEWehU6CxQyjgbMNATvOPcOB3HobNA1ePMTEtyLmnvZZydTCMqm46TgAA4DlmQtNUh7092haCeIIFBj04pZQB4T+6nkiwEFuKEzoNz4XhpOz8EB9e9fOeH7kC8cA4EQVxLbjMQc850GHSkGJ+HzhhhR1aC60rQwuwGgzfBB4ETOyMw9cl5ci4KAqmBYdGygJvBHcHJ7TRDRmBOEMxt2iHtjgGSoKEaDKj4HP0CfQKDISIbH8OX6EcQ1QnaOX0QgzS+zGBIsECQTOBOlpNzYkYgZToZwJkVZODnPPGFlITgPThXAgIG5PJsI/6E0OZ/ZO9TQM4x6D/pS+nf8DkEBn0X8J5p0TF9D/0tCRX6CCBDzznms/z0c5xLgmOlBYo8j2QE1yj1afSFPJb6UHYiIbDrCfTHXEMgcOQ7S6VYwHUlgULgwTWj3+Ez8n3QD9O30NdiBDP0c5QzWDJUdzrIkCO0aZtcazLP+Bn+xneT2jxjJGMgScBUIlwJvvP8rB0xQr4ygGOkWSDaSQqemcVjTMdfeW+Mdsw54BfJ70gA0p5Txpvz4pzpOxL4cloTgIhl/E9xA+Mus2eIFWBM5HiMtwhgknGccyrV6w5EUyoLxEcQ3swGJhhf8S36Fvoe+griG/oYEo/4YmrvfPa0doc+gFlN4gcEEP1NMpJ4vBe+w2u4nogrxmZmR3h+MvyJ/gVhxW3iB8q3ufapLBhILiJA0o5IoCCQSgwlm0bgxwCWptjIxJP5AZyaerpKoISZZSAgrgTOxNQV05gMkDhvyl6TUaLBkuWjcyA4BxwKh8RxyGLh3HRu7IDAa4D3JODGeC3nzXHIYpDBYiDCYfMlOHRQOCeZNjIAzEak8gE6AUQB0KFxXOAYBNepHIjBmilJshQIEDoCHJoggk42leUADsnx6dxwWs6L6T46LgQXHXMKCoDPjKWBvTeQhUhlQJx7Csb4XjHei3MHAoyUbaQDojOhk6UDQ3hxHSi1ogOjJCC2FQWB9IZsDUESxkWCvgoINghmKoGAL4ekSnnihH6D5EjqP3oK/QUlBkAfVn4uvD/PSXA/Zft5bnczjWRXEVg9geOm53K7WtlF+XVJ55QnvZ4+OLYVBUH9yH6YrKu22UiqtYeeQltPvoOITaWBCfwytSV8ifad3pf/VfMv/scYl8Rxd3AeabFzNXj/fHwBeRGTSI/xt6d9Yv7zlH+28v+V/z/B43zmvA8qCKQSQ5kCZ1oKdc2UPeqWTprsGZlmMjgoeDIA+TpRQIkSABO0k+XOq9AEi2jIBODsHJ+gNS8IyMyTbUK5Iy4oAyB4JQtIwEoWiikzyggIvpm6S4KAY7DDCKR6OoJrjkPwm4fBj8wYn4PAnZkQgl/OmVkQhA/CiIGUTFr+Vw6TIEiQySPjzjmRyeCaIQoQUXRifMZ0XpQjMH3HZ6Iz4LPyvgyuZN/JqjGzgVDB+Ax0XL3t0FOtIOVdlBYgQij94twQOmSM2D89ZfVSvSH/Q4QxY0OGAmFFWyBjSQaRzA0zIrGtKAikN2SCIGW9RbpCQVB3OmaaaaYeB77S/1AQSCWGUkZCtpjpXTLsZLqpYaX0hKkoSnyYHkc0UNuWh6CdjDcQcDINXA5T+uwOgnggGGVKjPdJi+EQBASgKcgnmEadUwtL0M0x43lm054ErMxkpM6O0gACeZ5PVpuGzv1Uk5dXxUw3co4E39xGMJBBZ/qNjD0lPPwPCJSpC0wgIAi2AXFArR+zA0m4EHTzOTlXMgYs6El1ulzXfJkTU5jMFiAUEC9M+VOSw1Qfn49dn/IzBj2F2RDEBp+F74lpSUQN3w9ChwCf75C6Z8QX58HMDiIG4cWMBWVNvJ7zRzBQw0ypBzWI8TtQEEhvyAQBpSaTQspGV8qAQXmGDnqbseT5+ddUe79GwPt1lVkEkgP0NXm6yroXEQVB3ZlIEJQnlmhj5W2pEt35XQL/q9R2yyHh1lPf6mkbzx+vmh/1Bo7R0+PU4z17+ll78z6VZjcVBFKJoSz4JRAkOEYYACIg7ZNN7SAZ93IIwgle06wB91kolhazJKhlJVDFaSiRIeglwE6CACFADXCqBSQYTQtsqaGlfIbXU/9IFj6dI50VAS41x/yfUiKCbzLuBNvMJOTra6kbZoYCoYAgoP6PTDzHJJDns6TpdxYI5p2J4JjXUI5EEJ2vtyR4J7NPhp4gmwCIUqb0eTj/vCAgOGfxYoKOgHPjOtCxUj7Vk10/8tD5Ux9JzSGCDjgnSoGYqUBkMf3JuTCrkepB03eAaKAci5kbFl0xo4NAYBaFGR63HZUaGMYvpjLjRQkfopkNAJh15DZ/uc9t2ipCviuouaePoT+iPaeSvgRtGV9O0F7pAyqtw6kkFGjvrG1K4LOp/6B8Dz8nYZC3ntYj56HvoP8rp3wBcYI+ieQF5XuUSNDPsI6BGmyCPe7nSyeSv9MnkBigv8MojeScWXjYFVwvkgE92d65t3Bd6fe7QkFQdzJBAJTZMiOOAEjlY8wE09cz7vAYYw7jYFoTl4d2w7qe7iABl8aSauDrjFMEtWkr0UrQtqmdL2+P5TMftOu8HxJj4P+TCn0W/Q2wVoL3YYFzMhJwqVafWVASbsCiZ64bcUky7qcxnxgC/y2HhGdPxn0SqvhxNfBlKjyoROD7La/cUBBIJTJBQIOmNIiyHhovAXZSomkgLoeBGofNq/NLLrkkW7iagnYg8Ey77+AMdFJ0PmnhHw5P8J5+npwOg+w75SqUIdFZEeQykJJFZ+aCIIDV/ZQy0amx2IdAm4GHAZKsNyIjBRk8l8U5BOvU2OOkzAJQZsSiPQYlzgvHSVsU5uGYPI/dkMoXXzGTwOwCIopgmsAecZWylnlBgMMjmhAMODbnzGdl5oTXM8iXOzsBEGsSqmUQCBp4X94nrcFAHKSyLAYByocIwFJNMp0cjzOzQZkQ6zTolFgcxWflM3H9eb6LiqUGsh8mY1BCWBLw4vP4LIMjs2T4AP5NkFq+nW+C2UMGYwY5XpM2CQD6DjYsYMFdEgAcmxI3BmYCeQJpAiL8FLFNYoFzKJ+5YBFffkcT/I7FwfRVBNaIZt6L1+K3lBCyrW++/+sJbL5A6V75LCCDNP1GHoJ8+l7OgzVN9Imsf8JPOR98FtGCz6YAi+QCop+EBOfL+WPMbBIo8RqgtJH3S7u08Hw+V6qbJkmUFnhOCuwqQxKFLZjLS05BQVB3OmhfBMmU3/Kdkiij3SDK6NMZZwjgSYbR7hCRlJqyIJzxh7GStkEbZ7xlDSDjPf4KfI8cl3EDsUr7jO+bxQ0cm2AUX8snvhiPSDSl+nlKWknE5YU7YyaiAX/mnGkz9BkIfl7HujjEbopN+Msx2QSDvxjjK7sscZvzwwfoA3oL14v4BnhfEo48xnpKzp0NAUgUAmMoyUnAN/GztPiX2IU2nrZH5jpwnYh3KO1lVzEWBn/ta1/LfJPrzjFScgKRjq/j/3wvlHjzXGIXrjVxTFrsD/gxY3da90lswDWgNDihIJBKDGXLTbJ1lIXg6ASweUXJAEZZTIIAHPFAgJmyDnlojHRIqWQmZZ+BQZn3IqgmI48j0LAZMFD+BPp0AjyfgS5l6SkdSrXIODfBLOdKQ0/wf0qTWPHPuaXAFxjs6bhQ5jgbAgLhwY4gOAoZFWZBcFA+fwLn4rNzPBwSxy+HDpTXIZwYTMmys5NCIi8I+B/bt5EJRByRzQDOK34XgQCqfDExzkvnkwRGNTiHJAjIutIRsYiYgZ0OOj8g89l4LuKIToeOluufICCgw2a2RkEgNTCMtk7/QZKBwZRgFaFOwMpAhv8zuKbdSwhI8EsSCLRNggJ+ZIk+hMCY4ACRS8CAkGYwJZlAn4PP4UcEOZT00a/wGLfZmYQZPgzfZxYSXyTQZ+Clv0HME/ggzpnV5JwJVkgmdAXBDuunKs04VIN+h8xtHkRTEvAJspQkMLgu9Gv0F/QlBHUkOwgg8F8gacE1S0EMAQdBDIEKgQnXjNcRVABrmOhvEGrA56SPSwEafUHa0rRW6IMJKul/+QxsKVuerVQQ1J0Otvtlm2zaMsEyfkSbpr0wE4YYpb3nxxR8kHEWH2KWn9fiJ7QpblPCm37/B2GKL/IYPkwb5PvlPuMsYyJtPLUlnhPPK/uuOR5BL4+xJTD9AGNRAj/g/fBJxAgzFIxh+D8+ndbmAWMl5a6M/QhefINxjDiA8ZX7JCTysUB3cE3on+inKJ0msCbgZowk6YbwJplA0E8SgyQoz+V3iui38D+SioyfxEAY6/DyMyhcO0Q6z+Nac47EYYzZXDce43sgvkqZfsqdiQN4Dd8D/SZ9H89NP6jKd0wsw++4sC6S74/vGeHAteYx4PUKAumKoahpOm0GHzoMGhGDCJ0IzkvNPg5McIijkyVAhaeMfjlM9TGwEKzzfP7iEGTAmT2gAeO8OBHORECO4/EYAyyDNq/nvTkP/jIY8v7c5rwIfGnkBOsp88h58x50gDgR2W+cExFCJ4Kz8Dlw9gT18RybcyJYQX3zGEECHRudKh0WnUslyLqn6UKCZ5wWp05w/Vh4nCCrmGYhyNJx7ggOOmQylHSCDNppG1c6iWq7POWhE0WsAdeRgIysKllAAiiCI7ItfF46Z7I8dLKUUqVSIYIHrjuBCJ/dGQKpkWH4E4E1bR5fx0fJsBOM42/MlBGg0O4Q2/gD/kwAT//CQE+WEzHBfYJWAnoyc7RLRC6vI0tPkELQwPHzu4PQjglu8XvENTCYcl4kJ5gZJCtJf4KvcD4EN/gD4Jf0JYh+BnwCEAZqAnIyfb0RBMzy0RclkUHJAbOpBBkELwgbbpMNJZgi4CB5wnml8g/+0mci8kma4K9AJp5z5rU8h/u8jvIkgg+Oz/XnMUh+nWYI+Excg5R95fV87lrhuPRlqYQROC+SRfQ3Cfr12FYUBPWjg13hGGPwL/p7/If2TztnvGKsx/+YnYN8xh2hiKjmuYzDjKncZtxPgTt+g68RKLO+kHGZ2QfGXr5zfAQfo50TPJMV5zX4D8k/bhMT0L6ZzWcGnEAc32D8JZjGV5kdREAy5tNuGIcZF2mbgE+mNsrnog9gvEX4EkAzjnVXmlQO14DEGWMfghoRjr+RwKS/ITnB/1hTSN9D4M77MhuBIOKaMdtCsE5FAWMu9xEqkGYUeR+EDrN7+DXXheQht/l+gOw+/sEMBckPBDXfDclL+gqCfIQKs6bMgnJdiBWII4hDGNuJZfieEU/8j76R2SPWd8W2oiCQicgEQQpgCWgZKOm46UQIdGlENHicHydmD3uUcjVonAzaOBaDO47O4IVAAILzfC0rAxYDSJqCI3ilA6OTwXASziV1OjgAAoLZAo7LYzhjgpkFBkD+R3YqgdLO1yAmNQ5kJuhEUnkQGTUe6w6CDc4FCBIIxPPwnulzAc6dBmECDzpsPm+CTpRjpLIrOrj8NqbVoLOkthH4bOl6J5hZ4VpzPL5PrmOaNeB6kWkgEMH4jniMDmT66adXEEhvGcaPHZGNJNFAoEE/giinfRGcEtTyOG08Zf4YrBDpqXYY0cqsHhBQkzRIbZbBNz2P9yH4xL/y/RNZbvyC/gR/wAcIWBg8UwYT+B+lSUCfxXOAYAR/SQM5QRZChUG2t4KA4IiBH38iYEtiiaCKrCaztAQSiCACACAwIjFBwENggqXbBAYkFCCVFBJU0HchrijlIBNLuQLXgWAtJQwQBPE7ykQAn4mMJwEG3wX3EWmpzIE+M+2K1p0hckhMEMDR/wL30ywzwQqJCmaCKMtCxMTzUBDUjw5K5kjMMUNGIE8Anm83GAkvxmDaDcE9ASYBLu2awJ0AnTGXhBS3KRkiEQc8RsDP62k/+B7jL5l9fB0/on0T8BNEI0IJpDkvMuG0Sdo57RFhQuBNIoCxlLiD4zNuI0bIeNOe0xofHuc80sw15wqcH+MZvkuQzthN2+KcaoFEAoE815EZEGKPPPgd4gU4l7TOEt8hRsL/+By8Fv9hzOe86P/oU+g38En6QOIVrgfnzPNIaiAGeG++F+IEhAM+xbjOdSLmIZHLfV5D7MEx6CvpU5hZpR8lucg1RySRKMWvU6VCbCsKApmI7JeKy+tppe9Ax9BKEAQuKpYayAQBgpjAhECQaXMGLIJ2MoMEJjzOIJkW6BGgENQywAPBRDxWlqkjSCagxSfSIMpzGawRDgQoBP9k8BD2QFCAIGdwZraSTB2ZRwZtBn2CVeCcUs18KkUAAg5KeUgWYAyqCI5aBAHPJWgmeKAUgkCBvpesPkEOgz/3sTTLQaCFCGJnNmYak3GfzC0BSILMO+UiCBYCLM6d56RgkEQDoolkA9eZ4IvvhGtKkEapATOH3Ce7SKAIXDP2ticrWsl4LX95DwKXVMoEBE+pVAkIcPjuCNa4zvH7VRDUjw7Kbvl1XoJ1vg9mifJth0w73zOBJUKX2Tdm05mNIsmGLxHk853hP/gGs9jpN2xI0KXEE/5HUI/Aw08I8tMvAwN+TcKMjDXilvciwMfvCXxp9wTPeT/Ct0lKEtQiKBDOCAJEO8ZzSdohFlL9PJl0+hQEQzI+fy0L/1nrx5hHRQPBO5+XcyU5iiGUqHAgEOdcmMVA1HNNOA8CcQQXnxlxz/UheUE/RB+F0GBGjraP33GurOXkuAgtXo8YoA+jTwD8mf4UX+Kc+I4I7hN8j1x3hEPq3+g76LMQ9vSnJB45LtfEkiHpiqF05PkMtUgeBYHUSLaomEwWgSfBBMEFATXBLEKBAJZghYGcrCKDVYLSIAIIBk+CFcog8rvw8Fwy5wyMDPxkwZjBBAJaBlICC4IUBm4CI96TgZMyG2p7CVTYmhfIYHclCAh4WIhMcM1AjAjAJ2oRBAmCcwKcPGQHy9cQAIM6mX4EBGseKIEkU8ptPhPnBAQllDWw4JCgi6CPc+b8MQIJ6pwJDghMmCHI9/upZCj/eXgPggwECoEiGd/ujGuTFo4mKN0oX4+AICHzjBiMbUVBUD8mCALENIEzopc2kwxRgLjOzzwTWJNtJttNAIzFY2UlL/gGgWZanEsJEGUtzGYj1Mk4E9jT5vDjtNaOgBYxQYDLMXgebQxBzPvgj4h0jo2P0iYJuNmtD9/CEI30Hfgq78V7kBAgsKZchrIhoF3z3vQnyegDED29gf6B8yHLTrtFJCFgeB+EMf6GrzHbyWwEdfn4JwKX2nx8jpl2fIvgHl/nNr5Bf4QYR0wwO8b3glgnWOdaE+AjeBDxlBSRPECY83oEAdec64whuPkuUyKF60efRV/F9aLfxbe4Zvgjn4G+l+vCNZ1yyikVBPI/NEUQkFHLb6mFU6ROo1Yq7aWMg1Du0hU8nkpxEgz+abq9HJyMgbI3MKDy2XD+7sDpqZdkYOyKrj4jnXBvtyWdFBQEUiPDomUZbLJUDJgMhAx2DPoMugxKBC0pM5b8ADHA4MtAS3kNwQDBLyUEKfNPqRADKKUsgKgggAUCWAZzBl0GSe4jSlK2kFIWBm38i/fFZysJAsQDgRLPxacJCOgvJ0UQUL6UzjXBrkipnCcPpReIFmqHCUK4fsx2cD1SwA+UQJFp5JwoCyQg4LoTfPFaxBQlFrwHAQHnT9lWgn6FLCZBCBB0IcbyO8XUSleCIOEagrrTQa05vkTwTRtJpT+0O4z7BIf57xafSDMABK98LwTU+CwzafkNKfBd2hq+QdkK3y+lSYgKAnzEBoE1gSh+hBDgObwHASqvJYOOKMc3aYdJwOLTlNbwGmYlaDckBDgHFj3nweeTICbTjkBAyODrzDDwGdO6oZ6CKMFfCPSTP9IvENhT1sj5UJ7DsQnQ+QwkNvA3rjmfgevI6ynTIaDnc9OHAJl7Mvj0TcAaJcr0mElACJEUoKwRiA14jCCeQJ/bXGOuNf7M9UmJBZIs+DqzFMz6IY44D65Zum58h/S39D2WDElXNEUQ0IhTPSqgpFHg5cE5GQgCCAY+Bjqmt7lNA8fhaPAci0GYAZ3Gze8f5KEzwWnpkPIw0LF4mYwFgyzT1gzC1DUScJChI2BIA2KaBmRREu9JZ8NfOgscjIwBAT3wOZj2BP4yHYvjA4EExyg/H6DzoWOkUyyHY9OJ8vkJgsiIMkiT8SBQIlDncQRLJUFTDxQEUiPZD5OlgJ1gE0OU8xiDNjMGeQggyGoRZOBn+AdT9QyaQGBAgMIgjC9wvFSe0FWQTQBPsEFpDu9HEI3v8x70H3kQBNRaQ14QMEBTtkBwwPnir4gR+gtKk5IgQMTQL3Tl5+UQ1FPvTBB/ySWXZI91JQjoQ8jm8tk4D7K9rHkiuKCMgscISui3Uj9IYEFWkxkFzo/SDzKRBAqU9CAS+OxkHJOYAPycoCOtsaJPoY8mCzqpVBME9JWxrSgI6kcHwo/Am3ZDm0Zc02YIXDFmixhLCSIZL4HyMMZlhAOzAoyPjJUE77QXgljWu9HeCUx5jDbCeM1YyBjGDB3lbeVlOvgrIpXFx/gwYxrjGGMq4iKRHwdJIvIeiBbaKplz1ifkxzqC/1QyhwihnXE8Phuih74Dv0rgT1yTask6Ph9jKueY+ifEAEkMwGeYhcuLKQJ4+itENueBKOA6cj0IwvF3rjkQC5AcIeZC5LAomtkShDx9Cp+TUiNmBpnJo+8B+kbEBf/nNu9BXFS+npPvme+c43IurAPkuPR56ZyZXbFkSLqi4YIAByPbwIDLIhxqfHFw6hNRsTg9jxHc0phZ3MagjTMiAvhfqs+jU8FBCAboGBhMqM/LOziqGkfJD8yocRwCZybbhnMz0FJuQJCAM/I/Oj+m25llYDDlOUBmkulNBlo6MrIPlCikjCavTwM7AyrPJ8sCdIZkLwjwEQvUWvIZGcwRSdTbkonBgQleeDwJJWqBOQ86ATo+ghRqsBn002tSLWijUBBIjQxj0Em7fOCjDFRktchgxv9n094Mhgn8j8CRdp/A91OgTl+SMmPMwuHLZOqYcmdRLkEQfpaEOuKDAIW+gJkAxAT+Qr1uCoQSBBcM/JAXBIgMgmL6pyT6gecQJCVBwLnTx/QEghLKKFhMmbKyXQkCBnL6PIJ76pkJUugzMbKErM3g/Hhv+nCSD4iptAsLZQIEdQlKilK/lIIEdo7BCBa4ViRCuM+145rSP08qCoKm0kHAynhLQMoYRyCZ2g1GQgmBzJiKQEAIMA6Rbac90ecDYxrJsgTtgvGMdpJmrxHkZPWp90dwpkx4HnyL9sq6AYJRRCnnhI+l9tgV+TGc807lQYm8IKAdUX5Dn8LnInPODAntPEEfgJjpiWjPCwJEN++DIMdf2VGI90oljozXJAv5P88lvqAcC4GDMUtBcpN4ARFE/8fr0/olQCilXZwI+OkvOV+ERoK4iIX/XGvGf56XB3HAdcDn+fy8L8KBmQpECXET8LiCQLqi4YKAzBkBMw5CgE+WgUwa02hkJfiLERgwQ4CSpkEzOOMMZDdozEzb0ZHQaaVAHHCSPDgVQXceOjWCZ7JyqGacl86OYIJ6PDIXaQEdx2bmAcel0yNbQOfFeTFFimOj7AlGUuDBIEwnBDyf/6eghg6UDpNOiCAmZS0YaLkmTLEyhc99MgwclwCEY6eOC0FDVpX34P+UMmFkH5jqT1m9RqAgkBoZxgJX/BgfJiDA3xDr+ByBB8KYWTv8lZm55E/AwM7rWDhIoJ+HkjlmDwjwCSqYnsevyJ7jK/gqPs7AnRYn4ztkPYGgBaHCcxn46Zc4DwQ/4If5Gc08ZFU5L7KVzFAkSAIwtd8T+NwM0vnSP/oC+o1y8HFKCugj89CvEvDnoe9hnQAlDcD1RPiQLSWY4nqljCLlDwirtPCR9RgIJWYF6GPYWnrgwIHZ+0wq9L0EZ12hIKg7HWwUQjacds3YlUpQEiSeSHwlaMeITsQ27ZhSHIJRMu1k3LlNG0KcEhgzfjNGI/QY2/EHZvEIiBG5fKf4e3pfxlrGTcZunk9b7q5dIbR5b8Zi/ILPlNYIJfg/vsS5I7DxZZIHBNvMjNHmEL2MlYAPIJ57Av1HWghPspDSRR4jKUBfhSji8zMbwucloEegM15yffBv+hCMvonAnH6FfoN+inEf/+WcU+DPNeYaIijoS0gGMhPI++BDvCcJTNYRcTxmGrimaQaVPpHvjNeTKCURS9yUT2SAgkAq0XBBQNaLhg04DwFsHoL0NFDjxGTfcXA6Hxo3To1z8BiOgFMycBMwIBTo2DA6KBwDp+L9yCjgTDyPjD8BOtlGHuM4/J8ZgJQ1wXlQ/JQDcB/VzxQ614aggvfi+AQWiAdEQJq+ZBAli08Az+t5PpkP7iNycE5u00HSeTBw0+ER5CNQUPrcR4zQOTOIE6zQeaQghQ6UzE6ajmVgp4OoRwavGgoCqZFhLATGp/EtAumUAcuTpvHLRS0L5siC0T+kLHwegl1mGhP4FL7Hc5lVpM9g5ixlMvOlBgn+R99Dpg4RngQ4/Qk1zF2Bn3NeiJg0k8frGHjzQVY1ECPln4nrUF7yBJQe0PeVQ19SLpT4PAQD+fMgK8hnod9K5wu8PwEE50JfQkKG+/zlPs8lkEsllJMC9eH0uV2hIKg7HQg7RDeBaSrZy0N7SMIQv8jP0pHAYsaApBXJNozbGLPv+BbPJ3BN428exgt8Cn/Ap/ENxnEEAWMYPtpTiBXwcQLprnyLsRHfxRcQ1/gw54fxOs6XGa/0nnzuvA9Ug6QBfRBw3PIZRWIFrhXvQ5CO/6b+iFkXzh0fwxjfOR7nkfyJIJ2KiXRtuWbpuvOXGToShZwvCQ5ej3/moT/lM6V+g/chQUKfS/Ix9WflKAikEg0VBNTADRgwIAtsgWnK8mk/guVUR4hTMdVFBoHAH3XNNmbc5jGeRyaNQYyGT1aPaUOmBQneEQ+ocaY/uU12gYCbYIHPyBQ/zksAkjcyImRG0pQakFngfYEMAVk6/qLMOS8ynQmOS90m78uUHlO2XFfuMz1ITSbQkZJ9I/NAkMR7Ms1KXTL3yYQwTZ92c0CAMMVJR8NaBzKuZPnSzioIBDJ7Pe3kakFBIDWSlQyVT2uL5FEQ1J0Ofs+iWp289G8UBFKJhgoClCoBOdNpgNJmmjqV/KDsmWLMzxogGAi8yXCg/snio4KZMSDzT8Ywwe0kJhIo4/KSISBbwHQlxyKzxpoAjHIi3oMgH+EAzCLEa5NlJsg28BmSGOAvmReC91RfyewD2UimAjkm70MmkfscGxECXGeORV0h2RPuIwrINHCfbA5lFVynBCKFzp0sAOdFDSOZO7ILZBWYUcnXXNcbBYHUSLaoOE3Xi3SFgqDudFBm15tMvPQvFARSiYYKAna+YAqM4JkpfqbPKKdJC4+YWqPWLg81cWTfKfVJ5TwEwgTY1Amyaj5BsE2JUB4Cfxbmll78ncMAADKRSURBVE+X8TizDdQ0U0dIrSHGIiDKjZhN4DVMa3JOlARRs0hwzvPy27YxC4DIYWaC7DzCJw/Z/rSYEpjFYOqVGQLeh4w/78PUIAKAWQ/uE+QjkJhZAc6Hz04pAHWRiBFmURA8TClyrRqNgkBqpOmCgNmIJOqZXqft8jeJbabr8UGm+ylBSDOC9FHU6pfD67qa4WAhJf5aaUq+K3h/ygB5H45bDnX/nG+CWULeoxr0p/SB+ZnNPKmGOw+LoXu61qEZKAjqTp8VBMQD+UW+XYFPscA9v56I8bI8RmGRf6W+BR/L+1KCnXvK1xCQIMT/q8F4nN9VKA++3NXCaI7bzO3Be4OCQCrR8DUEBOIEwWlWgECaRUjAYl7qEPOwaImFQiy2YRFxMu5TLkMGPsFgyIIcSINiJUFAB8FOFyzkof6RulZmHShRYk0AC3eA82TGgoGKYJxZAbL4lAzxes6fMiDq99nJIa0RSJ+PDgLRw6K9BIt/qKHlHCkjogyI0iZmEvgFUIQO95kBYRchdmKgxpCOhscZ+Pk1Vs6Tmkg+H8ECgiDfcTYCBYHUSNMFAT7Gjl74GWuXKMXDn1g4y8J+/JS+iNk8Ztm4jTCgRhd/Z+aOIJryRPoI1gpQOljuY8z8cbyufI/HWC/B61kIyLGpn+ZcCMRJSiDm8yA68PO0awmQREm7KyU4NrXf9E/UD9MXUI7IAM99jP+n9RJ8DvpShBCziPTzzGry+wIIA74bHk8iqhUoCOpOnxIEzG4zFjILjl/QHrnNTD4wBud3yaP9klAjWUjyjyoA/JRkGAk6KgcQFQhsFsPjx+XwfNp3HsZTxmwW/qbFu5wP6y0Yr9MiakQD/oBPJp+idBg/TvdJAiZRz33iEoQGr8Gn+GwkNSkN5n56rKt1TK1AQSCVaLggYNDCQRMMwKnshwW0+cAZcHyCbjL5ZOWTIRzInue3QaPDwLFR4+lHdgjQywUBj7F+gePQ2XB8gn2M9QOcB4KD56RsASKA45JhJKhgkRSdEPfZIYAZCzpdjs2glof7+YVadEIIDwIVyqD4S+dA50cJUXnnzfkRPNBZ0okBayYIRJixINBga0F2hWBAZ0eHRtWMKgikRpouCMgapl9FRUQT3OO7qUyPoIBAIf26J/0B/2dtDqKBrYRJAGD0U/gnvlmeXMAP2b2lK0gMUMbHbmqIBvosMpz4EYE8u/cQECWYGeBYM8wwQxaQEPAwA8EMJX0ai4RJBhCo0Pew/Si/RMuuK+woxI+7pfusMyJZQVIkQdKAGUz6YM4HMUDiIW3XihChNLJVKAjqTp8SBATJjOkE1IyprHnjNjPzjKGsqUvb5AILeUkKMs4zc4/RVtkClG1LeV1aZE8cwfHw7TyI6fxmG1wLknmM9wgIjoOP4fscj8QifsbsO7MY+C9rAlnfh1+xwxAbJHAbm3HGGbOxN8HMPglDRAWxxIorrpj1JyT8eA98j5Jk4oe+gIJAKtEUQYCDUovPwITDUw9PEEt2i9IgHmdgZMAmGGa7QLJbPCdvLCLm9SmThmhgAS+LltMKfwbD8t8hwMkJ3Mkw8J7MDtAJYezag0gg48791LngxAgCQCQwKJOhI9Ag45+ECVl8MgQEF3Q0CIz55psv2/ItdWDMCnS1gwilQHQa/BQ86xo4JruBsFiYYIbZDK4Puw0QIJC5oPSIzo3zZYaFsiNmHNJuKvVGQSA10pI1BLRXgn4EOAEvi+/TmiJ8k74I8Zym80lIEFTgv6k/SGt+KkFwnnYOqwYzffQbCQJ6BEG+xIB+jj6AoAQRQV/EubBJAn5P+UMqo6RvIrmAWKGvJOtIX0Qfy32SEPQ9JA0QPUl40Ddwrsw40Fdyjchy0t/wv1ZmLhUEdafPCALaHG0rGZn9tFUupbdk+BmXgXEVmNlLO+mRwSf4xxcQEdxmDV3e72jz5ckw2lRedOMvJPvwJdb/UaFA/8BfxmiSivhXOg7P4TzxKQyBgABI9/EbngPMEKRrzXnhoyTxKPElXuA9WevHsbvrL5qFgkAq0XBBgFInM4Bz8xdnRS0zHY/q5z6DYAr6mVJM+/OWGyocJyagB2YNGHDzU+1sD4aoKHc+HBShQQeQB2fuqhY/ZfUTZP7IHHKudFoMqoDYoJQHAUGwQTaSz0XpAvcJSvhBoPQDROXwHrwX04sY2RA6SyDwJ4tCwEDHAgz+rElAHLAAm46sq20J64WCQGqkqYKAwABfQiCTFMAHSTIwmNN+8Ud8M5Uq4Fv0HQQfbEyAXxM4kNHEb5mhQ6Tjt6kcMEFgQ9BFtj5vzBzkIQFBwJ+gr0DY5zcBYFYgrYPC1+gb+fHFfEBDAEJAwv/J7pPlJDuK37MrGTMi3Oec6Wv4/AT8ZF/5HyA4yFxSrsRaBoIUyhXLty5tNgqCutNnBAEzbGTMGdP4i4hGELMrH7NbzE7R3pkhQ/wSXE811VTZTBrjOIk22i9JQBJj+DKfDf+hOgCfYOtR2jNJNf7PXwQ+ATvCmrEyJfkYR+kX2PMf8Y3v8XtD+Ch+lbYWJQ4hPsH38Stm5+k/uI3xuvS7RVQOsFEKCTquOSWG9CsIAEr16Fv4zK0syytHQSCVaLggQFGX7+FbiXooaBwvP5gmECZMCZZDhowsYfl7c875sh/Awem0egvHqaWD5rMQBFSbaizPjtQbBYHUSFMFAYE+MwGU6FCSR+aRoJ+BH4HNVoz50gQCfwIIhACDOBsJMJtH+QxBNtlLSokIZMoHc0QEs3gE0ylIwNhIgECc45EIIFNIxh6BgZHppPSAAAnxT5BOooMfVgP6J15LcEGgkhYF8zyCGOqWmW1EVHB+BCLMkBJwpB8Xo5yB1wOzsqxfoH9DHJDIYD0Wj5F4IUCjxKirRZHNQkFQd/qMIGBsZUEu7Q9/xN/4sTt+D4hkHsE0s3YIecY4klv4B77MGM56GwJv2itGMpCaf+IVynR4PeXB+EXafIS/CAnq/pltp7Y//e4HJXP0EVQW8L7JSBbi56nUjhkDxDI+hREjUZaX7uODaYaAWQCqAahyIOmJ2KH8iMeYwcfneA3nXp5YaBUKAqlEwwWBFBsFgdRIS9YQMPASEBN0M0ATWBC8IwhYI5DfYYeZRdbpkCEks05ZAplIghWENgFKVzATQClSVyBGEBVk4Am+yUgyo8BsBaKBYILMPjMZiAdKGSj5I+AnuCETCQQUrFUiUcE5IhwIbBAaechsUg+d4EcSU/lkgs/J2gSEDKKD22RN2d2MWYw0a9IKFAR1p0+tIQCScQhQ1rggXpnB53vHEMn4G75LII6/UM6HgGBGn1JbjFkxZvfx4VTuh6hn1r4cZh3Kk4KULCEISBCwLiHtMohxn/NIgoBgH6GQoE/A/xLM0u+9996le/+FkkCeS+IQ/2bGkTWDzH7QZzSqrLe3KAikEgoCqYqCQGqk6YKAAZmAgoGXIJhSA7KRiAACZbKHZMpTSR6LHRMECwyUKZBnVoASxa7q61lDQABBdrAavE/K/gN1/Sw2JFBIUFLADmdkSMnop12NECSUDlEeiZCg/IHSCD4H2VJeR2kl/TeLMCk7otSBWY2U8SfIYqaBz0LWknMhUOE9mC3pKqhpNgqCutNnBAGz6QhcRAC+R1ktM2MEzdwn0C/fcQtBz6wCAT2zfYgE2npq35TmpfbNc7oSBJQGlv+CP8KakiEy9qwRQnAnw9+ZzUvrGfAT7vOeGH0DwpvbnAufgeRBgplCZieAPoOKAGZDSATwXG73JRQEUgkFgVRFQSA10nRBQOkA62oIoKlLZocPBnkCYgIJ2jJ9Hdk6ggqy/GxVSmBMSQABCNlBsvYE0wQPXU3zU7fck0XFHD/92jnw/gRH+ewlAQYGZDzJnqZMIjMIrDvgHMliUn5JORO7jHGe/KXkBxHEfYIj6pupu6bOmsCK80RgUL5AbTOCh92LUlkStLKUQUFQd/qMIGBGi8w6Qh2Y6SIAZ0YOoySIjH0e6vVptxhigv3/kzGjhaBOMwT4USrdwTfSwuSuBAHCnvV4lAyxljHtMojxPogA/BOf5jaJA46NsfaGxfvcpn/hL5+F2TWgDSNkAKGAvyECmCmkJJHZBs7NkiHp6ygIpCoKAqmRpgsCglxmBAigyc6RiWcdAVuRlm8mQIYS0cDATgkP2UMy9GTdGcDTbxl0NYgzoBJoVwMhQvCfr8/vShCkMgnOnXMhuCiflWChJIKAc+G9EzyPcijESx6ym2xCQG00wQ/wl7Il9nznc1H2QKaUhZ+IkFYFKwqCutPnSoYqQXDOzFUeRC4+gxheeeWVM79Nhl9SMsT/gLiF2bJU8pPW05ULAsQx/+f9WMicRDTtnr/sXkjygJkAtg7ltXm/RWCzODkP58C6AwQE/sSMGyKGmQTAtxAEiA36F35XgT6nL6AgkEooCKQqCgKpkaYKAhbgppIAMvNM47OokLIgggbq5gm4KR+iTIHgIr8lKDt9sasIgTOZTdo9tciphp86fxYeE1CQpWQ3FAIWHsO4TSBO1pDggCAjlSYlKCXgV87zv2BKRp/fBmD9ACUVBC6AOOFcMfY+p4a6HEQLARKlDOm5fC4yr2RlybZSNsUiSrKcwI5FZC25BgRDBDqst+hutqNRKAjqTp8VBAhX/JB2SrYeP0KY5sEP8EPKeFhDgLBNxuJ6gnnEAe2VNTGUyNF+8ZcEPwKY/2EyZgj5P5sGsI6BwJz7yfA7di0igM+L9QTvjW8nH8MoBWLWjX6H2UfEAH1E2rIYn0yzcQgRhE6rd/RKKAikEgoCqYqCQGqkqYKALCDBLvC7IZQiMANAsE4WnR14mPYnCCG4plQg/QghmXbKbQic0zahLAykpIbpfxbiUsufjPdhoWD+sWQECAiQ8owisPg3v/UpcB5pa1Cy9UmkkKkk2McQNZUCPH5zgPNmFgExwFoDyis4b7ZT5lwJeFIfz2dmATMzApQ3sAMK2ctWoSCoO31WELBOBn+k7A0/RBSUQ/slYGfbT2b30g5dGL7DY5TtUFbHTkO0+fLZLbYjzYtuYO0MQoHZw3LwHUrzKsHxWRycfIy/7F7E50F44J8sTkbMpHNhnQSzfhi7HjEDQVlTX0BBIJVQEEhVFARSI00vGZoUyF4SRCeo+WVhcqsy5/Wir5+/gqDuFKZkqJkwm9bIXX7S+oUioCCQSigIpCoKAqmRQgkCaQ0KgrqjIJCqKAikEgoCqYqCQGpEQSDdoiCoOwoCqYqCQCqhIJCqKAikRhQE0i0KgrqjIJCqKAikEgoCqYqCQGpEQSDdoiCoOwoCqYqCQCqhIJCqKAikRhQE0i0KgrqjIJCqKAikEgoCqYqCQGpEQSDdoiCoOwoCqYqCQCqhIJCqKAikRhQE0i0KgrqjIJCqKAikEgoCqYqCQGpEQSDdoiCoOwoCqYqCQCqhIJCqKAikRhQE0i0KgrqjIJCqKAikEgoCqYqCQGpEQSDdoiCoOwoCqYqCQCqhIJCqKAikRhQE0i0KgrqjIJCqKAikEgoCqYqCQGpEQSDdoiCoOwoCqYqCQCqhIJCqKAikRhQE0i0KgrqjIJCqKAikEgoCqYqCQGpEQSDdoiCoOwoCqYqCQCqhIJCqKAikRhQE0i0KgrqjIJCqKAikEkOHDBkSRo0aVWoqIhPz5ptvJkFwU2eTEekRpyAI7FukGptvvjl9yx3RFAT14XYEwQcffFC6wiITc/fddysIpEt2nXbaacMjjzxSaioiE/P2228H2khsK+d1NhmRHrFHtHDPPfeUWpLIxBC0LrnkkvQtV0WbjEYjk8z1M888c/j0009LV1lkYjo6OvA5bPusxTQIBUHxoEGEK6+8stRURCbmoosuClNMMQWdx8+zFiPSM+aNNm633XYrtSSRiRk+fHgKTI6iwUhd2HfgwIFZ0CfSFeeee27yu59mLaZBKAiKx5BoY5ZddtlSUxH5L2Twvve979FxvBNtNhqMSA8ZGO3vlCS+9NJLpRYl8l+23npr+pZx0VagwUhdQIh/utJKK4XPPvusdKVFOvnkk0/C/PPPj989G+3rNJhGoSAoJr+KFrbbbrvw3nvvlZqN9HdoCz/72c9SJmFvGopIL1kv2peUhbiWQBLjxo0Lv/nNb1LfcikNReoKMy5hp512ygJAEXj99dfDT3/60+R3v6ShNBIFQTFhMRf14WG++eYLZ511Vrjtttu0fmxnnnlmWHDBBfMDtvW9UiuIyTB48OBwxBFHdNnetP5jV199dWBGmjYR7eZoU0eT+jJNtNuihcUWWyxceOGFXX4XWv+xk046Kcw111zJ706JNnm0hqIgKC6IgiOivRgtNRqtfxttYf9oA6KJTArUqj4drat2pvU/ezMaQcn00aQxIAqOjDY6Wlffgdb/7IVojOlNQUFQfKgT3zzaVv3Yrox2edlj/c1oA7NGE6kXBCg/jtZVe+sv9pto15Q91h9t/mjSHL4RravvoD/ZPdEuK3usvxmbgswYrWkoCKQd2C3azp03RUTqBgs+XY8j0lzOiLZj501pFgoCaQcOiLZv500RkbqxRLSDO2+KSJNgjaRCvMkoCKQdUBCISCNQEIg0HwVBC1AQSDugIBCRRqAgEGk+CoIWoCCQdkBBICKNQEEg0nwUBC1AQSDtgIJARBqBgkCk+SgIWoCCQNoBBYGINAIFgUjzURC0AAWBtAMKAhFpBAoCkeajIGgBCgJpBxQEItIIFAQizUdB0AIUBNIOKAhEpBEoCESaj4KgBSgIpB1QEIhII1AQiDQfBUELUBBIO6AgEJFGoCAQaT4KghagIJB2QEEgIo1AQSDSfBQELUBBIO2AgkBEGoGCQKT5KAhagIJA2gEFgYg0AgWBSPNRELQABYG0AwoCEWkECgKR5qMgaAEKAmkHFAQi0ggUBCLNR0HQAhQE0g4oCESkESgIRJqPgqAFKAikHVAQiEgjUBCINB8FQQtQEEg7oCAQkUagIBBpPgqCFqAgkHZAQSAijUBBINJ8FAQtQEEg7YCCQEQagYJApPkoCFqAgkDaAQWBiDQCBYFI81EQtAAFgbQDCgIRaQQKApHmoyBoAQoCaQcUBCLSCBQEIs1HQdACFATSDigIRKQRKAhEmo+CoAUoCKQdUBCISCNQEIg0HwVBC1AQSDugIBCRRqAgEGk+CoIWoCCQdkBBICKNQEEg0nwUBC1AQSDtgIJARBqBgkCk+SgIWoCCQNoBBYGINAIFgUjzURC0AAWBtAMKAhFpBAoCkeajIGgBCgJpBxQEItIIFAQizUdB0AIUBNIOKAhEpBEoCESaj4KgBSgIpB1QEIhII1AQiDQfBUELUBBIO6AgEJFGoCAQaT4KghagIJB2QEEgIo1AQSDSfBQELUBBIO2AgkBEGoGCQKT5KAhagIJA2gEFgYg0AgWBSPNRELQABYG0AwoCEWkECgKR5qMgaAEKAmkHFAQi0ggUBCLNR0HQAhQE0g4oCESkESgIRJqPgqAFKAikHVAQiEgjUBCINB8FQQtQEEg7oCAQkUagIBBpPgqCFqAgkHZAQSAijUBBINJ8FAQtQEEg7YCCQEQagYJApPkoCFqAgkDaAQWBiDQCBYFI81EQtAAFgbQDCgIRaQQKApHmoyBoAQoCaQcUBCLSCBQEIs1HQdACFATSDigIRKQRKAhEmo+CoAUoCKSITBlt/WiLZve+8pU9o+3eefMri0X7UedNEZFJQkEg0nwUBC1AQSBFZfVo70Y7Mtqx0X4X7bfRPovG/0REJhUFgUjzURC0AAWBFJkbooVo46N9Xrp9a7TJo4mITCoKApHmoyBoAQoCKTIrREMEJPtPtGWiiYjUAwWBSPNRELQABYEUGWYCmBFIguD2aCIi9UJBINJ8FAQtQEEgRWfVaEkQrM0DIiJ1QkEg0nwUBC1AQSDtwH3R7ui8KSJSNxQEIs1HQdACFATFhpKZH0Y7PdoZ/dT47MOjPRzttNJj/dG4Dj+IJiL1Q0Eg0nwUBC1AQVBcZo9GVjxMOeWU4Wtf+5rWj402QFuI9qdo80QTkUlHQSDSfBQELUBBUExmifb3aGGrrbYKjzzySBg9erTWj+2f//xn2HLLLZMoeCzazNFEZNJQEIg0HwVBC1AQFJPzpphiinDmmWcGkTzHHHNMEgVnRfP3GEQmDQWBSPNRELQABUHxWDzaJ5tuumkpBBSZmLXXXhtBMC7a/DQYEakZBYFI81EQtAAFQfHYNVro6OgohX8iE3PXXXeFAQMGIApoKyJSOwoCkeajIGgBCoLiscugQYPCyJEjS+GfyMS8++67YbrppkMQXNnZZESkRhQEIs1HQdACFATFY+iQIUPCqFGjSuGfyMS88cYbSRDc1NlkRKRGFAQizUdB0AIUBMVj6BxzzBH+9a9/lcI/kYnJCYIbOpuMiNSIgkCk+SgIWoCCoHgoCKQqCgKRuqEgEGk+CoIWoCAoHgoCqYqCQKRuKAhEmo+CoAUoCIqHgkCqoiAQqRsKApHmoyBoAQqC4qEgkKooCETqhoJApPkoCFqAgqB4KAikKgoCkbqhIBBpPgqCFqAgKB4KAqmKgkCkbigIRJqPgqAFKAiKh4JAqqIgEKkbCgKR5qMgaAEKguKhIJCqKAhE6oaCQKT5KAhagIKgeCgIpCoKApG6oSAQaT4KghagICgeCgKpioJApG4oCESaj4KgBSgIioeCQKqiIBCpGwoCkeajIGgBCoLioSCQqigIROqGgkCk+SgIWoCCoHgoCKQqCgKRuqEgEGk+CoIWoCAoHgoCqYqCQKRuKAhEmo+CoAUoCIqHgkCqoiAQqRsKApHmoyBoAQqC4qEgkKooCETqhoJApPkoCFqAgqB4KAikKgoCkbqhIBBpPgqCFqAgKB4KAqmKgkCkbigIRJqPgqAFKAiKh4JAqqIgEKkbCgKR5qMgaAEKguKhIJCqKAhE6oaCQKT5KAhagIKgeCgIpCoKApG6oSAQaT4KghagICgeCgKpioJApG4oCESaj4KgBSgIioeCQKqiIBCpGwoCkeajIGgBCoLioSCQqigIROqGgkCk+SgIWoCCoHgoCKQqCgKRuqEgEGk+CoIWoCAoHgoCqYqCQKRuKAhEmo+CoAUoCIqHgkCqoiAQqRsKApHmoyBoAQqC4qEgkKooCETqhoJApPkoCFqAgqB4FFoQPPvss+GJJ54o3evkvffeC1dccUX4/PPPS490zYMPPhief/750r3q3HnnnWHUqFGlexMzZsyY8MEHH5TudfLRRx+FCy+8sNtzKAIKApG6oSAQaT4KghagICgehRYEu+22WzjllFNK9zr5xS9+kQWwp59+eumRTl577bWJgvp11lkn/P73vy/dC+HRRx8No0ePzm6PHTs2vP322+HNN98Mb731VlhhhRXCCSecEN55550sQH733XfDuHHjsufefvvtYdlllw0jR44ML730Uvb3scceC4suumg48sgjw1NPPZWJlldeeSV7ftFQEIjUDQWBSPNRELQABUHxKKwgOOCAA8Jcc80VVl555bDVVltlwfiee+4ZDj744CyQJ+C/+OKLS88O4cwzzwz7779/6V4IG220UTj++ONL90L4/ve/H84444zs9s477xw23HDDsO2224Zf/vKX4Rvf+EZYaaWVwg477BC22WabsNZaa4Xbbrstey6cdtppYe+99w577LFHdlzEwEILLZQ9b5NNNgkbbLDBROKjSPRAEMwcbdrOmyJSBQWBSPNRELQABUHxKKwguPzyy8MyyywT/vznP4fzzjsvrLHGGmGGGWYI++67b/j1r38dfvSjH4VpppkmEwFk888///xwyCGHlF4dwk9/+tNw0kknle6FTFicffbZ2e3FFlssExO8DiOgv+CCCybc33333cNZZ52VPbf82nH/u9/9blZmBHfccUc22/Dll19m94tGFUEwTbTdo90WbTYeEJGqKAhEmo+CoAUoCIpHYQXBfffdFzbbbLNw0UUXheHDh4fjjjsuXHfddeGoo47KMv1XX311eOCBB7LMPCVACIK99torW2OArb/++llJT7q/3HLLhT/+8Y/ZsSkRIuv/4osvZkam/8QTT5xwf6eddsoEAmy//faZuGAdAddx7bXXnnBc1hf87Gc/y86zqOQEwfWdTeYrX422Q7RHo/H4r6OJSPcsGk1/EWku50ZTEDQZBUHxKKwgOOaYY7LyoC233DLL2u+yyy5h3XXXzWYGCMafe+65cM8992SzB3DNNddkMwazzjprZgMHDgzTTjvthPvxWmSzDrDqqquGH//4x+Hwww8Pv/3tb8MCCyyQHZf7hx12WLZmIJUjffzxx9l7s0iZNQ0DBgwI3/zmN8Mqq6wStthii+z5gwcPDuecc072/KKREwR/irZutL9xrUr2bDRmCqaINqWmaVVt6WiHlj2maVpj7YJo+0STJqIgKB6FFQRLL710mH/++cNss80WDjzwwEwYPPTQQ1lQTnCOWLj22muzgB6YJXjmmWeyBb/Y6quvnpUXpfvMKKRFxwT8+TUCG2+8cbj++utL90IW5HcV4L/88svZzAHH+7//+79shoDSobvuuivcf//9pWcVi5wg+CRaEgLJPo42MhrCQNO06vZitLfKHtM0rbH2WbSdokkTURAUj8IKghdeeCEL4snmP/7441nQjgig3p8dgygd+tOf/pSV7wB1/3fffXd2GyjlOfXUU0v3Qha0czxgAfGvfvWrcNNNN2XGguN99tlnwv311ltvwswD8B433nhjJjpYkAwsMmaWglKkhx9+OHusiOQEwT3RDok2JloSBKOirRBtZU3TurUVoy1X9pimaY21laKx+YU0EQVB8SisIGBXoVtuuSUsv/zy2SwAQToB/9ChQ8M//vGPLIufFwRLLrnkhEXDQEkQW4kmEAfpuUsssUR2XEQEx5t77rnDaqutlt1n/QAlQvfee++ErUQ59lVXXRX+/e9/Z2sKgPUKzEisueaa2fnw2wRF/F2CnCC4trPJfGWeaKdE+zAaj/8gmoiIiEiGgqB4FFIQsGMPAoAtPpdaaqlsxx+2CWVrUbb5ZIbg3HPPzbL2KchfccUVJ8wAAM/j+YnLLrtswtagLE5GcCR4L2YG8vDjZ/vtt1/2mwTMSrCOAYGx6aabZv9HEDz99NPZ7kdcXwQHJU1FIycIyncZWizaOdHujTYjD4iIiIgoCIpHYWcIPv300+yXignAybwTgMOhhx6aleiwsJiynoMOOih7nIw/wTnbkGL8tgC7CaX7LAI++uijs+eWw28esOaA7Uw5HvfnnHPObFciZgYoKWI2gDUN/FAZ8JsFPMb7ch6IFwRC0agiCBIslJyp86aIiIj0dxQExaOwggCo0d98882zXxA+4ogjskXC7DSEGNhxxx3D4osvHm699dbsuSwwZvFxEgA8H/HAbQJ8ZgzSLkPlMAvAYmWeg7Fegdd+8cUXWdkSv5a83XbbTfRDZ5deeml2HuxuRIkRZU0FLxnyl4pFRESkWxQExaPQgoBFvOzkM378+Cz4Zpcf/gL1/anGv6cQ4NfK+++/X7rVXigIREREpDcoCIpHoQWBNB4FgYiIiPQGBUHxUBBIVRQEIiIi0hsUBMVDQSBVURCIiIhIb1AQFA8FgVRFQSAiIiK9QUFQPBQEUhUFgYiIiPQGBUHxUBBIVRQEIiIi0hsUBMVDQSBVURCIiIhIb1AQFA8FgVRFQSAiIiK9QUFQPBQEUhUFgYiIiPQGBUHxUBBIVRQEIiIi0hsUBMVDQSBVURCIiIhIb1AQFA8FgVRFQSAiIiK9QUFQPBQEUhUFgYiIiPQGBUHxUBBIVRQEIiIi0hsUBMVDQSBVURCIiIhIb1AQFA8FgVRFQSAiIiK9QUFQPBQEUhUFgYiIiPQGBUHxUBBIVRQEIiIi0hsUBMVDQSBVURCIiIhIb1AQFA8FgVRFQSAiIiK9QUFQPBQEUhUFgYiIiPQGBUHxUBBIVRQEIiIi0hsUBMVDQSBVURCIiIhIb1AQFA8FgVRFQSAiIiK9QUFQPBQEUhUFgYiIiPQGBUHxUBBIVRQEIiIi0hsUBMVDQSBVURCIiIhIb1AQFA8FgVRFQSAiIiK9QUFQPBQEUhUFgYiIiPQGBUHxGDpkyJAwatSoUvgnMjE5QXBjZ5MRERERqYyCoHgMnWWWWcKzzz5bCv9EJuadd94J008/PYLgus4mIyIiIlIZBUHx2H3yyScPd999dyn8E5mYxx57LAwcOBBBcHBnkxERERGpjIKgeKwe7Ys99tijFP6JTMwOO+yAGMCWoMGIiIiIVENBUExum2qqqcIdd9xRCgFFOrn++usDbYM2Em3KrLWIiIiIVEFBUEwWjfb2DDPMEI4//vjw2muvlcJB6a+MGTMmnHLKKWHqqadGDLwSbQEaioiIiEh3KAiKy8rRXooWvvWtb4V11103rL/++lo/NL77eeaZJ5UJPRHt+9FEREREeoSCoNjMFm3faI9Ee7kf2/vR3it7rL8ZbWCvaLNGExEREekxCoL2YIpoA/uxHRTtV2WP9TejDYiIiIj0GgWBtAPMkpAdFxEREZFeoiCQduCAaIgCEREREeklCgJpBxQEIiIiIjWiIJB2QEEgIiIiUiMKAmkHFAQiIiIiNaIgkHZAQSAiIiJSIwoCaQcUBCIiIiI1oiCQdkBBICIiIlIjCgJpBxQEIiIiIjWiIJB2QEEgIiIiUiMKAmkHFAQiIiIiNaIgkHZAQSAiIiJSIwoCaQcUBCIiIiI1oiCQdkBBICIiIlIjCgJpBxQEIiIiIjWiIJB2QEEgIiIiUiMKAmkHFAQiIiIiNaIgkHZAQSAiIiJSIwoCaQcUBCIiIiI1oiCQdkBBICIiIlIjCgJpBxQEIiIiIjWiIJB2QEEgIiIiUiMKAmkHFAQiIiIiNaIgkHZAQSAiIiJSIwoCaQcUBCIiIiI1oiCQdkBBICIiIlIjCgJpBxQEIiIiIjWiIJB2QEEgIiIiUiMKAmkHFAQiIiIiNaIgkHZAQSAiIiJSIwoCaQcUBCIiIiI1oiCQdkBBICIiIlIjCgJpBxQEIiIiIjWiIJB2QEEgIiIiUiMKAmkHFAQiIiIiNaIgkHZAQSAiIiJSIwoCaQcUBCIiIiI1oiCQdkBBICIiIlIjCgJpBxQEIiIiIjWiIJB2QEEgIiIiUiMKAikik5X+JhQEIiIiIjWiIJAiMkW01aMtn937yld2j7Zr582vLBntB503RURERKQ7FARSVFaK9na0Y6OdFu2E0u1Poq0ZTURERER6gIJAisz10UKZXR1NRERERHqIgkCKzLLRxkdLYmBstOWiiYiIiEgPURBI0cnPEvyZB0RERESk5ygIpOiwXgAx8EW0VXlARERERHqOgkDageHR7u+8KSIiIiK9QUEgzWahaGTyd4l2SbSbot0ZjaC+Frsv2nPR2HGI2109pztDTHAOnAvnxLlxjgtHExEREWlrFATSDBaIdlS0jmjvR8tq/qeZZpowxxxzhHnnnTcsvPDCLbOFFlooOwfOhXNK5xftw2icM+f+7WgiIiIibYeCQBoFvya8VrQbo7H7Txg8eHDYcMMNwxlnnBEuv/zy8NBDD4XXXnstfPzxx6HVcA6jR4/Ozolz4xw32mijMNtssyVxMC4aC5g3jDZ5NBEREZG2QEEgjWCNaLdHC1/96lfDFltskQXZH330USn8Lg4ffPBBuOKKK7LPMGDAgCQO2M3I7U1FRESkLVAQSD2ZOdpJ0cZNNdVUYeeddw4jRowohdbF5/HHHw/bbbdd4LPFz/ifaKdEmz6aiIiISGFREEi9YAHuw9HCKqusEv72t7+Vwuj247777gurrrpqmi14INoS0UREREQKiYJA6sEPo71NSc0JJ5wQPv/881Lo3L588cUX4Xe/+10YOHAgouDdaJtyIURERESKhoJAJpX1on04aNCgcOutt5bC5f5DR0dHmHvuuREFn0XbggsiIiIiUiQUBDIpsIvQB7PPPntblwh1x5NPPhnmn39+RAE7Ef2MCyMiIiJSFBQEUitLRXuXbTn7sxhIIAoQRvGavBNtSS6QiIiISBFQEEgtfD3aMzPNNFP45z//WQqJ5Y477kg7ED0ZbVYulIiIiEhfR0EgvYUf5booWjj99NNLobAkzj333DDZZJMhCs7jYomIiIj0dRQE0lt+Ei1suummpRBYytlss80QBNjaXDARERGRvoyCQHrDNNGenHXWWcMrr7xSCn+lnJdeeilQThWv1aPRpubCiYiIiPRVFATSG3aJFo477rhS6CuV4BpxraJtz4UTERER6asoCKSnsHbgsfnmmy98+OGHpbBXKsE1mmeeeRAELDCeiQsoIiIi0hdREEhP2SRaOProo0shr3THsccem2YJ+PE2ERERkT6JgkB6wpTRLpt++unDiy++WAp3pTtGjx4duGbx2l2fXUURERGRPoiCQHrCbNE+3njjjUuhrvSUn/zkJwiCMdHm5EKKiIiI9DUUBNIT1okWzj777FKYKz3l4osvTmVDm3EhRURERPoaCgLpCRdPOeWUYdSoUaUwt3lce+214YEHHijd6+Suu+4KTz31VOle17z22mvhnHPOKd1rHcOHD09lQ4d1XkoRERGRvoWCQHrCNfPPP3/44IMPSmFuc3jnnXfCUkstFR555JHSI53st99+4aqrrirdC+G9994Lp512WjjmmGOyhbzYFltsEaabbrrwhz/8YcJjhx9+ePjrX/9aelXzWHHFFREED0VjLYaIiIhIn0JBIECgOqTz5v/w9WgPb7XVVqXwtnmcdNJJYY899shu77///mG11VYLa6+9dvjWt74VFl100fDDH/4w/OAHPwjDhg0LnB/1+qxz2GSTTcJKK60UBg0alN1Ptu6667Zk1mD11VdHELwezR8pExERkT6HgkAAQXB4tIuiLcgDOVaK9uVhhx1WCm+bw5gxY8JGG22Ulf7sueee4eSTTw733ntvuOeee8IvfvGLLNvP7bvvvjv7ZWAYOXJkuP/++8N9992X/TDYwgsvnL2G+w8++GDTZzgSm2++OYLgzWgzc0FFRERE+hJsh3ha503p53wj2ufR3o1Gm5grGqwQLRx11FGl8LY5IAAGDBgQ1llnnSzDzg99vfrqq5lQ2G233bIFzoiFN998M3v+s88+G4YMGRKWXnrprERnoYUWCtNOO21YfvnlwworrBDmmmuucNBBB2XPbTYnnHACguCTaEtwQUVERET6EjdEuyzaLFq/txmjnRuN4BV7I9pe0Tbm/pFHHlkKb5vDM888k60JmGmmmcLzzz8fHn744bDEEkuEVVddNSy55JJh2WWXzYL99ddfP3z++efhySefzEqCEswIIAwSzCRQdtQKrrnmGq7nuGg/iCYiIiLSp6Bc6L1oI6M9qfVreyLa89GSIEj2MX+bLQjg9NNPD0cccUR2++OPP85mB1555ZXsL7MDzBi89dZb2f8RBPPOO2/Yfffds8CfRcVzzjlnOOSQQ8I+++yTrT1olSCgbKl0LX8eTURERKRPwYJRfjBpHq3f2zejnRwtLwYujrYHt5stCP7yl7+EWWaZJdtRaOWVVw5XXnll+P73v58tKGbHowUWWCArA2Kx8JdffhneeOONsM0224TtttsubLnllhM+w7e//e2sxIgFx5dffnnp6M3l+uuv51zGR1svmoiIiIhIn+Rr0Vg/QPB6XTTWDsD3ozV9DQH795944onhiSeeCM8991z22wOUDLEF6aOPPhpGjBgRzj///Oyx//znP6VXhfDJJ59kC47Zaeh73/teWG+99cIdd9xR+m9rOPXUU7mmn0VbhgsqIiIiItIX+XW0EdHWyu79l1WjTSjdaSb8EBo7CbHA+De/+U3YcMMNS//p5F//+lc2a8AaArj55pvDcsstFy688MLs9wbWXHPNbLExf3fdddfw+uuvZ89rNsxaxGv4drTZuaAiIiIiIn2NyaMtHm1Adm9iZov2zPbbb18Kb5sDv05McM/WoxdddFG4+uqrs12E+O0B1gOw+xA7CvEcthPdcccds/vpV41vueWWsNhii2W3+T9rCxZZZJFw1llnZY81kzXWWANBwCJtZmFERERERArHNfwQGOU4zeLTTz/NLPHYY49lOwvxi8PHH398tpUnP1rGLkNsSYpoSAuMgTIhxAPrCxIdHR3hzjvvLN1rHqussgqCgIXbXQkuEREREZE+z5X8JsDo0aNLIW7z+eKLLyZaK5D46KOPSrcmhuezM1Grefzxx8Oss86KIDih81KKiIiIiBQPtssMV1xxRSnMlZ7CzkZcu2jbciFFRERERIoIi2E/33rrrUthrvSU0oLid6ItxIUUERERESki1L7fOHjw4OzHwKRnvP/++2HQoEEIgruzqygiIiIiUmC2jxbOOeecUrgr3XH22WeHySefHEGwVXYFRUREREQKDL9q/Spbe44fP74U8kolxo4dm/0wWrxmz0ablQsoIiIiIlJ0Dibjfckll5TCXqnEZZddhhjADs6unIiIiIhIGzBztH/PN9982d7/0jWsHZh//vkRAy+VrpmIiIiISNuwdbSw7777lsJfKYdrwzWK9ksumIiIiIhIOzFVtFuihVtuuaUUAkvihhtuCPyIW7w+d3KxRERERETakfmivT3nnHNmv8QrnbzwwgthyJAhiIGXo83NhRIRERERaVc2iPbJAgssEF5++eVSSNx/efPNN8Piiy+eSoU24QKJiIiIiLQ7O0YLyyyzTL8WBWPGjAnLL798EgN7cGFERERERPoLR0cLiy66aBgxYkQpRO4/PPfcc2GxxRZLYmBvLoiIiIiISH9jn2ifzzTTTNn++/2FK6+8MgwePBghMC4asyUiIiIiIv2WH0V7ebLJJgs777xzeO2110phc/vx6quvhp122inNCoyJtmE0EREREZF+D7sPXR8tzDPPPOG4444Lb7/9dimMLj4ffPBBOOGEEwK7K/EZo90YbaFoIiIiIiKSY8toz0QLc801V/jtb3+brS/44osvSqF1cRg3blx27oceemj69WHs+WjbRRMRERERkQpMH23/aE9GC9NMM01Ycsklw9FHHx0uvvji8Mgjj5RC7r7Ho48+mp3jMcccE5Zaaqns3PkMpc+yV7QZoomIiIiISA+YMRq/WXBZNDLrWXA93XTThYUXXjh85zvf6VPGOXFu6TyjMdNxRbT1ovFZRERERESkRmaNtlq0XaJdFG14H7WLow2NxrnOHE1ERERERERERERERERERERERERERERERERERERERERERERERERERERERERERERERERERESkCXzlK/8PCVsBIZJrl+MAAAAASUVORK5CYII=;shadow=0;" vertex="1" parent="1">
          <mxGeometry x="200" y="2740" width="772" height="1064" as="geometry" />
        </mxCell>
      </root>
    </mxGraphModel>
  </diagram>
  <diagram id="pfXpNMYr43FO-uoIZswo" name="第 2 页">
    <mxGraphModel dx="1970" dy="-1557" grid="1" gridSize="10" guides="1" tooltips="1" connect="1" arrows="1" fold="1" page="1" pageScale="1" pageWidth="827" pageHeight="1169" math="0" shadow="0">
      <root>
        <mxCell id="0" />
        <mxCell id="1" parent="0" />
        <mxCell id="1u6FZllm9K0oTs9m4s-s-1" value="ProPacket" style="html=1;whiteSpace=wrap;fontSize=14;" vertex="1" parent="1">
          <mxGeometry x="55.84" y="2605" width="110" height="50" as="geometry" />
        </mxCell>
        <mxCell id="1u6FZllm9K0oTs9m4s-s-2" style="edgeStyle=none;shape=connector;rounded=0;orthogonalLoop=1;jettySize=auto;html=1;exitX=0.5;exitY=0;exitDx=0;exitDy=0;dashed=1;strokeColor=default;align=center;verticalAlign=bottom;fontFamily=Helvetica;fontSize=14;fontColor=default;labelBackgroundColor=none;startArrow=none;startFill=0;endArrow=block;endFill=0;endSize=8;" edge="1" parent="1" source="1u6FZllm9K0oTs9m4s-s-3">
          <mxGeometry relative="1" as="geometry">
            <mxPoint x="110" y="2510" as="targetPoint" />
            <Array as="points">
              <mxPoint x="-60" y="2570" />
              <mxPoint x="110" y="2570" />
            </Array>
          </mxGeometry>
        </mxCell>
        <mxCell id="1u6FZllm9K0oTs9m4s-s-3" value="Header" style="html=1;whiteSpace=wrap;fontSize=14;" vertex="1" parent="1">
          <mxGeometry x="-114.49" y="2732" width="110" height="50" as="geometry" />
        </mxCell>
        <mxCell id="1u6FZllm9K0oTs9m4s-s-4" style="edgeStyle=none;shape=connector;rounded=0;orthogonalLoop=1;jettySize=auto;html=1;exitX=0.5;exitY=0;exitDx=0;exitDy=0;dashed=1;strokeColor=default;align=center;verticalAlign=bottom;fontFamily=Helvetica;fontSize=14;fontColor=default;labelBackgroundColor=none;startArrow=none;startFill=0;endArrow=block;endFill=0;endSize=8;" edge="1" parent="1" source="1u6FZllm9K0oTs9m4s-s-5">
          <mxGeometry relative="1" as="geometry">
            <mxPoint x="110" y="2510" as="targetPoint" />
            <Array as="points">
              <mxPoint x="270" y="2570" />
              <mxPoint x="110" y="2570" />
            </Array>
          </mxGeometry>
        </mxCell>
        <mxCell id="1u6FZllm9K0oTs9m4s-s-5" value="Data" style="html=1;whiteSpace=wrap;fontSize=14;" vertex="1" parent="1">
          <mxGeometry x="216.67" y="2732" width="110" height="50" as="geometry" />
        </mxCell>
        <mxCell id="1u6FZllm9K0oTs9m4s-s-6" value="" style="endArrow=diamondThin;endFill=1;endSize=24;html=1;rounded=0;entryX=0.5;entryY=1;entryDx=0;entryDy=0;exitX=0.5;exitY=0;exitDx=0;exitDy=0;fontSize=14;" edge="1" parent="1" source="1u6FZllm9K0oTs9m4s-s-5" target="1u6FZllm9K0oTs9m4s-s-1">
          <mxGeometry width="160" relative="1" as="geometry">
            <mxPoint x="60" y="2670" as="sourcePoint" />
            <mxPoint x="220" y="2670" as="targetPoint" />
            <Array as="points">
              <mxPoint x="272" y="2710" />
              <mxPoint x="111" y="2710" />
            </Array>
          </mxGeometry>
        </mxCell>
        <mxCell id="1u6FZllm9K0oTs9m4s-s-7" value="" style="endArrow=diamondThin;endFill=1;endSize=24;html=1;rounded=0;entryX=0.5;entryY=1;entryDx=0;entryDy=0;exitX=0.5;exitY=0;exitDx=0;exitDy=0;fontSize=14;" edge="1" parent="1" source="1u6FZllm9K0oTs9m4s-s-3" target="1u6FZllm9K0oTs9m4s-s-1">
          <mxGeometry width="160" relative="1" as="geometry">
            <mxPoint x="-41.16" y="2650" as="sourcePoint" />
            <mxPoint x="118.84" y="2650" as="targetPoint" />
            <Array as="points">
              <mxPoint x="-59" y="2710" />
              <mxPoint x="111" y="2710" />
            </Array>
          </mxGeometry>
        </mxCell>
        <mxCell id="1u6FZllm9K0oTs9m4s-s-8" style="edgeStyle=none;shape=connector;rounded=0;orthogonalLoop=1;jettySize=auto;html=1;exitX=0.5;exitY=0;exitDx=0;exitDy=0;entryX=0.5;entryY=1;entryDx=0;entryDy=0;strokeColor=default;align=center;verticalAlign=bottom;fontFamily=Helvetica;fontSize=14;fontColor=default;labelBackgroundColor=none;endArrow=block;endFill=1;" edge="1" parent="1" source="1u6FZllm9K0oTs9m4s-s-9" target="1u6FZllm9K0oTs9m4s-s-5">
          <mxGeometry relative="1" as="geometry">
            <Array as="points">
              <mxPoint x="67" y="2830" />
              <mxPoint x="272" y="2830" />
            </Array>
          </mxGeometry>
        </mxCell>
        <mxCell id="1u6FZllm9K0oTs9m4s-s-9" value="PublishData" style="html=1;whiteSpace=wrap;fontSize=14;" vertex="1" parent="1">
          <mxGeometry x="12" y="2852" width="110" height="50" as="geometry" />
        </mxCell>
        <mxCell id="1u6FZllm9K0oTs9m4s-s-10" value="DiscoveryData" style="html=1;whiteSpace=wrap;fontSize=14;" vertex="1" parent="1">
          <mxGeometry x="216.67000000000002" y="2852" width="110" height="50" as="geometry" />
        </mxCell>
        <mxCell id="1u6FZllm9K0oTs9m4s-s-11" value="SubscribeData" style="html=1;whiteSpace=wrap;fontSize=14;" vertex="1" parent="1">
          <mxGeometry x="425.84" y="2845" width="110" height="50" as="geometry" />
        </mxCell>
        <mxCell id="1u6FZllm9K0oTs9m4s-s-12" value="Packet" style="html=1;whiteSpace=wrap;fontSize=14;" vertex="1" parent="1">
          <mxGeometry x="55.84" y="2460" width="110" height="50" as="geometry" />
        </mxCell>
        <mxCell id="1u6FZllm9K0oTs9m4s-s-13" value="" style="html=1;verticalAlign=bottom;labelBackgroundColor=none;endArrow=block;endFill=1;rounded=0;exitX=0.5;exitY=0;exitDx=0;exitDy=0;fontSize=14;entryX=0.5;entryY=1;entryDx=0;entryDy=0;" edge="1" parent="1" source="1u6FZllm9K0oTs9m4s-s-10" target="1u6FZllm9K0oTs9m4s-s-5">
          <mxGeometry width="160" relative="1" as="geometry">
            <mxPoint x="190" y="2822" as="sourcePoint" />
            <mxPoint x="272" y="2790" as="targetPoint" />
          </mxGeometry>
        </mxCell>
        <mxCell id="1u6FZllm9K0oTs9m4s-s-14" value="" style="html=1;verticalAlign=bottom;labelBackgroundColor=none;endArrow=block;endFill=1;rounded=0;entryX=0.5;entryY=1;entryDx=0;entryDy=0;exitX=0.5;exitY=0;exitDx=0;exitDy=0;fontSize=14;" edge="1" parent="1" source="1u6FZllm9K0oTs9m4s-s-11" target="1u6FZllm9K0oTs9m4s-s-5">
          <mxGeometry width="160" relative="1" as="geometry">
            <mxPoint x="190" y="2965" as="sourcePoint" />
            <mxPoint x="350" y="2965" as="targetPoint" />
            <Array as="points">
              <mxPoint x="481" y="2830" />
              <mxPoint x="272" y="2830" />
            </Array>
          </mxGeometry>
        </mxCell>
        <mxCell id="1u6FZllm9K0oTs9m4s-s-15" value="" style="endArrow=block;startArrow=none;endFill=0;startFill=0;endSize=8;html=1;verticalAlign=bottom;dashed=1;labelBackgroundColor=none;rounded=0;exitX=0.5;exitY=0;exitDx=0;exitDy=0;fontSize=14;entryX=0.5;entryY=1;entryDx=0;entryDy=0;" edge="1" parent="1" source="1u6FZllm9K0oTs9m4s-s-1" target="1u6FZllm9K0oTs9m4s-s-12">
          <mxGeometry width="160" relative="1" as="geometry">
            <mxPoint x="340.84000000000003" y="2640" as="sourcePoint" />
            <mxPoint x="120" y="2520" as="targetPoint" />
          </mxGeometry>
        </mxCell>
        <mxCell id="1u6FZllm9K0oTs9m4s-s-16" style="edgeStyle=none;shape=connector;rounded=0;orthogonalLoop=1;jettySize=auto;html=1;entryX=0.5;entryY=1;entryDx=0;entryDy=0;strokeColor=default;align=center;verticalAlign=middle;fontFamily=Helvetica;fontSize=14;fontColor=default;labelBackgroundColor=default;endArrow=diamondThin;endFill=1;endSize=24;" edge="1" parent="1" source="1u6FZllm9K0oTs9m4s-s-12" target="1u6FZllm9K0oTs9m4s-s-12">
          <mxGeometry relative="1" as="geometry" />
        </mxCell>
        <mxCell id="1u6FZllm9K0oTs9m4s-s-17" style="edgeStyle=none;shape=connector;rounded=0;orthogonalLoop=1;jettySize=auto;html=1;exitX=0.5;exitY=0;exitDx=0;exitDy=0;entryX=0.5;entryY=1;entryDx=0;entryDy=0;strokeColor=default;align=center;verticalAlign=bottom;fontFamily=Helvetica;fontSize=14;fontColor=default;labelBackgroundColor=none;endArrow=block;endFill=1;" edge="1" parent="1" source="1u6FZllm9K0oTs9m4s-s-18" target="1u6FZllm9K0oTs9m4s-s-5">
          <mxGeometry relative="1" as="geometry">
            <Array as="points">
              <mxPoint x="67" y="2920" />
              <mxPoint x="147" y="2920" />
              <mxPoint x="147" y="2830" />
              <mxPoint x="272" y="2830" />
            </Array>
          </mxGeometry>
        </mxCell>
        <mxCell id="1u6FZllm9K0oTs9m4s-s-18" value="HeartbeatData" style="html=1;whiteSpace=wrap;fontSize=14;" vertex="1" parent="1">
          <mxGeometry x="12" y="2940" width="110" height="50" as="geometry" />
        </mxCell>
        <mxCell id="1u6FZllm9K0oTs9m4s-s-19" style="edgeStyle=none;shape=connector;rounded=0;orthogonalLoop=1;jettySize=auto;html=1;exitX=0.5;exitY=0;exitDx=0;exitDy=0;entryX=0.5;entryY=1;entryDx=0;entryDy=0;strokeColor=default;align=center;verticalAlign=bottom;fontFamily=Helvetica;fontSize=14;fontColor=default;labelBackgroundColor=none;endArrow=block;endFill=1;" edge="1" parent="1">
          <mxGeometry relative="1" as="geometry">
            <mxPoint x="271.6700000000001" y="2940" as="sourcePoint" />
            <mxPoint x="271.6700000000001" y="2782" as="targetPoint" />
            <Array as="points">
              <mxPoint x="272" y="2920" />
              <mxPoint x="380" y="2920" />
              <mxPoint x="380" y="2830" />
              <mxPoint x="272" y="2830" />
            </Array>
          </mxGeometry>
        </mxCell>
        <mxCell id="1u6FZllm9K0oTs9m4s-s-20" value="AckData" style="html=1;whiteSpace=wrap;fontSize=14;" vertex="1" parent="1">
          <mxGeometry x="216.67000000000002" y="2940" width="110" height="50" as="geometry" />
        </mxCell>
        <mxCell id="1u6FZllm9K0oTs9m4s-s-21" style="edgeStyle=none;shape=connector;rounded=0;orthogonalLoop=1;jettySize=auto;html=1;exitX=0.5;exitY=0;exitDx=0;exitDy=0;entryX=0.5;entryY=1;entryDx=0;entryDy=0;strokeColor=default;align=center;verticalAlign=bottom;fontFamily=Helvetica;fontSize=14;fontColor=default;labelBackgroundColor=none;endArrow=block;endFill=1;" edge="1" parent="1" source="1u6FZllm9K0oTs9m4s-s-22" target="1u6FZllm9K0oTs9m4s-s-5">
          <mxGeometry relative="1" as="geometry">
            <Array as="points">
              <mxPoint x="480" y="2920" />
              <mxPoint x="380" y="2920" />
              <mxPoint x="380" y="2830" />
              <mxPoint x="272" y="2830" />
            </Array>
          </mxGeometry>
        </mxCell>
        <mxCell id="1u6FZllm9K0oTs9m4s-s-22" value="ControlData" style="html=1;whiteSpace=wrap;fontSize=14;" vertex="1" parent="1">
          <mxGeometry x="425.84000000000003" y="2940" width="110" height="50" as="geometry" />
        </mxCell>
      </root>
    </mxGraphModel>
  </diagram>
</mxfile>
